<mxfile host="app.diagrams.net" modified="2024-01-29T15:48:41.672Z" agent="Mozilla/5.0 (Macintosh; Intel Mac OS X 10.15; rv:121.0) Gecko/20100101 Firefox/121.0" etag="jgM7FMrVU2WBqKTEcwgE" version="23.0.2" type="device">
  <diagram name="Page-1" id="TVJu-OwbW9rGDXaDp4gM">
    <mxGraphModel dx="1594" dy="-33" grid="0" gridSize="10" guides="1" tooltips="1" connect="1" arrows="1" fold="1" page="0" pageScale="1" pageWidth="1169" pageHeight="827" math="0" shadow="0">
      <root>
        <mxCell id="0" />
        <mxCell id="1" parent="0" />
        <mxCell id="CianoWygyvogbfJQY6NW-96" value="" style="rounded=0;whiteSpace=wrap;html=1;fontSize=16;dashed=1;" parent="1" vertex="1">
          <mxGeometry x="1114" y="1295" width="139.5" height="420" as="geometry" />
        </mxCell>
        <mxCell id="CianoWygyvogbfJQY6NW-94" value="" style="rounded=0;whiteSpace=wrap;html=1;fontSize=16;dashed=1;" parent="1" vertex="1">
          <mxGeometry x="-40" y="860" width="1109" height="1059" as="geometry" />
        </mxCell>
        <mxCell id="CianoWygyvogbfJQY6NW-92" value="" style="rounded=0;whiteSpace=wrap;html=1;fontSize=16;dashed=1;dashPattern=12 12;" parent="1" vertex="1">
          <mxGeometry x="105.25" y="986" width="954.75" height="793" as="geometry" />
        </mxCell>
        <mxCell id="Uual3bUr5-BqV0_soLI1-6" value="" style="rounded=1;whiteSpace=wrap;html=1;" parent="1" vertex="1">
          <mxGeometry x="274" y="1274.36" width="774" height="480" as="geometry" />
        </mxCell>
        <mxCell id="CianoWygyvogbfJQY6NW-38" style="edgeStyle=none;curved=1;rounded=0;orthogonalLoop=1;jettySize=auto;html=1;exitX=1;exitY=0.5;exitDx=0;exitDy=0;entryX=0;entryY=0.5;entryDx=0;entryDy=0;fontSize=12;startSize=8;endSize=8;" parent="1" source="CianoWygyvogbfJQY6NW-13" target="CianoWygyvogbfJQY6NW-35" edge="1">
          <mxGeometry relative="1" as="geometry" />
        </mxCell>
        <mxCell id="CianoWygyvogbfJQY6NW-29" style="edgeStyle=orthogonalEdgeStyle;rounded=0;orthogonalLoop=1;jettySize=auto;html=1;exitX=0.5;exitY=1;exitDx=0;exitDy=0;entryX=0;entryY=0.5;entryDx=0;entryDy=0;fontSize=12;startSize=8;endSize=8;fillColor=#fff2cc;strokeColor=#d6b656;" parent="1" source="CianoWygyvogbfJQY6NW-49" target="CianoWygyvogbfJQY6NW-47" edge="1">
          <mxGeometry relative="1" as="geometry">
            <mxPoint x="383.76" y="1587" as="sourcePoint" />
            <mxPoint x="495.75999999999976" y="1662" as="targetPoint" />
          </mxGeometry>
        </mxCell>
        <mxCell id="CianoWygyvogbfJQY6NW-31" value="&lt;font style=&quot;font-size: 16px;&quot;&gt;&lt;br&gt;&lt;/font&gt;" style="edgeLabel;html=1;align=center;verticalAlign=middle;resizable=0;points=[];fontSize=16;" parent="CianoWygyvogbfJQY6NW-29" vertex="1" connectable="0">
          <mxGeometry x="-0.0221" relative="1" as="geometry">
            <mxPoint as="offset" />
          </mxGeometry>
        </mxCell>
        <mxCell id="CianoWygyvogbfJQY6NW-168" value="&lt;div&gt;export rad command&lt;/div&gt;" style="edgeLabel;html=1;align=center;verticalAlign=middle;resizable=0;points=[];fontSize=16;" parent="CianoWygyvogbfJQY6NW-29" vertex="1" connectable="0">
          <mxGeometry x="0.2073" y="7" relative="1" as="geometry">
            <mxPoint as="offset" />
          </mxGeometry>
        </mxCell>
        <mxCell id="CianoWygyvogbfJQY6NW-100" style="edgeStyle=none;curved=1;rounded=0;orthogonalLoop=1;jettySize=auto;html=1;exitX=1;exitY=0.5;exitDx=0;exitDy=0;entryX=0.029;entryY=0.183;entryDx=0;entryDy=0;fontSize=12;startSize=8;endSize=8;entryPerimeter=0;" parent="1" source="CianoWygyvogbfJQY6NW-35" target="CianoWygyvogbfJQY6NW-96" edge="1">
          <mxGeometry relative="1" as="geometry" />
        </mxCell>
        <mxCell id="CianoWygyvogbfJQY6NW-101" value="&lt;div&gt;FTPS&lt;/div&gt;" style="edgeLabel;html=1;align=center;verticalAlign=middle;resizable=0;points=[];fontSize=16;" parent="CianoWygyvogbfJQY6NW-100" vertex="1" connectable="0">
          <mxGeometry x="-0.2968" y="1" relative="1" as="geometry">
            <mxPoint x="6" as="offset" />
          </mxGeometry>
        </mxCell>
        <mxCell id="CianoWygyvogbfJQY6NW-54" style="edgeStyle=orthogonalEdgeStyle;rounded=0;orthogonalLoop=1;jettySize=auto;html=1;entryX=0.5;entryY=1;entryDx=0;entryDy=0;fontSize=12;startSize=8;endSize=8;endArrow=classic;endFill=1;exitX=1;exitY=0.5;exitDx=0;exitDy=0;startArrow=none;startFill=0;dashed=1;dashPattern=1 1;" parent="1" source="CianoWygyvogbfJQY6NW-42" target="CianoWygyvogbfJQY6NW-35" edge="1">
          <mxGeometry relative="1" as="geometry">
            <mxPoint x="733.76" y="1497" as="sourcePoint" />
          </mxGeometry>
        </mxCell>
        <mxCell id="CianoWygyvogbfJQY6NW-58" style="edgeStyle=orthogonalEdgeStyle;rounded=0;orthogonalLoop=1;jettySize=auto;html=1;exitX=0;exitY=0.5;exitDx=0;exitDy=0;fontSize=12;startSize=8;endSize=8;entryX=0.75;entryY=0;entryDx=0;entryDy=0;startArrow=none;startFill=0;dashed=1;endArrow=classic;endFill=1;dashPattern=1 1;" parent="1" source="CianoWygyvogbfJQY6NW-42" target="CianoWygyvogbfJQY6NW-47" edge="1">
          <mxGeometry relative="1" as="geometry">
            <mxPoint x="563.76" y="1597" as="targetPoint" />
          </mxGeometry>
        </mxCell>
        <mxCell id="CianoWygyvogbfJQY6NW-47" value="&lt;div style=&quot;font-size: 16px;&quot;&gt;&lt;b style=&quot;background-color: initial;&quot;&gt;&lt;font style=&quot;font-size: 16px;&quot;&gt;&lt;br&gt;&lt;/font&gt;&lt;/b&gt;&lt;/div&gt;&lt;div style=&quot;font-size: 16px;&quot;&gt;&lt;b style=&quot;background-color: initial;&quot;&gt;&lt;font style=&quot;font-size: 16px;&quot;&gt;ehr-api&lt;/font&gt;&lt;/b&gt;&lt;br&gt;&lt;/div&gt;" style="rounded=1;whiteSpace=wrap;html=1;align=center;" parent="1" vertex="1">
          <mxGeometry x="524.25" y="1636" width="121" height="96" as="geometry" />
        </mxCell>
        <mxCell id="CianoWygyvogbfJQY6NW-48" value="" style="shape=image;verticalLabelPosition=bottom;labelBackgroundColor=default;verticalAlign=top;aspect=fixed;imageAspect=0;image=data:image/svg+xml,PHN2ZyB4bWxucz0iaHR0cDovL3d3dy53My5vcmcvMjAwMC9zdmciIHZpZXdCb3g9IjAgMCAxNTQgMTU0IiB3aWR0aD0iMjUwMCIgaGVpZ2h0PSIyNTAwIiBmaWxsPSJub25lIj48Y2lyY2xlIHI9Ijc3IiBmaWxsPSIjMDU5OThiIiBjeT0iNzciIGN4PSI3NyIvPjxwYXRoIGZpbGw9IiNmZmYiIGQ9Ik04MS4zNzUgMTguNjY3bC0zOC43NSA3MEg3Ny41bC0zLjg3NSA0Ni42NjYgMzguNzUtNzBINzcuNXoiLz48L3N2Zz4=;" parent="1" vertex="1">
          <mxGeometry x="531" y="1643" width="30" height="30" as="geometry" />
        </mxCell>
        <mxCell id="CianoWygyvogbfJQY6NW-49" value="&lt;div style=&quot;font-size: 16px;&quot;&gt;&lt;b style=&quot;background-color: initial;&quot;&gt;pixl CLI&lt;/b&gt;&lt;br&gt;&lt;/div&gt;" style="rounded=1;whiteSpace=wrap;html=1;align=center;" parent="1" vertex="1">
          <mxGeometry x="297.33" y="1537.5" width="109.67" height="83" as="geometry" />
        </mxCell>
        <mxCell id="CianoWygyvogbfJQY6NW-67" value="" style="edgeStyle=orthogonalEdgeStyle;rounded=0;orthogonalLoop=1;jettySize=auto;html=1;fontSize=12;startSize=8;endSize=8;entryX=0.353;entryY=1.005;entryDx=0;entryDy=0;entryPerimeter=0;" parent="1" source="CianoWygyvogbfJQY6NW-61" target="CianoWygyvogbfJQY6NW-47" edge="1">
          <mxGeometry relative="1" as="geometry" />
        </mxCell>
        <mxCell id="CianoWygyvogbfJQY6NW-68" value="Radiology&lt;br&gt;reports" style="edgeLabel;html=1;align=center;verticalAlign=middle;resizable=0;points=[];fontSize=16;" parent="CianoWygyvogbfJQY6NW-67" vertex="1" connectable="0">
          <mxGeometry x="-0.038" y="-2" relative="1" as="geometry">
            <mxPoint x="-135" y="-2" as="offset" />
          </mxGeometry>
        </mxCell>
        <mxCell id="CianoWygyvogbfJQY6NW-78" value="PIXL" style="text;html=1;align=center;verticalAlign=middle;resizable=0;points=[];autosize=1;strokeColor=none;fillColor=none;fontSize=16;fontStyle=1" parent="1" vertex="1">
          <mxGeometry x="296.25" y="1295" width="60" height="30" as="geometry" />
        </mxCell>
        <mxCell id="CianoWygyvogbfJQY6NW-79" value="public&lt;br&gt;(parquet)" style="whiteSpace=wrap;html=1;shape=mxgraph.basic.document;fontSize=16;" parent="1" vertex="1">
          <mxGeometry x="147.25" y="1288.5" width="78" height="73" as="geometry" />
        </mxCell>
        <mxCell id="CianoWygyvogbfJQY6NW-110" style="edgeStyle=none;curved=1;rounded=0;orthogonalLoop=1;jettySize=auto;html=1;exitX=1;exitY=0.5;exitDx=0;exitDy=0;exitPerimeter=0;entryX=0;entryY=0.25;entryDx=0;entryDy=0;fontSize=12;startSize=8;endSize=8;" parent="1" source="CianoWygyvogbfJQY6NW-80" target="CianoWygyvogbfJQY6NW-49" edge="1">
          <mxGeometry relative="1" as="geometry" />
        </mxCell>
        <mxCell id="CianoWygyvogbfJQY6NW-80" value="private&lt;br&gt;(parquet)" style="whiteSpace=wrap;html=1;shape=mxgraph.basic.document;fontSize=16;" parent="1" vertex="1">
          <mxGeometry x="147.25" y="1351.5" width="78" height="73" as="geometry" />
        </mxCell>
        <mxCell id="CianoWygyvogbfJQY6NW-86" value="OMOP ES&lt;br&gt;log&lt;br&gt;(json)" style="whiteSpace=wrap;html=1;shape=mxgraph.basic.document;fontSize=16;" parent="1" vertex="1">
          <mxGeometry x="147.25" y="1414" width="78" height="76.5" as="geometry" />
        </mxCell>
        <mxCell id="CianoWygyvogbfJQY6NW-93" value="GAE05" style="text;html=1;align=center;verticalAlign=middle;resizable=0;points=[];autosize=1;strokeColor=none;fillColor=none;fontSize=16;fontStyle=1" parent="1" vertex="1">
          <mxGeometry x="107" y="992" width="80" height="30" as="geometry" />
        </mxCell>
        <mxCell id="CianoWygyvogbfJQY6NW-97" value="UCL&lt;br&gt;DSH" style="text;html=1;align=center;verticalAlign=middle;resizable=0;points=[];autosize=1;strokeColor=none;fillColor=none;fontSize=16;fontStyle=1" parent="1" vertex="1">
          <mxGeometry x="1153.75" y="1307.5" width="60" height="50" as="geometry" />
        </mxCell>
        <mxCell id="CianoWygyvogbfJQY6NW-164" style="edgeStyle=orthogonalEdgeStyle;rounded=0;orthogonalLoop=1;jettySize=auto;html=1;exitX=1;exitY=0.75;exitDx=0;exitDy=0;entryX=0;entryY=0.75;entryDx=0;entryDy=0;fontSize=12;startSize=8;endSize=8;fillColor=#d5e8d4;strokeColor=#82b366;" parent="1" source="CianoWygyvogbfJQY6NW-47" target="CianoWygyvogbfJQY6NW-96" edge="1">
          <mxGeometry relative="1" as="geometry">
            <Array as="points">
              <mxPoint x="645" y="1728" />
              <mxPoint x="981" y="1728" />
              <mxPoint x="981" y="1610" />
            </Array>
          </mxGeometry>
        </mxCell>
        <mxCell id="CianoWygyvogbfJQY6NW-165" value="&lt;div&gt;FTPS&lt;/div&gt;" style="edgeLabel;html=1;align=center;verticalAlign=middle;resizable=0;points=[];fontSize=16;" parent="CianoWygyvogbfJQY6NW-164" vertex="1" connectable="0">
          <mxGeometry x="0.0136" y="-1" relative="1" as="geometry">
            <mxPoint as="offset" />
          </mxGeometry>
        </mxCell>
        <mxCell id="CianoWygyvogbfJQY6NW-106" value="&lt;div align=&quot;left&quot;&gt;export directory&lt;/div&gt;&lt;div align=&quot;left&quot;&gt;(public OMOP &amp;amp; reports parquets)&lt;/div&gt;" style="whiteSpace=wrap;html=1;shape=mxgraph.basic.document;fontSize=16;align=left;" parent="1" vertex="1">
          <mxGeometry x="764.26" y="1643.5" width="182.74" height="72" as="geometry" />
        </mxCell>
        <mxCell id="CianoWygyvogbfJQY6NW-115" style="edgeStyle=orthogonalEdgeStyle;rounded=0;orthogonalLoop=1;jettySize=auto;html=1;entryX=-0.005;entryY=0.326;entryDx=0;entryDy=0;entryPerimeter=0;fontSize=12;startSize=8;endSize=8;exitX=1;exitY=0.5;exitDx=0;exitDy=0;fillColor=#fff2cc;strokeColor=#d6b656;startArrow=none;startFill=0;" parent="1" edge="1">
          <mxGeometry relative="1" as="geometry">
            <mxPoint x="645.25" y="1662.5" as="sourcePoint" />
            <mxPoint x="763.3463000000002" y="1662.972" as="targetPoint" />
          </mxGeometry>
        </mxCell>
        <mxCell id="CianoWygyvogbfJQY6NW-135" style="edgeStyle=none;curved=1;rounded=0;orthogonalLoop=1;jettySize=auto;html=1;exitX=0.5;exitY=1;exitDx=0;exitDy=0;fontSize=12;startSize=8;endSize=8;fillColor=#dae8fc;strokeColor=#6c8ebf;" parent="1" source="CianoWygyvogbfJQY6NW-126" target="CianoWygyvogbfJQY6NW-79" edge="1">
          <mxGeometry relative="1" as="geometry" />
        </mxCell>
        <mxCell id="CianoWygyvogbfJQY6NW-151" value="writes" style="edgeLabel;html=1;align=center;verticalAlign=middle;resizable=0;points=[];fontSize=16;" parent="CianoWygyvogbfJQY6NW-135" vertex="1" connectable="0">
          <mxGeometry x="-0.0276" y="-2" relative="1" as="geometry">
            <mxPoint as="offset" />
          </mxGeometry>
        </mxCell>
        <mxCell id="CianoWygyvogbfJQY6NW-126" value="&lt;div style=&quot;font-size: 16px;&quot;&gt;&lt;b style=&quot;background-color: initial;&quot;&gt;OMOP ES&lt;/b&gt;&lt;br&gt;&lt;/div&gt;&lt;div style=&quot;font-size: 16px;&quot;&gt;&lt;b style=&quot;background-color: initial;&quot;&gt;container&lt;/b&gt;&lt;/div&gt;" style="rounded=1;whiteSpace=wrap;html=1;align=center;" parent="1" vertex="1">
          <mxGeometry x="125.25" y="1156" width="121" height="90" as="geometry" />
        </mxCell>
        <mxCell id="CianoWygyvogbfJQY6NW-127" value="" style="edgeStyle=none;curved=1;rounded=0;orthogonalLoop=1;jettySize=auto;html=1;fontSize=12;startSize=8;endSize=8;fillColor=#dae8fc;strokeColor=#6c8ebf;" parent="1" source="CianoWygyvogbfJQY6NW-125" target="CianoWygyvogbfJQY6NW-126" edge="1">
          <mxGeometry relative="1" as="geometry" />
        </mxCell>
        <mxCell id="CianoWygyvogbfJQY6NW-136" value="" style="edgeStyle=none;curved=1;rounded=0;orthogonalLoop=1;jettySize=auto;html=1;fontSize=12;startSize=8;endSize=8;endArrow=diamondThin;endFill=1;fillColor=#dae8fc;strokeColor=#6c8ebf;" parent="1" source="CianoWygyvogbfJQY6NW-130" target="CianoWygyvogbfJQY6NW-126" edge="1">
          <mxGeometry relative="1" as="geometry" />
        </mxCell>
        <mxCell id="CianoWygyvogbfJQY6NW-130" value="&lt;div style=&quot;font-size: 16px;&quot;&gt;&lt;b&gt;OMOP ES&lt;/b&gt;&lt;/div&gt;&lt;div style=&quot;font-size: 16px;&quot;&gt;&lt;b&gt;imaging plugin&lt;/b&gt;&lt;/div&gt;" style="rounded=1;whiteSpace=wrap;html=1;align=center;" parent="1" vertex="1">
          <mxGeometry x="360" y="1156" width="121" height="90" as="geometry" />
        </mxCell>
        <mxCell id="CianoWygyvogbfJQY6NW-137" value="" style="edgeStyle=orthogonalEdgeStyle;rounded=0;orthogonalLoop=1;jettySize=auto;html=1;fontSize=12;startSize=8;endSize=8;fillColor=#dae8fc;strokeColor=#6c8ebf;" parent="1" source="CianoWygyvogbfJQY6NW-131" target="CianoWygyvogbfJQY6NW-126" edge="1">
          <mxGeometry relative="1" as="geometry" />
        </mxCell>
        <mxCell id="CianoWygyvogbfJQY6NW-131" value="Settings" style="whiteSpace=wrap;html=1;shape=mxgraph.basic.document;fontSize=16;" parent="1" vertex="1">
          <mxGeometry x="147.25" y="1039" width="78" height="73" as="geometry" />
        </mxCell>
        <mxCell id="CianoWygyvogbfJQY6NW-132" style="edgeStyle=orthogonalEdgeStyle;rounded=0;orthogonalLoop=1;jettySize=auto;html=1;exitX=1;exitY=0.5;exitDx=0;exitDy=0;entryX=0.75;entryY=1;entryDx=0;entryDy=0;fontSize=12;startSize=8;endSize=8;strokeColor=default;startArrow=none;startFill=0;dashed=1;dashPattern=1 1;" parent="1" source="CianoWygyvogbfJQY6NW-69" target="CianoWygyvogbfJQY6NW-47" edge="1">
          <mxGeometry relative="1" as="geometry" />
        </mxCell>
        <mxCell id="CianoWygyvogbfJQY6NW-133" value="free text&lt;br&gt;from reports" style="edgeLabel;html=1;align=center;verticalAlign=middle;resizable=0;points=[];fontSize=16;" parent="CianoWygyvogbfJQY6NW-132" vertex="1" connectable="0">
          <mxGeometry x="-0.5387" y="3" relative="1" as="geometry">
            <mxPoint as="offset" />
          </mxGeometry>
        </mxCell>
        <mxCell id="CianoWygyvogbfJQY6NW-95" value="UCLH&lt;br&gt;network" style="text;html=1;align=center;verticalAlign=middle;resizable=0;points=[];autosize=1;strokeColor=none;fillColor=none;fontSize=16;fontStyle=1" parent="1" vertex="1">
          <mxGeometry x="-34.05" y="870" width="80" height="50" as="geometry" />
        </mxCell>
        <mxCell id="CianoWygyvogbfJQY6NW-125" value="" style="html=1;verticalLabelPosition=bottom;align=center;labelBackgroundColor=#ffffff;verticalAlign=top;strokeWidth=2;strokeColor=#82b366;shadow=0;dashed=0;shape=mxgraph.ios7.icons.data;fillColor=#d5e8d4;" parent="1" vertex="1">
          <mxGeometry x="9.281593030491663" y="1176" width="54.760423148724335" height="50" as="geometry" />
        </mxCell>
        <mxCell id="CianoWygyvogbfJQY6NW-128" value="&lt;b&gt;Caboodle&lt;/b&gt;" style="text;html=1;align=center;verticalAlign=middle;resizable=0;points=[];autosize=1;strokeColor=none;fillColor=none;fontSize=16;" parent="1" vertex="1">
          <mxGeometry x="-12.785208462974484" y="1232" width="100" height="30" as="geometry" />
        </mxCell>
        <mxCell id="CianoWygyvogbfJQY6NW-61" value="" style="html=1;verticalLabelPosition=bottom;align=center;labelBackgroundColor=#ffffff;verticalAlign=top;strokeWidth=2;strokeColor=#82b366;shadow=0;dashed=0;shape=mxgraph.ios7.icons.data;fillColor=#d5e8d4;" parent="1" vertex="1">
          <mxGeometry x="9.284380833851962" y="1740" width="54.760423148724335" height="50" as="geometry" />
        </mxCell>
        <mxCell id="CianoWygyvogbfJQY6NW-65" value="&lt;div&gt;&lt;span style=&quot;background-color: initial;&quot;&gt;&lt;font style=&quot;font-size: 16px;&quot;&gt;EMAP&lt;/font&gt;&lt;/span&gt;&lt;br&gt;&lt;/div&gt;" style="text;html=1;strokeColor=none;fillColor=none;align=center;verticalAlign=middle;whiteSpace=wrap;rounded=0;fontStyle=1" parent="1" vertex="1">
          <mxGeometry x="3.8083385189795322" y="1787.5" width="65.7125077784692" height="30" as="geometry" />
        </mxCell>
        <mxCell id="CianoWygyvogbfJQY6NW-69" value="&lt;div style=&quot;font-size: 16px;&quot;&gt;&lt;b style=&quot;background-color: initial;&quot;&gt;cogstack&lt;/b&gt;&lt;br&gt;&lt;/div&gt;&lt;div style=&quot;font-size: 16px;&quot;&gt;&lt;b style=&quot;background-color: initial;&quot;&gt;&lt;font style=&quot;font-size: 16px;&quot;&gt;deident api&lt;/font&gt;&lt;/b&gt;&lt;/div&gt;" style="rounded=1;whiteSpace=wrap;html=1;align=center;" parent="1" vertex="1">
          <mxGeometry x="-18.047915370255133" y="1819" width="132.5202240199129" height="83" as="geometry" />
        </mxCell>
        <mxCell id="CianoWygyvogbfJQY6NW-163" style="edgeStyle=orthogonalEdgeStyle;rounded=0;orthogonalLoop=1;jettySize=auto;html=1;exitX=0.75;exitY=1;exitDx=0;exitDy=0;entryX=0.75;entryY=0;entryDx=0;entryDy=0;fontSize=12;startSize=8;endSize=8;" parent="1" source="Uual3bUr5-BqV0_soLI1-70" target="CianoWygyvogbfJQY6NW-14" edge="1">
          <mxGeometry relative="1" as="geometry" />
        </mxCell>
        <mxCell id="Uual3bUr5-BqV0_soLI1-70" value="&lt;b&gt;&lt;font style=&quot;font-size: 16px;&quot;&gt;VNA&lt;/font&gt;&lt;/b&gt;" style="whiteSpace=wrap;html=1;aspect=fixed;fillColor=#d5e8d4;strokeColor=#82b366;" parent="1" vertex="1">
          <mxGeometry x="724.5" y="897" width="62" height="62" as="geometry" />
        </mxCell>
        <mxCell id="CianoWygyvogbfJQY6NW-140" value="" style="edgeStyle=none;curved=1;rounded=0;orthogonalLoop=1;jettySize=auto;html=1;fontSize=12;startSize=8;endSize=8;entryX=0;entryY=0.5;entryDx=0;entryDy=0;entryPerimeter=0;fillColor=#dae8fc;strokeColor=#6c8ebf;" parent="1" source="CianoWygyvogbfJQY6NW-139" target="CianoWygyvogbfJQY6NW-131" edge="1">
          <mxGeometry relative="1" as="geometry" />
        </mxCell>
        <mxCell id="CianoWygyvogbfJQY6NW-141" value="review&lt;br&gt;and run&lt;br&gt;OMOP ES" style="edgeLabel;html=1;align=center;verticalAlign=middle;resizable=0;points=[];fontSize=16;" parent="CianoWygyvogbfJQY6NW-140" vertex="1" connectable="0">
          <mxGeometry x="-0.0215" y="1" relative="1" as="geometry">
            <mxPoint x="1" as="offset" />
          </mxGeometry>
        </mxCell>
        <mxCell id="CianoWygyvogbfJQY6NW-139" value="" style="shape=umlActor;verticalLabelPosition=bottom;verticalAlign=top;html=1;outlineConnect=0;fontSize=16;fillColor=#dae8fc;strokeColor=#6c8ebf;" parent="1" vertex="1">
          <mxGeometry x="-120" y="1045" width="30" height="60" as="geometry" />
        </mxCell>
        <mxCell id="CianoWygyvogbfJQY6NW-146" value="" style="edgeStyle=none;curved=1;rounded=0;orthogonalLoop=1;jettySize=auto;html=1;fontSize=12;startSize=8;endSize=8;" parent="1" source="CianoWygyvogbfJQY6NW-142" target="CianoWygyvogbfJQY6NW-49" edge="1">
          <mxGeometry relative="1" as="geometry">
            <mxPoint x="297.3299999999999" y="1523.25" as="targetPoint" />
          </mxGeometry>
        </mxCell>
        <mxCell id="CianoWygyvogbfJQY6NW-147" value="PIXL populate/start" style="edgeLabel;html=1;align=center;verticalAlign=middle;resizable=0;points=[];fontSize=16;" parent="CianoWygyvogbfJQY6NW-146" vertex="1" connectable="0">
          <mxGeometry x="-0.0123" y="-1" relative="1" as="geometry">
            <mxPoint x="-60" y="-1" as="offset" />
          </mxGeometry>
        </mxCell>
        <mxCell id="CianoWygyvogbfJQY6NW-149" value="" style="rounded=0;orthogonalLoop=1;jettySize=auto;html=1;fontSize=12;startSize=8;endSize=8;entryX=0;entryY=0.5;entryDx=0;entryDy=0;fillColor=#fff2cc;strokeColor=#d6b656;" parent="1" source="CianoWygyvogbfJQY6NW-148" target="CianoWygyvogbfJQY6NW-49" edge="1">
          <mxGeometry relative="1" as="geometry">
            <mxPoint x="945.3199999999997" y="1734.9999999999995" as="targetPoint" />
          </mxGeometry>
        </mxCell>
        <mxCell id="CianoWygyvogbfJQY6NW-150" value="&lt;div&gt;export radiology&lt;/div&gt;&lt;div&gt;reports&lt;/div&gt;" style="edgeLabel;html=1;align=center;verticalAlign=middle;resizable=0;points=[];fontSize=16;" parent="CianoWygyvogbfJQY6NW-149" vertex="1" connectable="0">
          <mxGeometry x="0.0113" y="2" relative="1" as="geometry">
            <mxPoint x="-119" y="1" as="offset" />
          </mxGeometry>
        </mxCell>
        <mxCell id="CianoWygyvogbfJQY6NW-155" value="1" style="text;html=1;align=center;verticalAlign=middle;resizable=0;points=[];autosize=1;strokeColor=#6c8ebf;fillColor=#dae8fc;fontSize=16;" parent="1" vertex="1">
          <mxGeometry x="-158" y="1060" width="27" height="31" as="geometry" />
        </mxCell>
        <mxCell id="CianoWygyvogbfJQY6NW-159" style="edgeStyle=orthogonalEdgeStyle;rounded=0;orthogonalLoop=1;jettySize=auto;html=1;exitX=1;exitY=0.75;exitDx=0;exitDy=0;entryX=0.081;entryY=0.021;entryDx=0;entryDy=0;entryPerimeter=0;fontSize=12;startSize=8;endSize=8;" parent="1" source="CianoWygyvogbfJQY6NW-49" target="CianoWygyvogbfJQY6NW-106" edge="1">
          <mxGeometry relative="1" as="geometry" />
        </mxCell>
        <mxCell id="CianoWygyvogbfJQY6NW-167" value="&lt;div style=&quot;font-size: 13px;&quot;&gt;copy OMOP files&lt;br&gt;&lt;/div&gt;" style="edgeLabel;html=1;align=center;verticalAlign=middle;resizable=0;points=[];fontSize=13;" parent="CianoWygyvogbfJQY6NW-159" vertex="1" connectable="0">
          <mxGeometry x="-0.0788" y="4" relative="1" as="geometry">
            <mxPoint x="-130" y="8" as="offset" />
          </mxGeometry>
        </mxCell>
        <mxCell id="1h0svEDW4cat6tXGmW17-6" value="" style="group" vertex="1" connectable="0" parent="1">
          <mxGeometry x="611" y="1455.78" width="98.38" height="85.22000000000003" as="geometry" />
        </mxCell>
        <mxCell id="CianoWygyvogbfJQY6NW-46" value="" style="shape=image;verticalLabelPosition=bottom;labelBackgroundColor=default;verticalAlign=top;aspect=fixed;imageAspect=0;image=data:image/png,iVBORw0KGgoAAAANSUhEUgAAAMgAAAC4CAYAAACmeqNfAAAACXBIWXMAAAsTAAALEwEAmpwYAAAKT2lDQ1BQaG90b3Nob3AgSUNDIHByb2ZpbGUAAHjanVNnVFPpFj333vRCS4iAlEtvUhUIIFJCi4AUkSYqIQkQSoghodkVUcERRUUEG8igiAOOjoCMFVEsDIoK2AfkIaKOg6OIisr74Xuja9a89+bN/rXXPues852zzwfACAyWSDNRNYAMqUIeEeCDx8TG4eQuQIEKJHAAEAizZCFz/SMBAPh+PDwrIsAHvgABeNMLCADATZvAMByH/w/qQplcAYCEAcB0kThLCIAUAEB6jkKmAEBGAYCdmCZTAKAEAGDLY2LjAFAtAGAnf+bTAICd+Jl7AQBblCEVAaCRACATZYhEAGg7AKzPVopFAFgwABRmS8Q5ANgtADBJV2ZIALC3AMDOEAuyAAgMADBRiIUpAAR7AGDIIyN4AISZABRG8lc88SuuEOcqAAB4mbI8uSQ5RYFbCC1xB1dXLh4ozkkXKxQ2YQJhmkAuwnmZGTKBNA/g88wAAKCRFRHgg/P9eM4Ors7ONo62Dl8t6r8G/yJiYuP+5c+rcEAAAOF0ftH+LC+zGoA7BoBt/qIl7gRoXgugdfeLZrIPQLUAoOnaV/Nw+H48PEWhkLnZ2eXk5NhKxEJbYcpXff5nwl/AV/1s+X48/Pf14L7iJIEyXYFHBPjgwsz0TKUcz5IJhGLc5o9H/LcL//wd0yLESWK5WCoU41EScY5EmozzMqUiiUKSKcUl0v9k4t8s+wM+3zUAsGo+AXuRLahdYwP2SycQWHTA4vcAAPK7b8HUKAgDgGiD4c93/+8//UegJQCAZkmScQAAXkQkLlTKsz/HCAAARKCBKrBBG/TBGCzABhzBBdzBC/xgNoRCJMTCQhBCCmSAHHJgKayCQiiGzbAdKmAv1EAdNMBRaIaTcA4uwlW4Dj1wD/phCJ7BKLyBCQRByAgTYSHaiAFiilgjjggXmYX4IcFIBBKLJCDJiBRRIkuRNUgxUopUIFVIHfI9cgI5h1xGupE7yAAygvyGvEcxlIGyUT3UDLVDuag3GoRGogvQZHQxmo8WoJvQcrQaPYw2oefQq2gP2o8+Q8cwwOgYBzPEbDAuxsNCsTgsCZNjy7EirAyrxhqwVqwDu4n1Y8+xdwQSgUXACTYEd0IgYR5BSFhMWE7YSKggHCQ0EdoJNwkDhFHCJyKTqEu0JroR+cQYYjIxh1hILCPWEo8TLxB7iEPENyQSiUMyJ7mQAkmxpFTSEtJG0m5SI+ksqZs0SBojk8naZGuyBzmULCAryIXkneTD5DPkG+Qh8lsKnWJAcaT4U+IoUspqShnlEOU05QZlmDJBVaOaUt2ooVQRNY9aQq2htlKvUYeoEzR1mjnNgxZJS6WtopXTGmgXaPdpr+h0uhHdlR5Ol9BX0svpR+iX6AP0dwwNhhWDx4hnKBmbGAcYZxl3GK+YTKYZ04sZx1QwNzHrmOeZD5lvVVgqtip8FZHKCpVKlSaVGyovVKmqpqreqgtV81XLVI+pXlN9rkZVM1PjqQnUlqtVqp1Q61MbU2epO6iHqmeob1Q/pH5Z/YkGWcNMw09DpFGgsV/jvMYgC2MZs3gsIWsNq4Z1gTXEJrHN2Xx2KruY/R27iz2qqaE5QzNKM1ezUvOUZj8H45hx+Jx0TgnnKKeX836K3hTvKeIpG6Y0TLkxZVxrqpaXllirSKtRq0frvTau7aedpr1Fu1n7gQ5Bx0onXCdHZ4/OBZ3nU9lT3acKpxZNPTr1ri6qa6UbobtEd79up+6Ynr5egJ5Mb6feeb3n+hx9L/1U/W36p/VHDFgGswwkBtsMzhg8xTVxbzwdL8fb8VFDXcNAQ6VhlWGX4YSRudE8o9VGjUYPjGnGXOMk423GbcajJgYmISZLTepN7ppSTbmmKaY7TDtMx83MzaLN1pk1mz0x1zLnm+eb15vft2BaeFostqi2uGVJsuRaplnutrxuhVo5WaVYVVpds0atna0l1rutu6cRp7lOk06rntZnw7Dxtsm2qbcZsOXYBtuutm22fWFnYhdnt8Wuw+6TvZN9un2N/T0HDYfZDqsdWh1+c7RyFDpWOt6azpzuP33F9JbpL2dYzxDP2DPjthPLKcRpnVOb00dnF2e5c4PziIuJS4LLLpc+Lpsbxt3IveRKdPVxXeF60vWdm7Obwu2o26/uNu5p7ofcn8w0nymeWTNz0MPIQ+BR5dE/C5+VMGvfrH5PQ0+BZ7XnIy9jL5FXrdewt6V3qvdh7xc+9j5yn+M+4zw33jLeWV/MN8C3yLfLT8Nvnl+F30N/I/9k/3r/0QCngCUBZwOJgUGBWwL7+Hp8Ib+OPzrbZfay2e1BjKC5QRVBj4KtguXBrSFoyOyQrSH355jOkc5pDoVQfujW0Adh5mGLw34MJ4WHhVeGP45wiFga0TGXNXfR3ENz30T6RJZE3ptnMU85ry1KNSo+qi5qPNo3ujS6P8YuZlnM1VidWElsSxw5LiquNm5svt/87fOH4p3iC+N7F5gvyF1weaHOwvSFpxapLhIsOpZATIhOOJTwQRAqqBaMJfITdyWOCnnCHcJnIi/RNtGI2ENcKh5O8kgqTXqS7JG8NXkkxTOlLOW5hCepkLxMDUzdmzqeFpp2IG0yPTq9MYOSkZBxQqohTZO2Z+pn5mZ2y6xlhbL+xW6Lty8elQfJa7OQrAVZLQq2QqboVFoo1yoHsmdlV2a/zYnKOZarnivN7cyzytuQN5zvn//tEsIS4ZK2pYZLVy0dWOa9rGo5sjxxedsK4xUFK4ZWBqw8uIq2Km3VT6vtV5eufr0mek1rgV7ByoLBtQFr6wtVCuWFfevc1+1dT1gvWd+1YfqGnRs+FYmKrhTbF5cVf9go3HjlG4dvyr+Z3JS0qavEuWTPZtJm6ebeLZ5bDpaql+aXDm4N2dq0Dd9WtO319kXbL5fNKNu7g7ZDuaO/PLi8ZafJzs07P1SkVPRU+lQ27tLdtWHX+G7R7ht7vPY07NXbW7z3/T7JvttVAVVN1WbVZftJ+7P3P66Jqun4lvttXa1ObXHtxwPSA/0HIw6217nU1R3SPVRSj9Yr60cOxx++/p3vdy0NNg1VjZzG4iNwRHnk6fcJ3/ceDTradox7rOEH0x92HWcdL2pCmvKaRptTmvtbYlu6T8w+0dbq3nr8R9sfD5w0PFl5SvNUyWna6YLTk2fyz4ydlZ19fi753GDborZ752PO32oPb++6EHTh0kX/i+c7vDvOXPK4dPKy2+UTV7hXmq86X23qdOo8/pPTT8e7nLuarrlca7nuer21e2b36RueN87d9L158Rb/1tWeOT3dvfN6b/fF9/XfFt1+cif9zsu72Xcn7q28T7xf9EDtQdlD3YfVP1v+3Njv3H9qwHeg89HcR/cGhYPP/pH1jw9DBY+Zj8uGDYbrnjg+OTniP3L96fynQ89kzyaeF/6i/suuFxYvfvjV69fO0ZjRoZfyl5O/bXyl/erA6xmv28bCxh6+yXgzMV70VvvtwXfcdx3vo98PT+R8IH8o/2j5sfVT0Kf7kxmTk/8EA5jz/GMzLdsAAAAgY0hSTQAAeiUAAICDAAD5/wAAgOkAAHUwAADqYAAAOpgAABdvkl/FRgAAnDZJREFUeNrsfXeYVOX59n36mTN9tvdGL0vvTQEFsYEdDMb8rNFEk6ixphj9Yo8tsUQsmMQGKhZQOoIgLHWXsgsssL3v9Hbq+/2xO+MsIoICuya+1zVc7OzsnPbeT7mfRtXV1aGnLEIIXC4XLrvsMrS2tmLKlCkoLy+H1+uF1WrFz3/+c+zatQulpaX4+c9/jscffxzJycmYOnUqjhw5gn379uHPf/4zHn74YXzxxRe4//77cdVVV2HXrl1obW1FMBiEzWaDw+HAmDFj8Oijj2LhwoWYOHEipkyZgqlTp+L666/HWWedhfPOOw/XXXcdfv/732PRokWYNWsWAMDj8QAAWltbcfDgQZx99tlgGAa9evXC1q1boWkaBgwYgPb2dlRXV8PlcqGxsRE2mw0ejwdVVVX4zW9+g/feew/r16+Hoih4+umncfvttyMYDGLNmjWYPXs2GIbBxIkTMW/ePLhcLlx33XX4y1/+Ak3TsGXLFowZMwZNTU3Ytm0bMjMzkZKSguHDh+PBBx/Eo48+iieffNLudrutv/71r/v+5z//6V9SUpJeXFwsDhgwILu+vt4RDAbNPp/PGgqFTDzPq5IkRUVRlCVJihQVFTWsW7euwefzhWbNmlUzc+bMsqeffrr6iSee8P773/828vPzUVlZiWg0img0Co7jkJKSgt27d+PKK6+EqqoQRRGEEKxduxbBYBAURWHChAlYs2YN/vrXv8LtdmPHjh1wuVwYPnw4Bg8eDF3X0dMWi/+iRdM0BEEAwzAAAEEQYLVaIUkSYzKZOFVVGZPJpEuSpFqtVp3n+fjfcRwHQRBA0/TpudEsC4ZhQNM0JEkSWJZ1UhRlA0A1NDTQpaWlYiQSYaurq4MADIqiCMuyAVEU3ZIkyQDA8zxomgYhBIQQcBwHhmFgMplYv9+fW1dXN8Ln8014/vnne1dVVRW3tLSk3nHHHZxhGBQAlJWVoays7DvP9auvvor/f9GiRVi8eDERRdHz5JNP7qiqqjpgs9k2y7L8pSAI1aqqGhRF4b91/WgBQggBRVFgGAY8z0MUxSyfz5dVWlpa6PV6RwLIfeutt5gNGza4vF6vpCiKoKoqy3GcynGc6nK5AhUVFR4Aqs/na6yurq7ftWvXQVmW6wVBaBYEoQGAEQNN7HgnsziOA8uy4Hk+t7GxcVA0Gj37yJEjvf/2t7/l1dXVZaiqmgKAfuKJJ/DEE090+Vtd10lpaWnbs88+28CybINhGK2VlZXbVVXdIYriYUmSfLt27Rrr8/nOX7ly5ZjW1tZRkUiEA4ANGzbEv0fTtB90nw3DAAAqFAq5Vq5cOR3A9IMHD95isVhkh8OxJS8vb5nL5fqQ5/kD/41A+dEBhKKo2KYzqao63OPxXPzCCy+MVVW1b21tbeqvf/3r+GcrKipQUVHxnd9ZWlqK0tJSvP7666AoCp988knrhg0bDquq2r53796tfr//K57nDxqGcZjn+bgEP9ZiGAYcx4GiqPyGhoZLN23adEEkEhnW0tJij31mx44dJyIAqLa2tpS2trYUAEMA4G9/+9s1AJCZmdm8bds2X0VFRZ/vs+e/6xZ3vo67gsGgEAwGJ9fV1U22Wq1/zsjI+NJisfxDEITPaZqO/gSQM6wtGIaBIAgghPQ9fPjwjffcc88FtbW1vRVFoU71serr61Pq6+tTAGDhwoWzAGDBggVeXdePjBw5chshZI3Vav2KYZhqQRCgaRpYloUgCPB4PBMXL158W2Vl5Tnt7e2O03E/Ghoa0hoaGtKO8xEdAMUwjF5QUODNzs5mk5OT7SaTSU1LS/O6XC5FkiSIoghVVaHrOnRdhyzLqKurs7S3tzsDgUCopqYmVFNTY/b7/VInsJhjHSwQCIiBQGA6TdPTn3322X1nnXXW00OGDPkPISTyE0DOgBklCAKCwWDxq6+++ocNGzbMCgQC0kl8jd75SpSQieKf+bYHn7gaGxsdAIYtW7ZsGE3TN0iS5LXb7ftLSkqWjRgxYqnf7ycbNmz4U2Vl5SxFUb7rvhIAKk3TFM/zLMMwuiAIMs/zGs/zuizLbCAQkAzDYHVd11VV1TvPm/uW79MEQTCGDBniLy4utg8aNKh91KhRYnp6ui0pKUm02+1M598LANJO1EKMRCKi2+3mGxoaQuvXrw/t27fPuWPHjsCePXvsmqZRR983wzBw8ODBAZWVla/06dPnd2edddYfJEn6IBQKkZ8AchqAwbIsCCEZra2tfzx48OAvFEURjgcElmU1h8PBFBUVtQ0ePFhMS0uzWyyWcE5OTsBmsxGTyUQJgkCrqkpkWTY8Hg9qa2utfr/fGg6How0NDb7y8nKutrbWEQwGVU3TmGNtSsMwEAwGHcFgcEx9ff2Y7du330dRlH4c4Bocx2k5OTmRcePGaX379rUWFRW19unTR8zOznZRFMUwDMMzDMPSNE10XacVRaE7TRnlyJEjnpqaGqa6ujq5pqbGW1ZWph86dCjF6XSGzjnnHEyYMEGdPn26KT093cKyLAMgPeHY1u/5GHiTycRnZWUhKyuLGzVqlAWAoSiKpaamRvnss8/kjz76iPryyy9NsizziWYZIQT79+/vv3///sUDBgxYnZyc/GtJksp/Asgp9jWi0eh5q1atWqAoSua3fExNSUnRzjnnnPC4ceMsY8eODfTr188lSZKT7qCjqM4NciKbhAfgUFWVCYfDVGVlpb+srEysrq5Wv/jii9C+ffvs7e3tuq7rpmPZ49/ijyhjx46NXHrppezZZ5+tDhgwwMLzPOkEXdbREvtbzsvUq1evxGNaNU0jwWCQ4nlelCQJACxniijkeV7o1asXfv3rX0u//vWvtQMHDiivvvqq96233uLq6uokAF1owH379k1zOp2bU1NT/zxt2rRnKIr6UWkTqqfFQZKSkjB37lz6yy+/fCQSidwVDoe/4WPwPC9PmzYtet1112H69Omc3W4Xj34wp3AZAEgwGFS3b98e2blzJ7t06VK9rKxMaGlp4b5FyBgDBgzwv/TSS9qkSZOcJ2LCnY7bKatauNUTgi8kM63eYLCxzR9t84URiqpsKKrwUVkVWIbRRZ5ReI7VbWZBzUq2UdmpdqvdIgrJDrPitJhMJyBISSAQkN944w356aefZo8cOSIdy9E/55xzPgiFQrc+9dRTTU1NTdi5c2ePj4NQjY2NPeJEaJqO8fzUeeed9+qmTZt+cYzPqJdffnn43nvvpYcMGSJ118YDgJaWltDmzZuxZMkSdc2aNUJ1dTUPgE1OTg7dc8896k033SRaLBbxOx0kw4h4g1E5HFWJbhiUrhvgWIaIHAuTwNEWiZcoiuJOyolv84eeW7QxsnlvreINRs1RRRUIwBICKsa+EQIKIBRAEVAA1XlddAdXqzIMrWUmWSM5aQ6mV3ZSZETfLGFQQRqfnWo/LmACgYD8+OOPR5599lkhEAh8Q9uKonho8eLFcxiG2f3VV1/1fIDs2bOnR4AjGAyira2Neu211/61ePHiq4/elAMHDgw/99xz2tSpUy3HAQYxDKIdaXQHalt8Qm2LL1jT5JVbvEHOE4hImmYwMRedokBcNimU6rQoqU4Lm+q0WJ1Wkc5IskVzUm2iJPJSJxi+UzMFg8HI6tWrtS+//DJ8880324qKisRjSVACaJV17cF9R5pJ2aGm0P6aVksgLFOBsGxEZJXoBoFuGBTLMETgWIg8y9jMAmMWOa0g0xUYVJhmykl18H1ykuG0mqwJpMM3VrMnGP1g3R7/f1bsohrbA0lWSaBp+uQIP1UzoGg6DMOAYRDVZTMF++enqjNG9yHTRhRZ0pOs0rccnxw8eDD6q1/9Sl6xYoXt6HuYkZHRescdd1yladoaQRAwYsSInguQt99+u9tPgud5HDhwAH/729+eaW1tvf1oc+X6669vf/LJJx12u/2YkjQcVcKb99ZG1u44pOw82CA0tQdptz8sUhTFMQzNUFSHT0N9w9kmMAgBIYBBDAOgZIdFVF02E5Jskto3LyU8pCjD2jc3Re+Tk2zlOYb5HlqLNLT5g59urAguLznAHG7wcN5gxMoxNEszNBiKAsPQoCiAiolygnisRTdI/Dw1TVc5llHSkyxafrpLnjKsgBk/KI/pl5di+Tap7glEIq99us2/8PPtfFTR7RYT/71MUYqioOkGZFWDrGhKisMcnTq8KDTv3CFCcVGG/Vvui/rMM8/I99xzDyXLsjnxFzabLXTttdf+YsCAAYv69++P4uLingmQ9957r9tPQhAErFy58ra///3vzx69uR599NHw3XffzXU60V2lpDsYeHdNWeCjDfu46iavBRREgWMojqHBMHTMlPjum5Dwj24Y0DUDumFA1Q2i6oZilwQtyS5pgwrTo2MH5vCj+ueQokyXjaYpBt8eVCPVTZ7APz8uCX+++YDJHYhIJp7jeI4Bw1AndF7f3KQd16NqBlRdh6xoulUSov3zUgIXTuhPzRzTx5zsMJuPcU5kf3Wr55F/rVO/KD1is5kFE0vT+L7eMkUBmm4gFFEIzzL+s4YXBW+9ZKw0sCDNfgyNSzZu3OidN2+epaamhk08N6vVGvn1r389d86cOR/16tWrZwLkww8/7Fan3Gq1Yvv27UMeeOCBLzVNS2RjjGeeeUa//fbb2aMfuKxq0YXLdnheXbqNbfYEHRaR53ju9LgjFAXoBoGuG5BVHZqmqzazGE1zmsPXnDeCufrcoUlHn19UVqMLlm5zv/rJVsEfkl0Wiad+yIb8rnOTFQ1RRVPSXZbg+eP6RX82Y5g5P8NpO/q8dN1Q3vhsh/uZRV/ymmY4JZGjCPlhxzcMgkBEISLHBK6aPiRy6yXjzE6r6RusWlVVlTZ79uxQaWmpNRFEFosltGDBgouvvPLK1YFA4FszFLoNIBs3buy2g3Mch+bmZur+++9fWVZWNi3hV9o999zjfeSRR1xHS6TKuvbAPS997tlWUZdplQSWY8+sn04BCMkqzCLvfvmuOdTIflnORMwfafQE7/rHMu+2ivo0m0XgudMAjG9bmm4gGFF0u0X0XnbWIPn6C0bZ0lyWb2zWHfvrW+74+1KjrtWXbjOLOBV70jAIfKGo0isryffHX0zDpCH5yUcDtK2tLXzJJZcEN2zYkJL4u8zMzOZf/epXZ0+cOLFcFMVY/lfPAEh5effFb6xWK/71r3/deO+9976c+P6sWbO8n3zyiUjTdCILRNbuONx85z+WcoGwYreaeLY7ZI2q6aBpqnnBPZdiVL/sLlHptTsON/z+hc94XyiabDHx3XZfdYMgEI7qGUlW/68uHS9fObU4iaa7MmEtnmDozn8sC3xZVmVzWEzSqZIeEVmDYRhtv7l8gv7LOWOdR5vG7e3t4fPPPz+8ZcuW5MT3nU5n6RNPPHG2xWLxqKr6E0BomoamadbZs2dvPXjwYN/Y+3a7PbR161ajd+/eXYJ7n23eX3fnP5ZJFOASOBbdAQ5CCEIRNfTXm2cELjtrUGK0Gp9sLK+/58XPWVBUmsgx6G5DgQKgaDpCESUyeWiB+8//N92Sn+G0dzVVdfmh11c3vL2qNMNmFsRTlY1rGAS+YFS5aGK/hv9304xUi0noAsCmpqboueeeq+/evbuL4z5t2rSXXnjhhV+azeYe449QtbW13XJgs9mMV1555Za77777H4nC7/HHHw/eddddXR7kzoMNvmsfXmToBnEK3bT5KACeYES++pyhzQ/dcG52oum3ouRA/W+f+5SlaTqNZ7sfHEeftz8sGw6L6Hvo+nPkmWP7ph1l+iiP/ntd08sfl6Q6zKJ4KlPWvYGIMn5QXt3f77gow9ERcIyv8vJyZfr06XpDQ0P8fVEU1XfffXd8VlbWtp6iRaj169d3F3PF3XjjjVtLS0uHxN7r1auXf9u2bazdbo9LnFZvKHDVn96KNrQFUiSRQ3f5cBFZRX6Gs+Hdv8yz2yQhLvnKq1s8P/vLu6qsaKndpdlOxJmWVR2Korlvv2Ji5NZLxmYc5dupT7y1vunFDzen2CyiSJ8ikFAU4A1ElTEDc+pevmtOhlUSuoBk2bJlreeff74VQNyUPuecc1685JJLbgmFQj3i3jGzZ8+Ol06eqRchBKWlpZPfeOONuxO1xwMPPBA+66yzErWH/v8WrnV/WVqVbDMLdHeBg4BAUbXQ/7tppt4/LyXulPtD0dAvn1wSbGoPpJtEDj05yYihabAsY1q745BQ3expn1ScD55jYv4BM2FwnqQZRsuXZVWCwHPsqdIjJp5lDtW7zfuqWhpmjukjsAwd94V69+4t7NmzJ1BeXh4XiJFIJGP48OGvchwnd4CM6tYX29TUdMYflslkwsqVK69MfM/lcsnz5s3rkpqxeW+te/G6PSa7RWS7CxwUgEBYIeeN7dM+bURRYtKk8eQ7G7x7DzenOG0mkB9BCh5NUXBaTcKH6/cme/yRur//7iJiMQkxX4+746pJaW3eUN07q8syXFaTiZwS4QLYLSK/bufh7IfeWNPy/248V8DXQUX2uuuuY99//30jptHcbneWJEmDrFbrpp7gh7CyLJ9hdU9BURTXvn37ZiS+f+GFF0bT0tJsiazlq59ujRKQbJqiuk066waBJPLemy8eKyEhWv3FriNt764us9stJp78yKodkqwSu6HsSM6tT31U+/xvL4bNHAcJ/9AN52Y1e4Jt63dVZdotAnWqrs1pNfFvrdyVMrgwzX3V9CEpsfeHDBnCpKam+lpaWpwAIMsy9dJLL41JSUnpGQAZNWrUmfY9cODAgb6HDx8uSLSB58yZg8QNuH1/nffLsiqrReS7NT86FFWMS6cMCg4oSI1rD0XVo8++96VCU1Tqj7EMmwBwWEzMl2XVOb9++qO6l+6aQ5sEzgwALEMLT906y/mzh95rPtzgTpeEU2c6SiInvPLJVv2CCf3DFhMvAUBmZqYwZMgQeuXKlfHPnX322akPPPAAfD5f9wMksYPFmQLIpk2bph5lXimTJk3qEtD6cP2+qKoZWZJIdZv5QgiBwLGBK6cPMSWYBfhww15f2aGmFJtZxI91EQLYLSKzobQq6w8LVrY9eessMXaNTpsk/b8bZ4R+/v8WtWiGkcqcok4vAseivtVnKTvUGBw/KC/md3AjRoxoW7lypSnGrlVXVxesWbMGPcFRZ2fMmHFGD2iz2bB8+fIRie+NHz9edrlcce3hC0WDX+2p4UwCS3Wn+RKWVYwflBcZ1jsjKfaerGjRf32+EzzHCvgvWA6rif1g3R5XZrKt5XdXTkyPbdKhvTNSbr98fOPDC9cGHRbxlBVkqbohbtpdExw/KC/+3uTJk62PPvpoXBdXVlbmfPLJJ5SiKN1uvLJ33HHHmdYg9tLS0uJEZ3fIkCEsOuqlAQClBxu1mmav3Sp17x4khISvmDoYSKj2W7PjkPdATavFIv1X4KNDaFlE/h8ffCXkpzvqL5kyKDv2/v+dPzJp+/76thVbDpptZuGUmLo0RbENbX4RgBq7r8nJyTwABZ1R93A4bGppaaE1Tet2J4TNyck5c1Qjw8Dn8zlqa2tzEwEyadKkCABbAnsVBGA/urvCmVyKqiM/wxWdPLQgMaKvLlqzW6coyoL/okVTFEw853r0319QQ3tl+AqzkmJUO3/31VPM2/fXt4YiSuqpyHvjWAZ1rb6orhs800n5JiUlhRwOB7xebwwgYmtrK6P3AC+d/dWvfnXGDsbzPKqqqtLffffduETmOI7069cvMS9H3VfVzDEM3W3OOQUgqmgYNzA3ahb5eNyjtLLRt7WizmoSOfy3LYFn4AlE7Pe/sqLujfsvFwSOFQEgN81hv3XO2IY/vbY66LAwP1gw0DQFXzCKqKrB3BmGkSSJSJIEr9fbQYyEQqbm5ma6JyQtsi+88MIZ1SBer3dAYkpzenq612q1SgDMANDqDYUPN7gZnmW67aYYABiaCp0zqpeAhLSMtTsOKaGo4nBYTP91ACEEsEoCvXlvbdorH29t/dWl4+Km1vyZw5M/33Kgddv+eotZ5H+w8NF1gzYMQiUISYrjvhY6JpNJdrlcRo+geV955ZUzekCO4/om/lxUVMS6XK44TeIJRFhPIEKx3QgQVdORl+6IDu+TFUeCYRD5i11HKJHnWPwXL5skCK9+uk06Z1Sv9r65KTFygv/VpeP5/3vkfT8hxPZD8rUoioKi6V0AIggCLQhf+3TJycnuQYMGqYqidD9AlixZcsYOZrVa8fTTTwsff/xx/L2cnBwbEijUpvZAVNV0G9eNAJEVDUN6Z0QlkXMkmFf+yrp2y+kqzOopi2Vp+EOy48m3NzS/cvclcUd63KBc5/SRhS3Ltxy0/RCCghCAoWlCJVjQR7dyTU5O9vbv359Eo93fwZSdNm3aGTuYJElYvHhx4t0lTqczACC+EY80ecK6QRzdeVMMQuRR/XLEROBurag1QlHF9N9oXh3L1Fq387Dts80H3OeN7ROreWFvvGiM+MXOqh+kRQxCYDbxOs8ycUSEQiEjsftiUlKSr3///j0jDlJaWnrm1LfNhtbW1sRkROJyucKJAHH7wifUPPm0gcMgsJp4Y1BhWiJHoG0tr9c4lvmvNq+6mMIMbX7lkxLftBFFUZ5jRAAYXJRuO2tYQevnWw58by1CCIEkcoRjvg4+hsNhJPY/KygoaJkxY0bcae9WgBw+fPiMHcxiscDn8yXSpsRisXTxxPzhKN+dN0TTDeSk2UO9s5PitLM3GI0crGuXupM4ONNLFDiUVTY6Pv5yn+eyswdnxPbLvHOHsiu3VQbwPVua6oYBu1nkmITwvCzLjCzLcYG0Z8+e1tdeew2RSPf3vmZ/6PyIk3J+VRWEkC7aweVydW3IoOh0d94QVdNRkOGUE32g/TWt0RZPUBS4/x2AAADHMtLbq0q9sycPlFmGFgBg7MBc27A+mW07DzRYTQL3PQBCSLrLwiKhFNfv90sxMLAsi1AoVNcTuu0AANvZ2/WMLLPZDJZlExFJ2e32RLOFKJouUaC6DSSqrhv98lIkJETPa5o9nKxqksiz/1MAMQkc9hxutq/bedg3fWSv1BjpdP64fsyWfbWKJHInn8lMiO6ySTISCrba29tldNL8DMNg7ty5B51OJ86k8P5WgJhMZ87plCQJLMt2Mal0Xe9yi2mK4tCNpUcswyj56c5ogh9k7D3SEqQp6juJg6/7a8U2A9DTM+EpADohUFQ93qAu7q1TFIJhWXp3dZl7+sheeoy0mDKsQEyxmyMRWeUZ5uRkGU3TJDPZ1qWedt++fe0AJHTMNInOmDGjJj09HT2h7JZN5J9P9+qcH9gFILIsJ4ZLKYam/ARw4vQ1oz6uAylwLJWX7uyiKg43eFj2GBuBkI6Iu9YB8hgWYuQ9F7sGgWOpnkYPE9JRRqxqetRuEeS+ucmG3SzSaS5LyCIKGsfR0A0Cjz/CKqrGeAIR1Wk1MQCQnWK3DipMa/myrNounSRAOIYmhZmuLmbL4cOHxQSTu+5f//qXOzb2rtsB4nK5ziiLJYpiYvSHqKraVYPQ3VdgYRACSWSRmWyzfe0TadF2X8jCdJ6XYRCEZZUQg2hmEx8e2ivdyElzGP3zUiO56XaLwyIKNE3TgbASbmr3B3ccaGDLDjUalXXtFoahJYnnur3/fziqGAxNByYNyVcuntSfDC7MkLJSbBzL0BIA+4koglH9c/i1Ow6DwonXixgGgWTig9mp9kSpbNTW1jpiunfMmDG7LrjgglBPqAUBADYrK+uMHczhcMBisXiOctx7jBWiGwROq+S1SkJ8k7T5wlFvIMLoHa1sNJtZCJ41rFA9d3RvMrp/jjkr2cYwDHWswhABgPWKqcVQVD2yaU916LlFmzyllY2pNrPId0ehFSGAPxSNjBmY47n76inCkF4ZLny/DvlUTqrdFW8JfzIESKZTd9m+ruYNBALByspKFUASAHg8nurdu3cjHA73DICcd955Z+xgNE2jvb3dn/iex+PpslXsFpPcXTfDMAiskqAncvTNniBd0+KLFmY6jTmTByqXTBkk5qY5nDiJ4UM8x5jOGlZoGjswN/LEW+vdCz/b7rJJAo8ziBJCCPxhOfiL80e23jv/rCyGpn4QnR5VNI0YhDuZjGtVN0heupMIHBs3sRoaGoRDhw6xsf1RVFS0a8+ePT2mLxZbXFx8RgESCoUO19TUxOxLuqGhoQufnp5k1dFNvq1hGLBJApXoeLIMRd01b7L2i1kjbFZJcOD4QUzS6YMY6KAxu0hnkWdNf7h2Ks+zTOs/Py5x2S3iGYn5UAB8YTlyzcxhrQ/8/OxsHDXNSjeI0u4LG1VN7kBts0/xhaK0rGgMy9CGzSxqNkmgBhSk2fPSHfFsXorqaEZPTg6kpDDTpSb6l3V1dRFVVWMmLZkwYcL23Nxc9IQ8LABgf/vb356xg3Wmu+99//33YwCh3G53F4DkpNgkupsKvXWDwGYWhMQHWFyUYets738sk0VrcgfkfUeag7sqG0hdi18KRRSi6oZhMfFKfoYzOnVEETusd6Y9QeMwd8ydZN9X3dy6eW9tlkXkT7s0CMsqhvbK8Nw7/+yMRHDohqF9tvlA+9srS+nt++sEf1i2aZrBUBQg8izFc6xBUxTxh6P0zbPH+v/0i2lxJks3DKOT6DrhkmiGpuTR/bO70KZffPFFHAlFRUX7S0tLa7du3dpjyIwzGiikaRqGYTQyDCMbhiF0ShAvOhqHdRTxJ9tEnmNCBLCdaZgYBoHdIpqPMp++cRpufyS8alulf/mWA2zZoUbWG4w6AHCKqtOaboCAoGP7wPL84q+UOZMHND543TnJNnNH4zSWoU2/u3KSaf5D7wZ0QqynWyAYhISuv3AUzbNM3FcKRZXwPS9+Hn53TZk5M9lmnDOqd2RIUbpsMQtiQ2sg9PmWA1yTO5DEMTQ03YDTauIS7gUJRpQIRVEnjG5dN5Bkl8L5XRlCdc+ePeaYQBo2bNjOJ598MtgTUkziAHn++efP6AFFUWzPz88/fPDgwf4AUFlZSdrb20lSUkdmtdNq0pxWk+oNRsEyZ5jppYDO8PAxpybVNnsDby7fEfzsqwOmxna/k2MZQeBZ2CQBsqqTwgynd9qoXqGcVAcTjqra/upWbsfBBu6NZdtdUVltfvGuOZmdpheG9MqwTRic37J6+yHr6Wx0Las6+mQnh88aVpioqbU/v7o68O7qsqT5M4d7H/j52YLTakpN+L11xpjeLfMefMenE2KnKMhJdimKr9NLSFN7IEjTlJ2cxHkUZybp6UnW+Hm43W5t69atCjqDhKmpqVuXLFmCnpDFGwfIAw88cEYPaLfbQzfddNPBGECampocgUCAigEk2WHm0l1Wvc0XPuMAoQDCsrQMoIsZEAjL4ZeWbPG9vapU8AajaRYTzzisUpynVzQDyQ7J/fr9l3OZybYutGBEVkOvL9se+euba8Xzviz3XDSxfzw7dta4vtSqbZWRo493KpeqamRYn0zFJHDxXlQ7DzT4Pt1UbkmyS/KV0wbrCePc4mvv4WZKVnTBJHBgWYakOsxdTI361gBhTpCSpzpMMjKwIFVFQopJbW2tXldXF6fUZ86cuWHAgAE9CyC7d+8+owc0m83QNK0mLso0DYcOHWrPz89PAQCaoqTMZFugtLJbhovqIAgmbtiK6lb/b577JLK/ps1lMwuC0yrGR6Ql+uYMTRGrJHyD2TIJnPmWOWOZ1dsqA/9avpNcNLF/3I4f1idTclpNmqxqOFWtdY7emARA//zULl++budhRdV0h8Cx9DPvbYw895uLgsl2KTaZiqzeVtny6FtfEIFjRAICkWOp7BR7FzXX5guaTtQ0JB3PNTyxOL9LVHr16tWRTvMa/fr1OxCNRg9s3769Rw3RYc/0lFuO4zBq1KiNn376aawYnpSUlCCxLqVvbrK69KuKzhGsZ24RAjYUVRydz5QCgJJ9tfKew81p6S5rfJ7hN66JZVDT7HM8t3hTw/3XnJ11NHtV0+wNN7uDXERRufpWvz8rxeYEgHSXVcxMtrUfrG2zMvypBwjpcIyRnWLrYl5VNXlsFEUxosBix/76pIvvebP9gvH9IikOs7j3SHN0eclBnqEpB88yUHUDNrMQ7hzY2eH0R9VImy9sOtE0E1UzkJlsDffPT00EiFJSUhIfo22z2bYdOnTI35O0BwCwkydPPtM+CHbv3p04lIStrq62dVKjNAAMyE+1UYBKjjGX8HTbWBFZ1TrPgwEAh9UkmATu6xylb1lWk8C+sWy7PRJVG267fLwz1WlhdMNAyb660ENvrFbb/eEMQhCqavIgK8XWSSHTdJ+cZG7vkWYIpykRkqYpSuS5xPuoBcJKlKEpMyGAJPJUICwnv/JJiWEYROc5xmIWBYrqpHB1g8BhNUXNIh/Xqk3uQMQbjLIMTZ9QpquiaRiQn6Ym2aR4cw6v14u1a9fGL3ru3LmfFBcXo8cB5J///OcZPyjHcfV5eXk11dXVuQBQWlrq0XXdzjCMCQAykm262cSHDEL4M0n50hSFiKxGO6Ua02EisdwJmdoUYJEE+7tryiyrtlX6+uQkk0BYJhU1rRJNUZIk8vAGI+aDte3RCYPzYhqK65ubTAghKo6KTZxCrQi9a3sQimPpLs3AWYaGw2KicYz8N1XTkZfmYHiOid+Fdl+YDYZl5kTS3SkAmmaoE4fk04nkx+bNm30tLS12AHA6nUGLxbIjEAj0iAzeLgC57bbbzvhBLRZLW2lp6YEYQPbv3+/0er1szFHPTXNwmck2varJizNZg0FRFMKypnZqs04fgtcpio4iYYbF8TaDVRKYiKK5tlbUgaYpxDYRIQQsTWPP4cYwgHgCXH66U+NYxiA49WWUFABNN0ggLCeeP++ySWG9w9D/zkMaBkGGyyomUt+NbX5KUXXzicxr0Tuo89DIvlmJWsxYv369EBMKSUlJZbIsHzh48CB62mLfeeedM35QnuchCMJeANMBwOfz0YcOHfImdSJE5FlzTqq96VB9ux1nECA0RSGqqF0i+QLP6J3N5U+4ES+TAIyu79Ooa/WbAWixzZGf4bKIPEsIIaBOsbaMXcSRRk8QX5c1U3npjhDVQdmy3/0dRLNbRBkJjf2aPcEQRVH2E4mByKqGEX2zwr1zkuMsmq7rxueff67FADpr1qylVqsVia1/egxAhg4desYPKooiOI5b/dlnn93eIaUMatOmTczo0aPjwm9I70xj1bZDBgXQZ8pRpyggHFWJYZB4VjFDU4SmKRKLGv+QxTAUWr1BxhOIhJ1Wk72D1pZ4m1kIeAJRkWao03JNB+vaugBhQF6qiT5BNFIURSSR07syWGGNOsE0E1nVlanDi6hEE3LXrl2BzgAhOI7Tpk2btmL48OE9zv8AAPZf//rXGT8oRVFQVfWwxWKRg8GgAIA9ePAg3SlZ2U5HXaIoREhnEOlMnZduxFrQUPENQp0i44dhaHj8UaPFEyROa4fPKwkcSbab9Vbv6Yn7sAxNVTd5BcMgYZqmJAAozHQJVjPv1zTi/K7yAoaiSJJd6gIQbzDCnIhvaBgEdrMQnlCcl2hekeXLl1OqqvIAMGDAgNIBAwZs83g86ImLvfvuu7vlwJIkVVRXV5fv2LFjKABs3LhR1jRNZFk2ZpsbLpukR2UVzBkMGDI01cXUIQahjq6j/0EkgKJKvpCsJ1DEdIrDzO053Hx6CBGWRU2z12h2B/SM5A4rKTvVzvXPTYts3V8H6Tscbaqjb29XVkrV6RORGVFVw7DeGZG+uSmJrWX1Dz/8EAnm1RJd13tMcuI3ALJly5ZuOTDP8zrP84cADAWAmpoah8fj0VJSOkzVvDSHNSPJ6jtQ23bGAEIIAU1RXVzXeKngKYAIRQGqagjtvnAg8Rkk2c2ibpDTBni3P2LZfqDBfUFyPB4ijBmYo3y1t8aghOObsAQEUbUrs8QxtHEi9pWq6sqM0X1Ionm1Y8eO4O7duwUAEARBKy4uXhkOh9GTZqN3AUhaWlq3HNhkMmHmzJkrN2/efCkAeDweffPmzcELL7zQ1EnBsIMK0+S9R5pxJpsl0BR1eollCqTZHUhsm8Mk2U1BgAg4iRqTkwQ+/2VpFS4Y3y8eazprWKH00pItAYPAfrwLJqSD6j3KVPzOWLduGEiySaHpI3slmsjk888/N2RZNgFAcXHxzrFjx25RFAVnsnnIj0KDMAyD1tbWPTzPx9SruHfvXv3CCy+MOQD0iL5Z4tsrS0+IYj1l+5dGVxOLkFM24oqQztqMULSLSBY4lpzO4imRZ6lt++vYQFiOWDtHWA8qTJMGF6Z5dlU22o8XzyCEUKGI2kWFm0288V33JBxVyZSxhaHsVHt6AnulvPvuu3Eh0KtXr3eWL1/eI/pffStAJk2a1G0H53l+57p16yoPHTrUCwBWr14dvOeee+KStG9uCmxmQU9klU6vidWRNtLVxAA5lTEKCkAoonb5Op5jjdN5dRzLoK7Fb92yr8Y3fWTvmEQXzh/fXy+pqItKIid+2343CKH8YbmLZkt3WViDkOPWglAUFZ05tg+bqBW//PLLSFlZmQgANpstdO65534kCAIslp47boVdt25dtx2c47hwcnLy7hhAKioqHMFgULNYLCwA9M5OsqW5rIG6Fp+Zp09/PMQgBJaj0t3DUZUxCDl1KS8UBUXTqKOYpsSuKKdl6cQQP95Y0T59ZO84UzhtZJH1Hx98FQ5FFfHbGDQKFOv2hQQA8STLdJfVcTwFoqg6ctMc3ilDC7q0mf3Xv/4VjydNmTLl8969ex+KRqM9KjnxGwA5++yzu+3gZrMZhJCVW7ZsmQMAdXV1eklJSXTq1KlijOEZWJCqHqpvx5lom2MYBiwS32VgZyAswzDIKe2NdDRFapyBDSIJHL7aXS3UtfqC2Sl2BwBkJFmt54zu1fDWil2G3SIe07GgaQqtvrCMjiYUDAAkO8w6x9IhQo5NwUdkVT9/XD9iFvm4Y9Hc3Bxavnx53JabNm3aotTU1B7RoPq4ANmwYUO3HZymaciyXGqxWIxgMEgDkMrLy/WpU6fGrBp2eJ8s5sP1+2IP6PSaWIBhN4sk0SwIhKIyIcR6MqWl32XHdWqMr6W7bpz2ht0MTcPtj9iXbapoufHiMY6Ygrhq2hDTkvX7vLpOXMcyY1mGRrM7oGq6QWJaxmYWFZPAMUaM9esiZAjsFtF38aT+XWpcPvvsM62urs4KANnZ2dXRaHTZ4sWLe7T2AAB27Nix3XZwiqJACNnxzjvv1AaDwbzOGxm99dZbY7UJGNE3k7KZhahhEOF0+yEUoCXbzQEAcaO4sT0Y6TjPU+N/dM4oP8ok0c7INF9RYLkP1+/jfzZjeFgSOQkABuSn2icPyW9dXnIQxxqaytAU2n0RTlZ1KgYQp9VEmU0C5Q9FcXT0PxxVcN64vuHCTFdGwtvyggULENNAF1100bvnn39+wO/3o6cv9siRI916AiaTKTpu3Lj1S5YsmQ8Ae/bsMft8vrDdbrcAQGFWkjU72eY50uSxC/TppXsZhkaKQ+oyGK++3U+fMmBSHaxQkr3LTiSBsGIDhdNuQwociwN1bdblJQc8cyYPjJk/zDXnDedX7zgUIoSYjya5aZpCOKpY/KGoZhY5AQCSbJLJYuJobyDyja5aNE2FLjtrcJfZKhs3boxs3LhRBABRFKMFBQULt2/f3uMyd3ucBgE6RiI0NDR8EQNIdXU1vX37dkydOrWD4WEZbkS/LFJR00oEjj1tKoQQgKVpOivZlkgpG/5AxHSqUk06pyvpmcm2RNpGa/OFdOoMzUThGEZ8e2WpPnvSAJmiKAEARvfPsU0ZUtC2Zvsh89FzPyiKQkTRGG8wGs5Ispo7WDdGsEpC0CBdfbOorGJgQZpv3KBcZ6IF+eqrryLmnM+YMWPZRRddtO/HoD0AgN27d2+3ngBN08jKylpns9mCfr/fAkDcuHFjy9SpU2MSjh7WJwtvryrrUs98OjwQlqWZJLs5Xn2nG0T2BCKnzLQzCIFJ4PwpDjPQ2cXFMIjW0OoPswxtOxP3WxI57KpscKzcVuk+d1Tv+NyPX5w/kv9i15EgIcSSqEUodHS89wTCXXJBHBYxZBikyzkrmh65atoQsAwdtyFra2vDS5Ysiav+Cy+88HWO43psYPAbANmzZ0+3ngBFUWAY5khWVla53+8fBQCrVq2y/uEPf4jTiiP7ZZutEh/WdcKfLj/EIARmkfebTXxcKoYisuIPywZNU6ckYVLXDaS7rGysohAAAhEZDe0B9kzOZKQp2vL6p9u800f2kulOLTJmQI596vCi+hVbD0o2SfiaRaAoaJoBj79rMM9sEnSSwEzLqobeOcmeWeP7dqF2//3vf8sej8cFAEVFRTsJISuWL1/e453zOEDmzJnT7Sdhs9kMr9e7ury8fBQA7N27V6murlbz8vJsAJCdYhP656W2b9tf75CE01MzQAjAMrTCdg6373joOlE0nZyqqkZF09E7JzlolYR4dLm22RfxBMK209G04XhaZPv+eseKLQfcM8f2jWkR5qbZY6QNZUd8OiHO2DV3EAsEiqZTXUHWNd89ImuRq6YVG2aRjwsTn88XWbBgQbwR37x58xZkZ2crPTly/g2AVFRUdP9JsCwKCwvXsSx7j6ZpaG9vt5aVlQXy8vLi/uWYgTnUV3trNAinZwxzZ2sa2jC+DmqzDA2WOTVt+OOlp8VdS093VTbI4ahqsZnFM3rPGYa2LPh0m3fayF5RrrOhXHFRuvOiiQMb3161y+44Ki5ytPNOurBwOvLSHd6LJw1I9D3wn//8Rz58+LANAPLz84/cfPPNb7tcrh+Fcx7fA2eyefXxAOLz+TY///zzjc3NzRkA6Pfff59ceOGF8c9MHlIgvPThFpkAp8VTpygKimpwiZLSLHKcJPDGqQjk6R2NscPD+2R26Sz41Z4aQtP0GZ/LKAkcdh1scC5Zv9d9+dTizBhubrxolGVFyQFfVNGcidF1clSgP6Y/KAoIy4pyxdlj4bCY4tpDluXoCy+8wMTM5KuvvnoBwzCe2tpa/JgW29TU1CNOxGaz+aZMmbL6vffe+xkAbNmyhQoEAiGrtYM56ZOTLBRkuEJHmtzm06FEOurRFanJHQxkJHUwWTzHmpIdku9AbdsPbqkQVTSM6JcV7pf3dW2ENxCRyw41Cd0x2o0AEHjWvODTbaHzxvULW0wdUe/cNIdj7vQhTc+/v0l3Wk2MYXTMNbeKQhf6W9V0iqIAWdGRn+5su2r6kC4O+7vvvhvZu3evFQBSU1Nbpk+f/kZdXd1xtQfdaWb2lM7uAMD2lEElsixj2LBhn8cAUlFRIe3duzcao6FNAmce2T/Lt7+21RA4lj71AAE0zTCqGjyhYb0zY6YC3Ss7KbShtMp5Mm3+j7VUTZcvnNCPRgLUSsrrQs3uoN1s6p7BviLHorKu3fGfFTvbbrp4TJxW+vl5w60fbdjX0u4PZ7AMDY5l6LQkS6KIoHzBKN8pVCLzZ04ynFZTnLpWVTX6/PPPU+jMSLjgggveYFm2obW19VvMPQYsy6K9vR1msxkpKSmgKKpnAKSnOEyqqiI3N3eNw+Hwer1eBwDmo48+UhLjNGcNK2TfWrkrGqNIT/XSDIOtqGk1IaFx3NgBueLrS7eHyQ84pqrpyEi2+qeP6JUYQtc/3lhuABC7ayuQDoedf/PznezFkwZ4011WBwC4bJJ5/sxhnr++uS5qkXjRYuLDmck2c4I2jLR4Q2ZNN9A7O9lzxdTBXXyPt956K7Jt2zZrp2XgHzNmzCu1tbXH1Awmkwl+vx+ff/450tPT0atXL+Tk5KBrp6LuW3QkEkFPeAUCAdjt9sZhw4atj53bhg0bWMMw4pX8xUXppsxkW/DoAp5TtQSWoXccaFB0g8SH+AzvmyXkpNojyg84ZjiqaueP6xtNdnwdYznc4PZv3lPNm4TunZzLswya2gOuN5ZtDyQqySumFjt75yR5AiEZ+RkuxWWT4jx0bYs33OYNaaqmy784fwQSmatwOBx94oknmJj2mDVr1qupqamVhmGAoqj4C+josllRUYFHHnkE7733XkdrJJYFIaTHvNieVCwfCoUwZMiQZWvXrr0IADZv3iwePHhQ7du3Lzolm3XswFz/++v2EI499S1AeJ7FwdpWy4Ga1nD//FQRABwW0Tp1RFHd60u364KVYU7WX++cORK6ZMpgSyJ79emmiqgnGE2xn2H26lhaxGLi2cVr94hXTC32Fma6nABglQTzz88b4f/10x8HxwzIJlRCsujhBjfb6A5II/tmtV0yeVAX7bFw4cJozPdISUlpvfjii5/jOK5LzQfDMJAkCbW1tVi4cCFi/bBomkZPW2xPCvkzDAOr1braarVGAoGASdd17v3334/cd9998c/MGNOH+2Dd3hASEgpPmTqlKHhDUdOKrQcD/fO/ngZw9bnDLB+u3+tRNSP5ZDuPhKMKZozpE+ybmxyvbfaHoqFPviyHiefYnnHfaXgCEedrn25tePjGGY4YkC8Y38++4NOtdZOGFHSpy/6ytCpsGIS99ZJxDM8xcbPR7/dHn3766Thzdfnll79UVFRUFQwGuzCWra2tkOUOJd3TKV+6J6kzTdOQnJxcWVBQ8GXs/JYtWwbDMOJpDiP6ZJpy0x1h5TSZWZLAs59sLOe8wWj8qRZkOB3XzByuB8LySbfeYGgqcNlZg7pU1n22+YD3cIPb0ZNGQ1skgf10035bRXWrN/aeVRKkp24939Y3J1n6GtxycOXWSv78cX19547unTgimSxYsCB88OBBMwBkZ2fXXnnllf9gWRYWiwUWiwUulwsMw+C9997Dtm3bYDKZeowz/q0axG6396gTEgQB06dPX1RWVnYOAJSUlEh79uyJFBcX8wBgM4uWcYNy/e+sKiUCy5zy7u88x+BIg8exeO3utusvHBXXUjdeNNr6ZWlVY2llY67VLJxQenpU0dA3NyU8fnBe/CYbhEQ/+GIvlSh5e8RGoCl4Q1HL2yt3NT54/TlxLTK0d0Z64uc2lB6JtPpC6u+ummhKBH1dXV3wySef5NEZNf/FL37xfFFRUbPP54PFYomzVIqioKGhAYWFhfgxLNpsNqMnvXieR58+fVampaW5O9ktdsmSJUhwIKkZo3vzNEWFT1c2jyRy3OvLtjP1rf54ex6TwEmP3XKeK9lhdoej6gn1WJBVTZ8xuo+eOPpsW0VdqOxQo00UelabzZgv8smmCvFgbZv3Wz6mvPTRFnXe9CHUgPw0R6Kr9f/+3//TGxsbLQCQkZFRfuWVV77IMAzsdjsikQgeffRRPProo7BarYj1PvsxrHjD6J60srKyqgYNGrS2ubn5UgD0Rx99ZDzwwAMaTXfkSY3qn23unZ0UONLoMZ+OsQE8x6DZHXD97d0N9U/96vy4pCzMdFlfvGN2242Pf+D2hqIui4nHcZodwCYJwRljeifSw+TTjRWyqhlJktBNo3yPq0Vo+MNyyrOLNzX8/bcXWXBUePSjDfuCrd5Q5DdXTMxAQif4zZs3hzpzrgAAF1988SNlZWXBGCu1adMmLFmyBEOHDu2RjviPysQCAEmScOGFF76zevXqSwGgtLRUKikpCY0dO9YBAALHSrPG9XM/+c56ReDZUx5lIwSwmUX2ow3lacP7ZHmuPndovPHykN4Zyf/+45WB25/9pL68ujXFbhZ5hqa+sdmjsoaxA3OUoqykeITZ7Q+H1u86wpsEFj0xl5V0+B1YvuWAbfHa3W2XnT04sSoQm/fV+n9zxQRLkr1Lrrryxz/+UdM0zQYAU6ZMWfnzn//8336/H9FoFG1tbVAU5UfhbxwTIFartefZfTSNSZMmrcnPz6+tqqrK0XVdeOuttyJjx46NNz6bObaP+dVPt4Y1w+BPVyas2cSJj/xrnT8z2dpw9vCiWL4SeuckW//zp6uY5xdv8ryzutQkK7rVbOLjJakdYwd0Y9KQAhUJ9OiXu6sD9W1+57FKW3vSMgms5dF/fxEaXJTh7ZubHDelHrxueiZDU12Yhbfffju8cuVKKwBwHBe9884773c6nUTTNBBCwDBMXGvQNA2O40BRFDiOg9lsBsMwls57ZIiiGOB5XutJQOpRLFbspes6LBaLe/z48UtjJ7po0SKura0tHPu5MNNlGzcoNxiOqqdNGHcCL/W3zy1lVm492CVpzWk1SX/8xbTURQ/9TL/0rEFNksi1+0LRiCcQIb6QDJ5j/WcNK0yUtPq6HYe6xBN66uJYBoGwnPbHV1cGZFWL33OeZXiG/rr/UmNjY+j++++Pp8+MHTv2nYqKiq2HDh2C2WyGxWKB2WymBEEwsSybEgqFcmpra8cQQm767LPPnnzxxRc/bWlpKQdwBEDVp59+um7//v2X8zwPlmXBMEy3v6jumDB1Qg+J49DS0jLhj3/84wZZlikA2uuvvx689tpr4xJt5daDLbc89ZHFKgmnrTyNpii0+8PG4MK0gx/+dX4+w9DH2uCk3RcObtlXqx2obdMr69sjdrOIB6+bnsp2fr7ZHQzM+N2rsi8kJ4s8C5Fne7TJQVEU3P6wevnZg1ofv2VWOr45fUq78cYb/a+88kqc6nW5XK0ZGRm1qamp7aIoyrquM+Fw2NTe3p7U2NiY5vP5nDRNs7quH/fC77nnnvsuvfTSR3pCSyCqurq6xz4gnudx+eWXr9uwYcMUAJg4caJvw4YNUkxiKaoeueT+f/sON7jTT0dGbOe8ECPVaal97d7L7EVZLscJmvJGp6UV31Tl1a3t76wq9fMsze2rauH3VrXwoYhitpgErifiJBxVCU1T/sGFacG/3XaBJSvZ1sVZXbZsme/8888XcfIaUUtOTg6mpaVxhBBy5MgRKhKJdKnY5Hle/dOf/jQuLy9ve3c3tWZ37tzZY6WYJEmYOHHiwhhAvvrqK37btm2RkSNHcp1sk2nu9CGePy5YGRV59pTmbFCdjrbdYmp64Y6LbUeDo7a2NpiamsoLgsAf40+/EQHsn5eS9OB102PSVj/c4A7986OSlg/X77WJPGtlmJ7D7vjDcnRM/2zvXfOmsEN7Z2QcQ3tgwIABwi233KJs2rRJOXz4sO73+234OpWGCIIQdrlc0ezsbD4pKclSUFDQNnnyZDY/P9+WlZVlpKWlEUIIqampwcMPPxx+8803+RhbqCgKF4lEZk6fPn17d2d6UHfddVePVvMURdneeOONsubm5jwAuPnmm70vvviiPfYwQhElNPu+f/kb2gIZp3KeoaLpYGk68Mrdl2BU/+wuTEZJSYnvggsu0AcNGkT98pe/ZM455xzW4XCIx9pI36VtFq/b0/zHBSsojmXTGLp7VQkFwB+KKhdPHtj82C9nZjD0d/dZUhQl3NDQYHi9XikBIDCZTFG73a4kJyezLMt+V02/ftFFF3k/+eSTeMxh/vz5L8yZM+fW7jaz2OnTp/doh9Fqtfo9Hs+if/7zn3cCwFtvvSXccccd4V69Otrqm028ee60Id6H31wbFTlGPBUeu64b0DTd/8Rt50VH9c9OTfxdeXm5+7LLLkNra6tr7dq1WLt2rZqamqqed9557rFjx9oLCgq8ycnJRlFRkb0TNMfdk5edNSjdH4o2/PXNdRGbWejW6HpYVjGoKL31wf+bnnw0OAiBpmgaETiWTQQCz/NSfn7+McmwztcJ8SHXX3+99Mknn8RZSpvNFs7KykJiHle3AKS9vb1HA8Tn82HQoEFviqJ4ezQa5fx+v+mFF17w/u1vf4vfzEvPGmR/8/MdnjZ/OIP/gd1BDEIQjCq+P//fdP95Y/tmJ/6urq7Oe+mll5La2trE6CrX0tLCLVy4UFq4cKEBwFZcXBxctWpVV8NbN+SPN+wLGIAxc3Qfm0Xi4+D5v/NHJq/fdaRp896aXEnsnuIpQgCDkPCtl4xjzKavZ6LrhqGtKDnoWbqpguw+3ERfNX2IOn/GcHusAvFkV1TRZACMyHcNp3Nc18TNnJycw4MGDUJ3F/Sx27Zt6+msI0wm0+5+/fq9v2vXrqsAYOHChfxvfvObcG5urgUA7BbRctX0Ib7H3/oiKlhN4g8pIfcHo97bLh/vmz9jWE6ipPT5fOoVV1zBlJeXH89Rpx0Oh/H6669LKSkpYgLo5PteWl7/zurSDJqm6X8V7Wh+8c7ZyZkpttgm46+ZOdy0eV9tGKepGOy7lqrpKMhwBiYW5yc648ZDr69pfHXpNpvIs3aBZ/Hk2xvU99ftdU8bURQcPyiPFGW7HFaToJkEljAMQ4EQ6IRAVnQSUVQ6KitMQ1vAX1nfrm2rqOeS7ZL31kvGpYo8m1iiqy9btswLIKXTaojk5uZ+sW7dum4vv2UTGyP01MXzPAYNGvT3n/3sZ1fpug6322365z//6Xn44YfjlX9XnzvU+eH6vZ66Vl/G96lZpyjA44+oV587LPybKybmJPoTqqpq8+bN07/66qvjRlU5jgu+/vrroeHDhyemh5Mn317f8t7asowku2SiKQplh5sy739lRd3r912Wic5meCP7ZYt5afZofVtA4tkzn+UrqxqG9MqgEiX7zgMNnrdWlZpdNske8494luGa2gNpCz7darzx2Q5F4Ggl2W6O2i0iETiWJoRA0w0SjCiGPxTlghHFFAjJdlXXw5eeNdh38+wx+U6rqcsD2rBhg/rqq6/GgVlcXLzW6XTu6wmp8GxxcXGPBwhN0xg8ePDG6dOnf7p8+fILAFCvvPKKcNNNN4VycnIsQEdq9q2XjAvc8fzSgMCx1pMFhy8Y1c8aXtTyp/+blnyUs63ceOONvmXLlrmO9x1OpzP8wgsvhGfPnt3FZ3l/3Z6WVz7e6nJYTSaqc+C6w2Jit+ytSSqtbAwO6ZXhAgCbWbD0z0tzVzV60R0AMQjRCzJdLBLHNR9shKrpDqvUNeeM5xjwHEMDEAmB2OoNW5vdQSTOymZoCrKiQzOM8LA+mW2/vXIiP3loQS6OarG6f//+4Ny5c6lIJBLXuCNHjvxHeXl5jxjsyfbU6aLHonxvv/32J1esWHE+IYRqaWmRnnjiCe9zzz0X90UumtjftbzkQPPyLQcsdot4QinpFAUEI4reNzel7vFbznOyXQOB6n333df2xhtvpByDujVomlYHDx4sn3/++cYNN9wg5OfnpyRugK/21DQ9+NoqYhI4c2LzOYoCVN0QK+vaPTGAAKDsFiFCTu1Aq5NZmtUkJNozRn2bL8wwdNLxEscoCujooUHDMAiiigZN1w2WYcKDi9L8P5sxjD1/fL8UnmW+kb68c+dOdc6cOXp9fX1ce0yZMuWjcePGLQuHwz1i3/XIbN5vo3zPO++8L+bMmbP4gw8+uBwA9fLLL4vz588PjRo1KqYxuHt/dpZl54GGFl9QThN45jtpzaiiIdkm+Z/9zYWOZLvUpXXNCy+8EH7kkUdSOqWqTlEUGTZsWGDw4MHS2LFjPRMmTLD37t2bE0XxG2zNkUa39+4XP6M1g6SaeKbLHiOEgKGpSEGmS+oqxdGTUl0pmqKMcFQJE4OIFE3RNEWBpigQEBgGgUGIAQLCMLRB05Ruk4TI4KJ0ZUB+Kn3e2D7swIK0ZI5ljsU6GO+++673lltusbnd7jg4UlNTW55//vk7CwoK4hWH3Q6QkpIS/FiWKIoYPnz4X5cuXXqhLMuioiime+65x7t69Wo1Zhpkp9odf7luevsvn/o4wLK09dtiCxQ6Yh00Be8Tv5pl9MpK6lJb/fHHH4d/9atfWTiO02bNmuWfNWuWOnXqVHNubq7I8zwPIP3bznPvkebW2575mG7xhlLNItfFPKEAeIJR5ZqZw3zD+2Rmdtk1Rncpj46UGp6jE1uJULddPiFrSK+M1h0HGmR/MEpHVJVEoprC0DRlkXhBEjnaKglqQYYrVJTtknJSHaZkuyTF+v0ea7nd7tAdd9xB3njjDQuOmuo7derU2wcMGFAZq1nvEQDZt2/fjwYghBD07dt318UXX/zye++9dzsArFmzxvrMM894f/Ob38RV4fRRvZ13zp1U++i/1xG7WbAdXYPQ0bHcgKzq7sd+OTM0flBeFzp327Zt7fPmzWNHjx4dfeWVV8TBgwdL+O4RzcQXikbeWrEr+PJHJbyiao5vgIMCPIGIPGVoQf1915ydcbTZRgihuue+AhxLkxSHpUuvHYuJZ88f3y/j/PH9AEBDx5zCmK/AJPgrzu86hKIo2nvvvRd94IEH6OrqaukoPw/XXXfdvRdddNE7wWAQDMP0mObW3Tqj8HudMMuiV69ej3311VeX1tbWZgNg7r33Xuu4cePCY8bEm5/RN108OlvT9dqn3/2S4jnWahK4+BzmcFSDpuueh64/Jzhn8sAudG5dXV14zpw5/JAhQ7RVq1bxJpPpeKJM9QQi6u5DTaE12w8Zq7YfYhvb/DazxIui0BUchBC4/RFlyrDChud/e1GGwLHfMMs6NEg3AAQEHMvQGUnW4+VVsTj5Oe56c3Oz8t5770Veeuklbt++fdIxfDncd999f3j44YcflWUZwWAQ3Z1/1eWiHQ4HfmwrNTW18dprr/3jQw899BoARKNR/sYbbwyuXbvWcLlcsTpy5tZLxuUUZSV5H//3+uYjTW4nTVG8QUi0MNPlf+DnU+mzhxdmJ4IjFAqpV155JVNXV8e8/PLLmslkOrpzit7iCUYrqlsjW/bVqvtr24QDNa2kyR20GobBm0SetlvEbzix4agKVTMi18wc7rl3/llpJoEzfYuG7BYNYhgEFhMvJ9mkH5rPRkKhUKi2tlbYsWOHf8mSJcLq1aspt9vtwDHScFiWVUePHv27++677+9utzvua/YogRwIBH50AAkGg7j55ptfX79+/awvvvjiMgAoKytzzZ07N7xkyRLdZDLFpBQzc0yfpDEDckKb9lSHa5t97pxUuzBxSL7Vbu7qWCuKIl9zzTX+TZs2pTgcjsigQYO6kPB1rb7gH15Z2bZ5b43kD8l2gWcFjqUh8iwsx2gdqmoGZFWDrhvhQYVp3tuvmMBNHV6UcTwnw+gmhBBCIIl8RBL5xCChvmjRotZgMMgUFhYmW63WiNVqlTvrdSjDMKhgMCiGw2G+rq6uraKiIrpnz56UgwcPavv37+cMw3Ad71ozMzP3XnTRRTft379/Y2wUdE9M/2fNZjN+jItlWTz55JO/vfLKK4cfPny4EABWrFghzZ07V3/77bcVk+nrXeu0msznj+v37fympsnXXXed+4MPPkgFAK/XS+/du5fNzc2NfyY7xW6+c+4ksuyr/eGdBxuCRxrdQbcvIkVkrXOueoeDTXVoDTkj2RYcVJCGCyf0x+ShBcniUaXBhBCiaZqemGKhG8TUHV66bhAk2UyawLNxH+TAgQP+66+/3uT3++0ACMMwMJvNVAwguq5TiqLEtF5KIpdyvGNlZWXVXH755U+3t7e/4nK5Qqqq9uw56QzD4Me6Bg0aVHf11Vff8NBDD32Gzoj0Rx99xJxzzjmBhQsXRoqKir6r4J60traq1157bWTZsmWJsQ7hueeeC02fPj3McVzMB6EGFqRZBxakWQmB3OIJqO2+CNXY7vd4g1EloqgGzzJURpLNkmw3ixlJFslhNUk4doYvefbZZ905OTmhSy+9NIZCYhBi6477qOkG0lxWnqEpOsEXM/n9/tjPlK7rkt/vPylqqXOKMSwWi3/ChAnLo9HoO4MGDVo1ZcoU/4cfftijfI3jAuTHWExPURRUVcW0adPWtLW13f7yyy+/GGt4vHHjRvvw4cPlBx54wH3zzTebrVYre5RzaKiqqr7zzjuRBx98kD106NA3HLHPP//c+ctf/tL997//nTo6zkFRENJcViHNZcWAgtSTsdtJW1tb9M4774wsXLjQ8v7770cTf6cb3SNKDYOQNKe5SxTd7XYrAGwAwDCMzvM8UVWV1XX9GxK/c4weOI7To9Fo2Ol0eoqLi0urqqpKL7roovVr1qzZdfPNN7ctXLiQyLIMWZZ/PCPYWltbkZ+fD1VVf5RAmTRpEqZMmfJSTk6OdN999z0Ve2Z+v1/8/e9/zz/55JPR2bNna/369TMyMzP9Ho/HdPjwYdOnn36qlpeXWwEwHMepgiC0BoPBxLgE9eqrrzp27NgRfuKJJ/xnn322KdZ26PuY+X6/X37ttdfkJ554gm1oaHAC0HmeT7zhxDCMbgqDEM1lk+REbXfw4MFADCCXXXbZ4jlz5jz4j3/8Y2RpaWmq3++Pm4sMwxh5eXmBvn37eubNm1f5zDPPHPF6vZH58+eHXnjhBTgcDhBCIMtyj+nYflIAiWVLGoYBQghomv5RASUa7RDCt912298+//zzyPr16/+e8KDplpYWqbPuXkdHeSjdSVfGtcLVV1/9+KRJk954+OGHVx05ciQv4euZnTt3WqdPn66OHTtWnjNnTnDWrFlidnY2cTgcLI4/dVf1+Xzavn37tMWLF+vvvPMO39DQkFh1B5btOufE6CYNQtM0SbJLXUiJysrK+Lnl5+fXT58+vXzhwoXlx9LkLMtCEATY7XZwHAdN0xAOh2EYRo8ahvO9AHI0m6EoSvyiY/5JT1eHMQlF0/SLI0aMqKyrq/t7c3Nzn6M+xhxlZsFsNvuGDBly5yWXXLJgxIgRCAQC0/72t789197ePiMUCiV+ltu8eTO3efNm4+677ya5ubn+wYMHw+l0Uvn5+W1Op1Mzm80wDAM1NTVcXV1dkt/v13fs2BGtq6uLgYL+pmnTNfBBd4NgIgBYmqKykm2Je4G43e44xf3FF194PB4Pvm0aWWI3mp7KRp0SgMQkgq7rUFUVNE0j1oKlJwMl5gxqmgar1bpywIABoyZOnPibrVu3/rympuYbTWAtFksgKSnpvYEDBz6m6/pBRVEQDocRDocP3Xzzzefv2LFjTEVFxfy6urpzA4FA7wQpSANATU2Ns6amJvZe2rGEcqc9H/dPBEFoz87OLq+qqpoY+z5ZlrukdjAMfcbbLRJCwHMsSXVaEh1wra2tTeg0oWCz2err6upQVFQEVVXR3aPDuxUgsQ0Xc4IVRQHDMBBFERzH9XiNous6GIbxDxs27C+DBg16prq6epTFYhmyfv36nJSUlNDll1++ZcWKFXsaGhqOGIbRxS6OaVBBELakpqZuycjIsHm93qEpKSnTysvLB6SmphaUlpYOjEaj4lFg+NbldDobBw8evOiiiy56rLGxccxTTz01MXY4RVESbyTNMnQ7gKQzDRBJ5AOdjFvMbI16vV4DAE9RFGbNmlWVnJwMXddx4YUXYsGCBdiwYcP/LkBiAIhJZkVREI1GwXEcTCYTYrGTnkzTdZ6zPy8vb7XD4VhdWlqK1NRUjBgxAuvWrTvuuce0kWEYfqvVut7hcKyfNWsWLrjgAn7evHkZl19+eVYkEhn3wQcf9Jo6dapV1/XMSCTC6bpOS5KkEkIa6uvr6wcMGLAqFAqVZGVleSZMmIDly5d3cfKPzlhlGUohCePfzoxAIXBaRE0SubikqK+vJzU1NaTTP9GmTJnSmJOTExeW5513Hm699VYsWrTofxMg36ZRotEodF3Hrl27kJeXh7y8PCiK0mPZiZgWVFU17jCeLMWo6zo0TYOqqgiHw4qmadVpaWnVwWBwEyEE99xzD0KhEBobGylVVanMzExC0zS59957kZSUBI/HA4qi0NraClEUjaNB3MVJ6obGzp0xENYs8vGDt7e3i36/n+oESPTdd9/12O32uMNtMpm6TIz6nwdIAtsBSZLw6aef4p133sHixYtRXFwMhmF+9GzFSW0qTYtPRgoGgzH/haiqSkKhEGiajmtes9mMSy65pMPT57hEpojq7BjZhU064yapYSAjycogoQFcU1NTEJ0Zug6Ho33lypXRRDATQiCKIkaOHImysrIfRcDvjAAkUZu0t7fjgw8+wPbt23HTTTeBEPKj5LlP1zIMAzabDcOGDUN6ejoIIWhvb48cpUHorgD5ocOmvx9Gku1SGIAj9sa+ffuCnT9T+fn5tddcc43/WBV+LMuitrYWy5Yti7Of//MASbw5FosFq1atQnV1NR555BF05ub8hA4AXq8X5557LgYOHIhIJAJRFGG1WuWjfBDmKBPrjEcKKYpCVoq9i2Q7cuRIfOBofn5+/ZVXXkm+rf2OKIqYNWsWFi5c2CPmDdLUqaXLf3BDW4Zh/qdovxNZqqpi8uTJGDp0KHRdhyRJEEURoigm2iKUqqpdAMKzDMEZFjAMTVG5aY5Eh0Jvbm6OAyQcDrfs2bPnuA3cJElCampqtwGEoihIAgvdIHAHZASjyikDySnp+NxRgdrho8Qi8v+rKxKJYPTo0Zg6dSpEUYz7ZqIowmw2q0cRAF1MLI6lz2i+OyEEIs+G0lwWLuGcIk1NTTI66Wafz1fz17/+9bjmc2wOSP/+/eM/nzGNQVPgWQbvry/Hqh3VuHrmCFQ3e04Z4cGeDjT/rwKEEAJJkjBgwIC40EhcqampicmJ1NEAEXj2jLognTPcoxaTICQwWEgIguKSSy7Zl5+f/50teGLj1i655BK88847Z6RlD01TsJh43PfKGjz57lcYWJiGa84bAY6mO/25HgiQRE3yvwSMmCYtLS1Fa2vrMX22pqamKMdxqqqqHAAqHA53iYtYTR1tWM6Uq67pBlKdFsZpFeNA9fv9QltbW/y8pkyZUj948OB4ztt33YeLL74Ys2bNwldffYVjZf6eSnBYTTzu+edqPPX6OthTHTAJp347s6cP3f87IImNFNu7dy+WL1+OcDj8DUaHEAKe5zVRFJUYQAKBAIuOWSIdDZvNIh/vinUGEKLrBjKTrDTHfj2SurGxMaSqqq3TtwgtXrzYu2bNmpPyLyiKQjAYPG3m9tHggFkARVOn5Z6d1nm8MZDE4gL/raYXTdOor69HTU0NBg4c+K2TXFmWjWzatCkUCATMnSyWgoRERouJF4Az54UYhJA0lzVG6QIAdu/eHQRgAUDn5OTUBoNBd3Nz80lRuJ1FUpg6dSoEQTglcZKOw1OgKMBqEvD7l1fi6Te+6ADHaaSXT/vAaoZh4Pf7YbPZwDBMLIXjvwocoVAIqqpi8ODBx31YgiCEd+/e7W9qakoFgGAwqCChSEky8QzLMDohOO1lnrGzLMpydUFzZWWlIwbY/Pz82jvuuCPwffoWxBz3WJpSbKjniZ4bTVNxf5ZjGQQiHdkQVjOPu19ehaffWH/awXFGAMLzPPbv349nnnkGv/71rzF48GC4XC7Isvyjjr4rigKr1QpVVSFJEoYMGfKdD8tkMkWsVqs/wSFWkJDxa5MEjWXoEAFsp1uNEAAMTesFGc7EMl+1oaEhrtFUVW08cOAAfsgQG5ZlMWLECPh8vuPeHwKAY2gwNIWIoiEQVlHTEoRmECzdtB8ThxSiMNOFkKripfe3ACbujAQm2TOxmSiKwu7du7Fr1y6sW7cORUVFmDlzJmL5PT82jaLrOhwOB1566SUMHDjwhKsxLRaLYrfb4wBpampiwuEwFesiaBI4g+cYGGegpsIgBCaBDSQ7zHQC6JXKysogAHMnoPe/9tprP1iQURSFnJwcZGRkgOO4LkmahBDwLA2AQl17EPVtQdS3h8CxLAJhGRlJNuw61IRhfbPB0BRAAZTAAtqZEa7smdpULMuC53mEQiEsXrwYDQ0NuOCCC1BYWAie5/FjaaLdKVnxi1/8Ar169cLJNFm2Wq0QRdET+9nj8ZhkWWZjALFKAjGLPHyhKGiGOs0gN5DqNCPF/nVXG5/Px1VVVcXT3q+44ordw4cPPyEG6zsZM02Lm0yRSASiwINnKTAshwP1PlAMg7LDrSirbEJRlgsOCwOWoUHTgMCx3VJMdkYBkmizS5IEiqLwxhtvoKqqCs888wxSUlJOyk7tjkUIgclkQkVFBX7729+edOSYYRg0NjbGczY6+0oZTmdH5067WeTMEg9PIILT7YWouoHcNKfisJri9Setra1K56xBAEBaWlpdZmYmIpHIqfVLaQq/veMuLPjoKySP7oW315Zjxpje4FkaAseAoSn0lKwutrsOHCvnPXjwIBYsWIBzzjkHI0eO7NEml67rGD9+fDxh8/tcsyiKTVVVVehksUhra2sgKysrCQAkkZNS7eZAdaMHpxMhVKcG6ZuboibugU2bNoV0XRcAMOnp6a1Llixp/eCDD06tgKQAUAwiyUPQolhhN0ugALAM3SOfOdudByeEQBAEsCyLd955Bw6HAzk5OWBZtseAJGYWCIKAjIwMXHbZZfi+vcQEQUBZWdnBtWvXxgBH9u7dqwwdOjS+f9JcFr9hEMfpdtBBEB3RJzOxnZGxZ88ec4xVy8vLq7r11lvrT+WcDkIIFFnGpkMhlNaFQMtBEIMCenASMNsTToKmadA0jfb2dkSjUfTv37/HpKzIsoyzzjoLF1xwAURRRN++fb/3d0mSBJ7nqxLvf01NTWJzO6pPbjKvGQahKFCn6/JVXUdGsjU6tE9mYg6Wunnz5jA6YiBITU09aLPZCMuypwyWLocDzWEGkUN7QBM/ejQyehJAYpKapmkEg0E0NDQgIyMDPM/H+fSYiXOm/RRCCDZt2oRNmzb94ON2Xl+7IAh6Z6o7feDAgUin1OYAYFjvTE5gmaBhwHo6/FIKQFTWyMiR2cEUhzkr9v6BAweiu3btilO+U6ZMWV1dXX1K/A8KBE1tXlR6aVw0bQIo8uNhLdmedkIMwyAUCqGqqiquWdxuN8LhMFJSUuIS/HT6KrquQxAE9O3bF06n85TGbHJzc5t37tzZVF1dnQUAX3zxBReNRg1R7AiHDCpMN+VnuvxVjR6ryJ/6x2MQApamfVdNKxYSRfjSpUt1WZa52DMwm817Yx0Tf9C91FTYHXbU66lobKhBD3U1fjwAAQCO49Da2oqDBw/CZDKhpKQEjY2N6N27N9rb23HdddehqKgIdrs9XnN+sgCIVUAerRUURUFxcTHOP/98ZGZmnnIQSpLUtHbt2toYQKqqqoSSkpLQ5MmTBQAQeVaaPWmA+9F/rVNMPMufSl3ZMaxUNmaO6RMYPSAnI0FLKosWLaJjzEB+fv4+nud3lpWV/UD1a8DhTMKqPW5k5OSBoX58qUY9EiCxDo8cx4HjuFgtBQRBwMaNG9G/f39s2bIFSUlJmDJlClJTU09opl3MPLPb7fFXrAdYZzIhNE1DdnY2qqurcfDgwVN+baIowmazHQQwtvNahf/85z/ByZMn67ENevnZg+1vrSx1t3qD6d9npPVxTCu47FLb766aZE189h988EGopKQkXjQ1evTopZqmKT+kAIqmgHBUgSkzHaytZw1f/NED5NtAk9jxMRKJ4MMPP8Tq1atx8cUXY9y4cWBZFtFo9BtmgaZpCAaD6Nu3L1JSUvC73/0OFEXBZDLBMAy43W4oioKpU6fC4/FAVVXIsnzMmo4fugRBwKRJkzYsX758fuy9Dz/8UHjwwQfD6enpVgBwWk3Wm2eP9t338nK/wLE/uON75xAfwtCU/6lbZ3FFWa44S6aqqvz444/HGt3BbDbL55xzzlvZ2dnfO8mQZWhouoHDQQlEcAB6E0AJPwHkTPsqkiQhEAhg06ZNiEQiaGxsxIgRI1BXVwdVVeOBPKvVittuuw2zZs0Cx3FoaWmBJEkQBAGEEOTm5kKWZSxduhSBQACncyQEy7IIhUI7RVHUo9EoAwCtra3iJ598Erjhhhvin7tq2pD0L0urG5d+VWF22STm+xAEFNXR98oXiir56c6Wx26ZaR3dP6fLPMHnnnsuUFJSEgfM5MmTP/rFL36x6/vO7WBoCi1uPzbsrkVLQxuKrD/uxFT2x3zyMYZLkiQ0NjbC4XBg3rx52LVrF8xmM9LT01FYWIg+ffrAZrNBURT4fL54H9mYDxJLyZ84cWKcbTqdSxTFHUuXLt1XVlY2OPYcXnjhBXr+/PlRMeatA+xfrj/H0eIJ1pZU1Oa4rNJJoVZWNURkTbGbhfAtc8YEr79wdJLTauoyxmHt2rWhP/zhD/bYPuB5Xh0yZMhTixYt+n715YTAajGjMmRDnSeKFLuEH3uFA4v/kpWY5zN27FgUFxfD4XDAMAyoqopYv6rjreTkZDQ0NCA2afV0LZPJZEyePPm9BIBg165d5qeeesp///33x7N7XTaT9Z93X0L99c21bR+u32slBJIkct+IOhMCaLoOWdVhEKKzNCX3zkkOnTe2r3rhhP72nFR7Fo4KOpSUlPjnzp1LIpFIPBnr//7v/56ePXt2idfr/X6biQbcCoegCnAM1Q0djH4CyAn5Kbqug6Kok+76aBgGnE4nvF5vfJ7F6Yi7+P1+TJs2bcEHH3xwc0NDQ1ZcY/zlL5aBAwcGZs+ebY191mERLY/dcp508aQBnsVrd/u3VtQx7b5wbMY4TVEUYRk6mplsDRdmJtEj+2VpYwbkmntlJ1lFnj3WcB9t6dKl6s9+9jPG6/XGwWGz2TaMHz/+zy6XCyaT6XuB41BLFNUBBRyj/dfsqf8qgCQC5ftsakIIzGYzUlJSsHr1amRkZKCgoAAsy57y+mqz2dx0ww03PPTggw++FHtPURR+7ty56r///e/QpZdeKsWkPgXQEwbnJU0YnKd7AxG1xRsy3L6wVzcMYrOIksNi4pxWk2Qx8eJxnilpamqK/OUvf5EXLFhgVlU1joJ+/frtf/rpp+enp6dHZFk+6TwzCoBGCdjX6IVBCJj/5vEH/+uLoij4/X4sXboUOTk5EEURv/zlL+FwOGA2mxGbyHoqSIarr7765V27dp310UcfXRV7PxqNmq+88krt3nvv9d53332SyWRKpH8Yh9XEOKwmIAdHzwv8NprIaG1tld98883IY489Jra2tjoSza3+/fvv+dvf/janT58+1dFoFIZhfAMgFNUxnpSAQNeNo8BBwJms0DkrKKoJ/229FX8CyLeAxGQygaIohMNhVFVVoaKiAsXFxRgzZswp60WclpaGRx999NbGxsbMkpKSybH3dV1nH374YftHH30UevTRR+UZM2aIDMOcDOes+Xw+bdu2bfJbb72F999/n/P5fA4kjGrgOA52u33ZY489dm1aWlprMBjs4qNRFAWa6qBsQ4oORdUgmiS4nDYwFNXRgp4CZFWHTvHQtf/O3sw/AeQ7gMIwDBiGQW1tLb766itUVFTgsssuQ1JSEn5opmunNnLfe++9lz7xxBPvbdq06eyEX9O7d++2nn/++eqoUaOic+fODUydOtWcnZ0tJyUlCfi6VFdVFCXS0NDAtLW18V9++aVn/fr1lpKSEqW+vt7aCYougt1ut7f97ne/+9OOHTteUhTFUFU1PiSJAsAwFDSdoD1CcKDBh9QkJ6qaA7CYdFw1rRC60WHC0hSFQFhGIBz9r90DPwHkBFcsou/xeLBz505UVlbihhtuiI9W+L6r8+/bnnjiiQv/9Kc//X3VqlXXHn3orVu3clu3biU0TWvZ2dlabm4uZ7FYDIqiEIlEiMfj0Y8cOUL8fr8JQHInKL4xstnpdHp69+79xvDhw5+aMGFC/fbt2zuobnTEL1iGRlQjONws47XPyzB9TH80tYWQ7HR2dCIiBAYxYHQCBBQFQv67Wzv9BJCTXDzPIxAIYMeOHVi2bBkmTJgAk8kUp4VPNn4Qm2EiimJo1KhRvxg0aNBH77///l9ra2v7H/1RwzC4mpqapMTOh+gYJPqt5pcoilp6evpXM2bM+I8kSR+1tbU1dRICIMQATQE8Q8EbUnCkTQbNmRCI6CivceO88RQ4lgao/93n/RNAvseiaRqCIKCtrQ0VFRWora2FzWZDcXFxvInzyTjyFEXF4zUFBQVLLr744s89Hs+l1dXV12zZsuUsTdP4E/m+mHOdkZHRoOv6hhEjRpSwLPtZXl7e/szMTMPn80GWZZglCRQ6gqyyTqG0Tsb2I27YJBH980Wwnf1uf1o/AeQHm126rsPv96OmpgZ79uzBxIkTMWLEiC5NCk7W5FIUJVpYWPifiRMnvj1z5szMffv2TV+5cuWgiRMn5ldWVma1tra6DMOgOY5T09LS3EVFRbVr1qyp7927d9VNN920ac2aNYcaGxt9FosFNE0jGo1CURTomgqa6DAoFlGV4Jpf3YcGr4q6phAUTQfP0qD+l9XFTwA5tSsWmIxNA5ZlGXv27AFN0xg2bBgURYkPPj1Z1kvTNESjUcPpdNaZTKY3CgsLceutt+L9999ndu7cyauqSlmtVmPEiBHK5ZdfblRWVoJhGGRlZYEQAlVVO2M3BgxdB89S4CQ7MounwkO58OqGVtw5fzAa/A1gOmdq/DTZ5SeAnHbTi6ZptLS0QBAE1NfXo7q6GgMHDoTVav1eznwsZyyWkSzLsq5pWiQ2Bk6WZfj9/nggM3GIka5r4FgRaQUD0comwZyaBUPWQAXCCMlBaIqCn2DxHc/0p1twaleMGo75AwcOHEBJSQnC4TBEUYw3qTjdS9NUCKIJ8/7vFgwYew7qwia4A2HA0ACQzu4iPz2vnzRId99glgXLsqioqMD69euRl5eHUaNGISsrC4IgnIbmFAShUBC33HYn+vQfDFtSCjaXHQJDGaApChzDgO1sSsfQtIWmKTNNUwJFUTxNUTJDU1GGpnwAFIFjO3rkngpSg2NAUxRYhjHRNJ1MUZSZoghLUZROU1SUoel2mqb9HMuA55jvusRjgpumKTAMDXIKJ2n/BJAzZHpFo1GUl5ejvLwcHo8H6enpyMnJgc1mOyXp9YQQyNEoLFYH7rz/IeTmFYAYBO5AEBTVEfxjaCqnuskzWTeMqY3uQN4j/1qXrai6XdUNTtcNjmUoZX3pEVlR9Saapup3HmjYxrP05yxLb+U5tnPjnYxwoMGxNOsNRkYFI/I5O/bXj/39C8vyAxElRVE1ydAJS9MhrabZK5ceavTKslZTmOnaFVHU5aP6ZW8UCPEfq6Miif8TX3k0RQ33h2TjSKPnCMcwZcYpEjo/AeQMgiQ2ko1hGLS1teGLL75Afn4+CgoKfkB6PYGiRJGTm4dpM85HdtEAcJ2EAUUBPMNAN0h2daP3D/ur2i4JRZVk3SDgWBr1rf5Os/DrXCtCAIOQLIrCiM82779IErk/lte0fjWwIO2Pw/tmraMpCjqM77hWCgxNcQ2t/iuXbznwqxZPcFRE1miKouAJRo+mkHmiqJI3GHGqml7Q7AlOAXD7toq6I/1yU149b2zfl2iaagcAVdPROycJ82cMw5uf74BViqefTUxxWP4diirYWl737KyxfX4TltWfAPJjXgzDgOM4+P1+NDY2Ii8vL+7kxzRKbFREzARLzFLuSOvXoKkqLLYkPPPCAtjsToTDIWiqApqmIPAsDtS2D371k20fuP3hXhRNgaHpSF66fYcnEFllMws1Zw0rrE9zWYIix2rNnqBl54HG1PLqlrycVNvkynr3REXVrYfr3ZP2HWlZrmn6UxeM63cfz7EwjI5Uk6O1H9sx+mzw8i0H/xZVtOmaboBlGUgmzt07O3lDTbN304D8tOrR/bObHFYxGpZVbn91q2vVtsrcvrkpxQ1t/nP9ITmv2R0saGwPPHygtu0XiqbfbhK5pUBHV5ZbLxmHpV9VQNeN2Kg1mWNpiDwLE8/qHXlkp8jE4nk+3hwh9hBijEiMQTEMI/5/u90eL1U9E87m/4JDTwjB3r17EY1G0d7ejtbWVjgcDvTv3x+iKGLPnj2QJAksy0IQBMiyjEg4jKSUNIycMgtSSj68YR3tgaYuUlzXie2pdza82eYL9WIZGmaR39w/L/WurBTbl5X17XAHwrBbRCTZJJgEFrKmgWVpZCZbMWZA7qPZqY7+VY3uPx2sbb/SZhH5D9bvvdcqCYErpxU/EpHVztkdLCwmASA6BI7Bgdq2OVvL616JKnqSphtItksNJpF/5txRvd8SOaZ+1fZKcCwNp1VCst2EYFSBxSSApmmMHpANbyBiNYv87LU7D9/V6g0NbvWFihRF/6BkX+2fe2clPSKrOgYXpmHO5IF487MdMJv4zn2L01K9yC5atOiGffv2nc1xnAyAIh1zVqlOaRX7Of5/nuep7du3RyVJ8jc2Nq5iWXa1ruvhn7b7D9Mmfr8/3n/L5/Ohra0NR44cwaRJk9C3b18UFxfD6XTC7Xbj3HPPhSiKmH3FfKRn5yIcn9/xdcaJJHJ49dNt1x1pdA81izySbNL+y88edEVti682IivQOyln3SDQDAOabkDXOzSUbhComg5CSPmNF4++antFQ82/V+y8y24W8f4Xe3/PMPTHksDtNQjB5CEFsJlFmAQObd7wnHU7Dv+LY2mzbhgoykxa/PNZw36zYmtlvcAxkFUtnuiodx5T0w3E/AVZ1kAIFRjeN+tfqU7LB++sLnuwzRf6jSRy/Ltryv4qcAz9wM+n/j9CAfPOGYr/rNh1+kmW0tLSyW+//fZcs9kc72IR492/bUmSBJPJhP/85z+32Wy2PUOHDr2RYZivjsXIUMdQwz+tbzrYNE3H71VsZF0kEoEsy/GMYkIIWlpacPFFF8Fqt6MlBJRv249jDXSVBI4qrWycI3AsooqGX8wa/tg1542o3VZRh4+/LIduHF/cqroBq1lAst2M26+YcP+2irrxhxvdEzTNcFQ1em741aVjfxOWVSTZOnIiSysbRyz9qmIBy9JmX0jGjNG9H7tq+pB7WjxB6HpHguOJ+lRRRYOmG6GcVPud/fNSmteXVj1mkwTqrZWlD/McW3n1uUPftUoC+uYm40BtG05Va6RvM7EMm80GQkipoii3AOBnzZqF++67j/H7/ZRhGPEXAITDYaGkpCRv8+bN51RXV8/wer2DduzYsWLp0qXnDRw48MvEWRIxwJxIPfipNl2OVRUXMwstFgt4no+3Nu3iMfJ8jwF07DoSfQ+apqFqGhrr62FTaRQPHQVF7ppuzjI0Wjyh5LoWXy+OoWES2HZQ9IpPN1WAgEJhlgsl5XXxrNz4ner8T1RWQVMUBuanIckuwR0Iq9NGFi04sKRtAscxaGgLTN15oElyWIRwYUYSAhGF/9t7G55QVM2lGwTnjOr12v3XnH3PoXo3NP37ZfsaBIjIKkb3z36i2ROy7j3S/AeRZ7Fo7e4nB+Snbs1Ndxzum5uCiurW0x8H6cwojQLYBAA5OTmYMGFCfFPFfBAA8Pl8aG9vR2Zm5vMej+f8t99++18ej8f5u9/97h8333zzOIZhwrGIcWeLG6SlpcV9nDMlkY8VW+A4Dvv37++3fPnyWdnZ2QdTU1M/iV1X7G9isYmervU4nsfurRtw0cxpoGhHl+sVOAaV9e6kqKKlEgLYLSbP1oraoKJ2+JZmE4/+eSlobA+AZWiwDB2nTnXDQHGvDNx++fiOYijdAMcymD6i14Y3lu0IE0Cqb/MXbK2ozRg/KO8QKODTTeXXNLUFzjaJHASO3n7F1OI7M1NsKK9u6QD4SV6boupIdZrx1xtnQORZXDi+/1/uevGzkbsPNZ1nqFr2+1/s+d3cacW/6pXlirNwpxUgx9pgndqii5Meey9WKHTttdcuTU1Nvf+Pf/zjC+3t7cXV1dUXZGRkvBczz2iaRu/evREOh89ow2lFUVBVVYXi4uIuzc8EQcCOHTum3H///U8NGzZs9bBhwz6JpWbEzBqbzYYJEyb0eAKCpmk0NjYhEAyB402gEtp6EkIgKxpLCGEoigIxCCXyLMV10qvBsIJZ4/pgY1k1eJbBO6t2Y8boXmjzBZFsN2PmmD7Ytr8eUVkDKIChafhD0XaBZ1vCUTVf13Xh5tljrf3yklHX6uOXfbX/Fp5noWoGJo8oePJIo9tT+7kXobCCXjnJkBWt08/47p1sGAQCzyLVYUGSzQxV0yHwrHbF2cX3l1e1TKFpSiqrbJp76ZRBzw3vm30g3WXtyBA4DUIW1LcAJGYmHWvWuWEYMJlMkCQJNE1jxIgRSzIzM/9QU1OT0draetb111//XiAQAMuyaG5uRktLy2npUHg8swQA3G53vKVozL6PaRGO42C1WlWz2QyGYSAIAoYOHQpJkhCJROJg6fHOPcuCpQ3wHIVA5GtBoBMCg5A2gWfbVE1P9gYjSeeM7O3KTbd7iQE8+fYG+ENyZxEU0OoLQdMNqLoBs4nHf1buQm6aHVOGFEAzDKiaDpuZDzx43bQLFNXgDULodJflcDiiYsWWyql1Lb5hDEMjN81ROu+cIR+rmgHd6IjcCxyLGy8cjcb2AI40uI8LEYMQsCwDq0mAYRgoKa+Na4f0JOvO4l4ZH+7YX3+1rhuu0srG2bMnD3w8I9mGFk/wlIPDMAgGFaUfGyBvvvkmJk+ejOuuuy6uLWImCEVRmD17NkRRhCzLKC4ubiwqKqo4fPhwht/vzz9y5AhCoVA8vSI7O/uMO7wURUHTNEQiEdjtdng8HkQiEeTn58MwDCqxPZDJZEJhYWG8929ist+PgioGUNfYitWldeAS+mVxLONOc1qqq5u9yQaI4+1VpZf2zU15ond2ErSjMotZhgY6/R2aohAIyThU78bYAblgGApFWS4YBtEjirpX0zvuTYsnhBZPEIfq28/VDQLD0DFmQM4n2SmOcCQhSNfR85jtZMwMbNhddWxSQNNBd9bFbN9fh6jSdTAqxzJwWMTFLENfTVMUdhyon3HzxWMf52Lm4anUHADyM1xIsVu+PVB44403wm63Y/z48YhEIvEuhps3b0Z9fX08FtLZyjMkiiL8fr9tz549tCzLhqZp2Lx5M6699tq4ZI/FXGJBMo7jvtdmjDnXsUlUHMcdU0vFtEc0GsW6detw8cUXg+M40qkJidlsRq9evUAIgaZpYFm2y/nErlkURXAcB5ZlwXEcBEH4QQ+A5/l4jlbsdazPxcp8Y9cXayRBEqbg6gZBqkPClWf1h2zQiOVgWEy8crC+fWlFTesIu1nE9v11d0ZkdU9+hvOz4/tXJB5k3F/bhvoWH35x/giomg6GphGVFThtEhxmEY3uAMoONY0ROAaabiA3zbGqxRtEVNGO+sYO2rl3p7mlG18TAxSAqKJhYEEa5s8YBoMQKKr+DZKFpilEZW3Ttor65lBESXP7I4P+vXJHTn2bv/ZUjW+LPfr8dBecNhM0Q/92gFx11VUoLCxES0tLvBWMYRhgGAYzZ85EWloaQqEQLBYLPv74Y76srAwWiyXQp08fQ9M0WCwWrFu3DiaTCbquC4Zh9C8vLx/U1taW29bWZjl06FB7S0tLFcuyezmOq2RZVjvepurcnBxN033Ky8sLCSG9W1paXKqqMlVVVV5BEA7SNF0hCMJ+lmX1WPO4TrOKNQzDvHnzZp/H4zF1gpUeM2aMqKoqGwgEOI7jFJZlQ4mxCUEQzC0tLf137tw5sK6uLqu9vd1y5MgRTzgcLqdpepcgCHWdx6A4jnMRQjiWZT0Mw8id38EJgmBmGEanaTrQmeWbU15ePkQUxaL6+npnKBRqkmX5FQC6ruvgeT4GSmdVVVXfkpKSgsOHD6fxPK8DaAqHw0dEUdwHIJy4iTRVQb07CoPQoEDAMjTOHlb06sqSyv+LyGo2x9Kp+2taP1i1tfK1YFh5U+TZvQxNB3mOidPEFBJSnEiHZhEFFkca3fhqTy0GFqQiO9UBjukwQQsznEmBsFxECJBkl9pDUaXqy7Kq45i/wPnj+8HtD0Pp7IJCOje/wyJi5bbKb7QVOooRbbWZhcMRWU1r9YZSHRZTzi9mjah9eOGaUweODCeS7BJUVQcIdWyAXH311fjzn/+MSCQCXde/YcP/4x//wIABAzBq1CgEg0FXY2Njb0IIsrKyqmbMmAGKonD48GEQQtjS0tIrli9ffldjY+PQF198MS6hv/jiC9A0DbPZbLz99tubi4uLH5Mk6eNjTTTiOA4ej2fuf/7zn7saGxuHPP/883RsWi7HcVi/fj1UVYXT6dQfe+yxTfPmzftD3759v4hEIpAkCUeOHBn+0EMPLec4LirLsjkpKQmHDh2a/Je//OVQJBJhdF239erV6/G0tLQ/T58+HaIoMm63+/q9e/fe1tzcPODzzz+Pn/e6desAAElJSZH29vZ/33jjjb/fs2ePd/Pmze/puj48Nzf30r59+66ZOHEiNm3adPmDDz748nnnnffvXr16/bKsrOx+r9d7T21trcVsNoMQAlEUD4ui+HpeXp6el5cHi8WS0djY+NsDBw5c09zcnBaNRiFJEgzDQDQahdlsxiOPPHJ4woQJLxuG8RLLsn7DMMAxNHqnW2AyWTpiJiDgObZGN/Rr7//ninejip7EMbS4aU/1LTSFW15bGt0vq/pOmqU3ByLKdpahDwNUA88y8damHXm8FFiGweEGNzbvrcH0Eb3gsIodzKemZ2m6YScgMAlcYNKQ/HZ05nN9q99EUwhHVdS1+DuCk4aBNKcZLqsIt//4zrbIsyTVYW5saO3428wka3ayTTqJGMvxwEGQn+5Eks3cBaTfAMi8efPwpz/9Kc5gHWuzHjlyBDU1NejTpw/27Nkzs6ampkCSJBQUFKzavn07pkyZApqmucbGxn8+/fTT1zIMA6fTuWbixImfXnHFFbtdLle4trbWsXjx4uLW1tYZlZWVZx04cOAjlmWfveWWW+5kGEZLHHfgdrtv/Pzzz1+maRojR45ccvHFF7/V2tp68PHHH1cyMjI0m83GX3LJJUOXLVt2/a5du6bs2bNn5UMPPXR1YWHhonA4DI7jgv37998mimK0ubk5u7Kycqgsy25BEDb369dPjEQi5vT09Prx48cjLS3N8eyzz762ZcuWOQzDwOVybenfv/+y+fPn7ywoKGhrb2+3fPDBBwPLy8svWLZs2Q0tLS0DbrrpptmrVq1yuN1uhyiKQkpKCnRdh9frtdfW1lqi0agUDAavLy0tfTg9PT00bNiwT2pra6sBsHl5eaGJEyfqZrMZpaWlk0tKShYePnw4Pz8///All1zyQFNT08r169cHaJrGnXfemVZRUXFpSUnJz1966aXHBg4ceGl9ff2lOTk5dR3d7HWEQgFYbXYQ0hHPmDQkf/WM0b0nbNlX+1tPIHo5x9AugxDUNPv6cgzd9/21e67iWBpvLNveHFXU/YMK03c1tQc2FWUnVemGsZtnmTDLMuBYGixLo80fBkVTqG7ygqIou2EQgRBAErhAUVZSpMNX/S4GjkKfnBRU1LQCNNA7J/mEktMlkcPhBo9PMzpysCrr25MVTY/lY31vcBAQFGQ4kWw3fyNuw8ZMGEVRcM011+DBBx9EOBzukjSXGPSL2eRerxd//etfx9XW1j6pKAqGDh267YYbbvjE6/Xiyy+/xKOPPvpSS0vLtXl5ec1Dhgy5vq2t7VO73Y4hQ4YgLS0NVqsVLpdr2Zw5cx6trq6e+corr7z2xhtv3K6qqnznnXfenZaWBkIIotGoc/Xq1fezLIs5c+bcOW3atKdcLhccDgcURYGqqrDb7cjMzNwzYcKEf4fD4Ufdbvfdzz///OMDBw5cY7Va27Ozs/e9/vrr5yQlJWHRokVXzJ8//91hw4aVPv7445edddZZaG9vj40dw89//vMXV6xYMScvLy8wYcKE27xe75uKohgDBw7EwIEDUV9fj9WrV68899xzn0lLS5v+wgsvvLNo0aJ3k5OT7Z3sncGyLGiaBsuyhGEYeL3eOUuWLJk7YsSIDRkZGdeNHTv24NNPP41gMIipU6fi4YcfxltvvTXsxRdf/CAYDCZddNFFzxcUFNxrtVpDsfQTiqKQkZFRnpSUtG7s2LHPrlixYuGXX345/vLLL//gvvvuO8fpdPo0TYOuacjMzsbw4SNBURSisgaKpvbnpjlunjM5+8+llY0zD9a2jTcImewORLIkgbMEowoa3YE0nmXSviyrmkzT1G1hRdVKKxsP98lO3s4w1Cc0Ta+gKKrdYuIxqn82yiobwTI0TwCKpilEFa1xZckB/UTTzA2DoCDThaG9MuNpL9+1rJKANdsPu3WdgGVpBMOKqGj69xrJHXfICVCQ6UKyTTpmUJONxQ0GDBgg3HzzzfnV1dXCseqnYwBxu91mTdOKGhoapkUikZ/5fD6zw+Fovffee28xm81KS0sLSkpKrvziiy/+T5KkyIMPPnjptm3bNtbU1EDXdUSj0XgKRaxkNCcn5/PRo0dfvnPnzhVvvfXW72fNmvXpuHHjNqxfvx61tbXD3W53bnZ29oGf/exnfw8EAggEAvD7/Yg1WtZ1HS6XC5dffjnmz5//+M033zz38OHD+S+++OI5Vqv1nSuuuAKDBw+O9di1A4AoivSKFStgtVphNpshSRI+/vjjOUuWLLnKarXiL3/5y889Hs+Hixcvjtebx87bMAx4vV7Mnj171dlnn33htGnT1gqCIHw9uSDBLBBFbNy40Zqdnb33rrvumvPpp5+2h8NhBINBnHvuuZg0aRI8Hg+9cOHCv7W1tSXNnTv3jRtuuOG2VatWxYOtsfvPsiwikQhsNlvls88+e9G11167urS0dNTq1asfuOKKK+6KMXDNTU3QNA08z8UnS8mqDrtZbDIJ3Bsj+2W9UdnQLkwozi84XN8+Ms1p6Vvb6h99pNHd1yoJWVFFY32BKCvybJ+dBxv67DzYMFcSuVqTwL2mavrfxw7MaftqTw32VbUYAEAMAp5l+AEFqTgRDRLzPXiWASEAQ52Yk81SNCiK6tjVBGBYWme/J4cVZ6syXUiyS98a8WcTbPyhV1555ZETqZuO1UdLkoT+/ft/NX/+/JscDsfuZcuWob29HR999NHNiqJg9uzZzyUnJ28sKipCRUVFl6BdIhVbVFSE6667buM777yzYMmSJbctWLDglwzDbNi7dy8aGxsdnU66v6WlRa6pqYkRA3j77bexdOlSbN68GYQQtLW1wTAMd1ZW1ubm5ubMESNGOGPN3cxmcyyOQ8WyaFtbW7Fs2TLMmjULTU1NePPNN6/TNA0XXnjhmyNGjPjw8OHDKCoqQmVlZZfrj0QiKCwsRFJSEvLy8r669tprn3/ttdfuTARIYrqLoiiYO3fuUyNGjGh3uVzYtGkThgwZgvnz58NkMuGNN96YuXnz5rOysrI8f/rTnx7s1asXampq8I9//AOdZh4YhsGKFSsgyzLmzp2Lvn37tv/hD3/47bXXXrtmw4YN86+77rqne/Xq1aCqCmiGB013bD6LScDkoQV48/MdkNWOgJ2qGdB1IlslvoLn2Ip55w7F++v2YnT/LMkkcIPe/2JP/+Ki/FFb9tZOYFlmQERWecMgOd5A9E/rS49ceVnN4KvmTBlY2twekCkKOgDGICTbKgoCAZG/CyAURSEsqwhGVNS3+sGxNOgTAInZxMMfilpjcSqnxRSOZQd8Xyo3yS59KzHQJdUkEol42tvba3iep7+NBiSEUAzDaFlZWZ6RI0duCwaDKy+66KK1OTk5WnNzM9LT00HTdEFFRcW41NRUrX///m+XlZVBEAQUFhbGO23ENk2/fv0wadIkaJoGl8uFSy655O0VK1bcVl9fP6mysjL5rLPOalNV9ciBAweM5ubmoc3NzdN79+69qrm5Ob7pBUGIR+qrqqpw9tln45133pkfDoevYxhGTaSWj0W3BoNBBAIBGIaR0tDQMMJisWDgwIHvbtmyBTRNIz8/H7IsI9b1XJZl5OXlobCwEI2Njaivr8fw4cMXL1q06HeGYdDHEibZ2dneGTNmrNA0DVlZWZg/fz7mzZsHRVEgSRLefvvtcwKBAC688MLPBUGo+v3vf4/FixfD7/eDZdk4rb1x40YAQHl5Ofx+P2666aa1kyZNWr1s2bJppaWlEwYNGrQoGo2iz8DBYFgWxNABCrhgfEcPOlnWICs6TAITN3MIIYjKGhRVg8BzYZZhSlIdlpJxA3MXyorGmk380LoW35UHattu5jja4vFH+935j2VvPXjdOaPPHlFUX7K/LgIKloisiftqWiVdN447LJLnGPhDMgSORUayDd5gBIfq3YgqKmT1+J1fBJ5FXas/g2MZyIqGPrnJdaqqf2fi5TcdcgoFnWzVd+WKsR03Tkbv3r33P/jgg+N+97vfITHh8BssRKetPmTIEGzdujWe+bts2TIwDINoNDpM0zQhPz9/7y9/+cuyWDRbEASEQiG0tbXFI/Stra1YtGhRPPdJluVDLperpbm5Ofuzzz7LvfPOO9tmzZq14913312xdevWmY899tj7M2bMeCU5OfkznudrGIZpoGk6RNM0UlNTsWDBAuzfvx833nijQghR+vTpE6emjyVlGIaB2+3Gyy+/DAD5fr8/3WazhefMmbPTarVC0zRMmTIFqqqiqakJiqIgKSkJd999N3ieh6IoYBgGiqLsffrpp5ubmpoyYgKn04cjuq4jOTn5iCAIzTFtXVVVhXXr1oFlWYiiiP379w/jeR4pKSmf3nrrrVi7di1sNlt8Tkfs3GMaSpZlPPzww6ipqUFmZuZWnuenLV26dGx9ff0iimbQv3hER7eSzhk2mqbjwgn9YRgEu480wxuIHDeHTTcIIooKUJQm8uy23jnJ28yisG3XocY3RIEVq5s8Azbvqb7htssnPPPc4k2N4aja2x+KJm3aXZ1jM4ueY7FKFABCAeVVLUh3WjBlWGFnH2Aabn8ENEXhyulDvlWad/o57Kqtlfk0RcFi4rRPvixvqWp0Q+CYk2OrMlxw2UwnlEjJooOAh9lspm+99VY4nU7Mnz//W1vUxHwRWZbjUnjPnj1YtWoVTCYTCCHpDMMgHA63/P73vyeJ3xOJRDB06FBcffXVKC8vjw/dTLDXQ0lJSS01NTWp9913n3XKlCnw+XzIzMy8rnfv3q80NjbOWrRo0R2EkDusVqt2++2317a3tzeaTKbqjRs37mpraztQWFi4/9577y1PSUnBvffeC5vNhtTU1GMG42JBxP3794OiKGunw+/OysryOxyOeMo/RVHIzMxEc3MzDh48iPr6+vj9oWkaqqpGaJpuA5BxrE1nNptbFy5cqEWjUVAUhdra2jgRwrKs2NramupwOLBw4cLbZFm+nud5+rsaYxuGgaefflqz2+2FsizD4XDkP/LII/AGwpD12Fi5DqI2omqIKBpoisKdcydha3kdHvjncmi6cVz2iBACXzCKc0f3wYiLs9594u3101Ztq7xB5DnsOFB/0Re7Dj+T6jTvafOGevvDUVOKwzJo3KDcssgxyl0pUBAFFmt3HEKSTfo6wZB0aIa9h5vg9kegajpUVftG2hZNU4jIWlEwohQZxECaw1Z93tg+h+57efmJ+TzxOIcLSTbphIkBNuFm0IZhYN68eSCEYP78+d9p28XyrZYtWwafz4fOGIbQGVSMbtiwoQvQDMNAdXU1BEFAMBiMNzlLAIjG87wMAF6vV/L5fNA0DYqiNIwdO3b2nj17+hQUFJy9ffv2ob179y4sKysb5PV6x3McN/65556bqygKgsGgDGBzamrqg4qirA0EAuA4Dqmpqd8KeI7jQFGU0Ql+5uisulj/XJZl4XQ6u0TSaZqGoigUOkc4H2sjWyyWUFFRESKRSLxTfMx8YhiGVlWVNQwDgwcPtjocjqhhGCdaoM4COCLLcnVhYeEBr9cLs9kMOSgnXfHHtz6QVS2DoWnfuaP7XO60mqr0TtDQ1P9v79rDoyrP/O9cZyaTyUwyMyGTQEISkkmI5AIYRJCEEikoWPCGEKiKltbL6lMWa13dirtuabciratdr0haqkuVBRVEEAlKQoBckNwTcr8nk2Tut3PdP2bONCB4a7t/7Po9z3meM3lmTs75vu897+33/l4CJYUZSJkWi9ZeW3gNpjjXshzCZgkibl5oRaJJhwDPY9Gc5P/+pLbjRyqGQlPXmLVzYFK9bN6so3XtQ2tVDI3TDT23LJ6T/JbCmvIXdDGNiwPjGLS5EKVivoC+pSkSEy4/alr7IYgSctMT4PFzl3xHo2JQ2dCzxOPjtCRJwGyIqjUboh1aDfuV+3Sq5jB9DbPqij6IspjBYBClpaWQZRl33333l2oSSZIwNDQEURSRnZ2t2Nyunp4eEASh37BhwyW/DwaD4DgOBoMB/f39CAQCl4SSaZpWeb1eHUmS0Gg0rtjYWDz++OM4dOgQ7rvvPt5sNjdpNJqmgoICPPbYY8TDDz+sX7FihTE3Nzfrt7/9bW56enrywMDAyt7e3qKTJ08eKyoqWn/jjTe+q0BlrrR5NRoNcnNzAcA5NDQkeb1eQ2dnp16r1XoEQYBarY40/0xLS0NCQkLEPFNMLJ7n9RzHTZsabgw76XJYiGSl6IkkSSQnJ0Ov1yuMjLzb7Xb19vZi69atP589e/YH4+PjX0nioOSJFJiMwWAAw7L46FwHxuweftDmTPYE+JmCIOLZLcvjCjISe4J8GGVNEGBoChX1PfigUoSaDYWlKYoIoXcpEqmWOCzJS0VWshlBXgBDkxBFqZcKY58oilDfkD8zOhDkj+o0Krcsy7qmnrGVvCRl5c6ytAaCISwVTZIYGHfC7gqE0o5XrNMJs8uTIaLsGK0ahbNnQIYMSQyDTQG8caimlCQJCIKIRdfMPCCKIUH+MjU41SG/Wij362qQSO2H1+vFxo0bIcsy7r333i/QZir5kOnTp2P+/PnIy8uLbBqXy9W1a9cu0DSdtGLFihhRFF2CIEQ60ba1tUWc9FWrVmHu3Lnwer1gGAYjIyO6d955J9FkMokvvviiY+fOnWhoaADP80hJScGzzz6LX//61/B6vfD5fLLP53PExcU5LBZLpyiKh++880709PQYTp8+/XZlZeWK119//RerVq16n2EYjuf5L/TeEwQB8fHxuO222yAIQldVVdVgf3//jFOnTs3Nz88fJAgCFy5cQHV1Ne6///6ISVhWVoZp06YhOzsboiji4sWLBWNjY8apeLCpG0GZV8VfW7JkCYxGIyRJgk6n4x0OR0d1dfW8pqammXFxceB5PuLHKL9V5lzRZgqSwG63Y3JyEunpaUR3d7f83mfNcPuFYIxW7eTDJlRlfW+2yxusC3ICSJIAJ4igCAIcL4IkgeaeMdyQl4ooNYPhcRcypptgMeqQkzoNgiCBpekQhQ9FyUQYj0KShCxJMjMva3rP/Kzp7392oauUABGz+1DN1sdLi7cIohQq5RVE/GrvSczLSgJFkl/e2JMA1DSDsiO1uGVxNvLSEwECUDHAsXMXb2nuHi1SMRRiDdFNRkPURyfqOnHxSyoKL49WfZviralRF0JZREmS4Ha7sWnTJrz55ptfsN95nofFYsEjjzyChQsXori4GMXFxVi6dCmWLFnyuVartQ0MDKS8+uqr899//31UVVWhqqoKu3btAsdxEe2zb98+uFwuGI1GGI1GtLW1LR4fH49OTExs/dnPfnZREASQJLkNwGsEQSxV+p3fd999sNvtSExMhE6nQyAQUEwxmM1mx+LFi3+p1+sxNjaWeezYsVlHjx7FxMTEFbUgx3EYGxuD2+12pqamVrndbjQ0NNxRVFSExMREDA0NwW63Rwq+aJqOMJHodDosWbIEdXV1G4LB4BeKrBQhkWU5MreyLGNkZAQdHR3o7OxEa2srtFptFcuyOHfu3I0FBQVYuHAhDAYD7HZ7pBqTYRj4/X643W5MmzYNFosFDMPE7t69e98rr7xyamBgcJEsyXjk9uvxqwdWBGfPjK/1BwXIMtDYNbp0TloC5qSHDqcngOM1HWDCeYgAJ0DFhrPlFAm3L4j/ePc0uoYm8fnFYVS3DqCmdRBNPWNGSQw5/yxD+557+xTfM+zAlluufZ6hKK9GzaC8tuvuso/qbpYh40RNB06e7wIvSF+bFJskQwVTvSMOHKxohl6rRvewPe6l/VVPswwFTpCwKDf5BZYmHQM2RwTTdXXhiP3KUO7XFRBMFRBJkuB0OrFp0ybs3r37EiERRRFGozFiZiiHz+eDyWSyl5SUHHQ6nWhubn4oLi4O8fHxMJlMl2C6lIc4fPgwamtrAQB//OMft/A8j8zMzPd9Ph+3cuVK5OfnF1MUdX9vb++axsZGdHZ24uTJk2htbcWOHTtQWloKlUqFxYsXY2hoCAaDAWazeSQqKsovyzLtdDoZu90e2bwsy0pTIfFGoxEFBQXIz8/Hli1bXo6OjsbRo0c33X///Ws++OADOBwOXJ4AZFkWNpsNdrsdn3766dqDBw/e82WdYacKiJIVV9AAWq0WxcXFB+Lj4ycqKipWVVZWLna5XHA4HDh+/DgqKioUpACam5vx4Ycfwm63w2QyobKycvX+/fvv7O7utvp83t7Ozk50D46jvW8cJr32FEkAGhWN6pb+2+o7hnN8AR6tPTa099kQpWYuC7wosIsQqJAiCZxt6sML71bC4w/C4wugsqHnOgVtmxJvuLDxxrxxf5BD3ixL3bL56c95AxxYlmIPn259pXtoMpelKYiiBOqbQEFC2iniD0myTLxxqOaFSU9gLi+ISLEY3tuwPH/33Kzp6B11QBTlqwgHgVRLHEyXYau+tYCEWUtw+eFwOLBp0ya88cYbIEkSClK3sLAQVqsV11xzzSWH1WrFAw888DuLxeJsbGy8taGh4adX65yqUqnQ3d2NtrY27Ny5c3t5efmyhISE0bS0tFebmpqQnJyMGTNmfBgGJP7AZrNNm5iYQH19fcRBVjrTpqWl4ezZs2hvb0dtbe18u92u0el0w2vXru3esGEDBgcHcerUKTQ1NXlYloXdbjd4PB4UFRVF8GUlJSXld9111+8nJiawb9++spqamgfVarWGoihERUUhOjoaWq0WDMMgJiaGPXz48MP33nvv/ry8vM+SkpLaphJdKInCqTXlylvN7/dDq9XCZDLBYDAgIyOjb/369bscDgexbdu2F5966qkZDofjiuFpURQxMDCA7du3p7z00ktPEwSBtWvXvlRaurG/qKgIObOSkJYUi1uLr/lvizGmTRAlBHnB8Nx/fbbjTx+fjz5R1wE1+9XVkkqp7ITLh/PtQ/BxvKHu4tAP6fA9zUyMPe70BuH0BiCIIp7YVPzL3LSEw0FOgNfPJf3rnhPvdw1PXh+tUX1jKIgsA2qWhixD90+vfLTnZF1nKUuTMBm0F9Ysnv1AkilGGB53obFz9AshXlkO8T+mWmIRFxMFQfrrOmDRV9Igl4/JyclIVOuee+4BSZLQ6/Xw+Xxf8E+CwSAyMzObVq1a9Y979+59/eDBg89LkpRaXFz8K4ZhhlQqFTQaDViWBc/ziI6OztyzZ8+TLS0tP4yLixPXr1+/JS8vr4dlWSQlJSEjI+Od2tran7a0tMzaunXrvkcfffQhrVbbpFarodVqER0dDY1GE3YyKQwPD6+oqKh4zuv14qabbtpDEITL4/Hgz3/+MxoaGqBWq8d1Oh3Gx8fz3W73epVKtV+WZbG/vz9KkiR3SUnJttHRUbqiomLLkSNHXoqNjd2WnJxcfuzYsbqGhga71+tVd3V1zamrq1tts9nSrVbrieTk5Ltra2sPXMG8ki/XIErF5owZM2C1WiNMizk5Ob/q6urKO3To0B0cx31stVp/yjDMEbVajejo6MhzqlQq9PX1LT148OBLNpstbfXq1R8++uijO1wuV7gsIUR4YDZEuZYUpP6y7MO6MqNeg55h+2pfgN9bXJD2CMvQfQFOwJclr0M+EAGKJNDUPaavbR/8/fC4O5ckCURr2NpbFmfvMRm0EKUQCwlNktxtxddsdniC+wZtjmKHJ5By4LPmw6uutz4rCOJLapYO8MKXO9QECDAMBTVLoW/UUfTZhe7nRibc87VRKgSC/GcP3brwzsW5KaO9Iw5wvIgxu+cSTSjJMliG5nPTLdCw9NcO5V6tulHN0qADgQAZbtpCKA7hlcbExARKS0shiiJee+01pW3YFSc2HJd/4/vf/z5fW1v7woEDB/6hvLx8s16vrzl37lxza2urb3Bw0NTe3j7H6/XmOBwOldls7ktPT//R008/fWxqGFmSJNvGjRs3vvnmm3/q6+srevLJJ88bjcbPGYY5a7fbBzQaDTc8PGzs6+tLaGxsLDxz5kyOJEnkddddt3vevHnPTk5OgqIobN++XXnDlN91110ny8vLiz/99NM/lZaW7pJlmZ4xY8bvDQbDL2bPnu1ftWrVj71e70Gfz/dgf3//9+rr6zfX1NRsVl4GarUaMTExDevWrXuooKDg1ZdfflnkeZ4NawtiSn6ECAc9GJ/Pp4TBwfM8ysvLkZKSApqmlT6F4jPPPLPB4/H0nzlzZuszzzzzoclkaps3b96nb7/9drdKpeJaWlqSq6qqimw2Wz5BEJg/f/6e559//hGz2cwp+SRdlDq01QgCP15d+AeeF3LeKW/4WbRGhTG79wdHzrYvmJlgeC090fgeL0j1NEXyKpaGRsVAo6KhYWkwNAU+wEGW5JkOT2DZuNP3kNMbLCAIgCbJyS23FD5OgHDa7F5QJIF4g1bJyo/dvjTnttP1vS+fae6/Q6NiDIdPt/1Go2I2xMZElVmTzR9JktzOMhSi1Cy0GhYaNQuWibDhG9t6bYv7xpx3n6jrWs4ytDZKHQrjqlnarFHR6W99fGH0dGMvHr71esTqNPAFOVAkGcF29YzYrz12rv3HgaCg+ms0R5AXVbNnxtfRS5cuLVepVERmZma94uxebdhsNqxfvx7hfAN0Ot1VvxsIBJCenv4HhmFO9vf3P+B2u2/p6em5YWRkpEiSJKV6LzB79uwzgiAciI2N3UMQhNPj8USqFZWwc0JCwtlly5Zd29LSsomiqFUXLlyYd/DgwWuV74Q3mTxz5syBjIyMvW63+w85OTmfKNEgmqah1+sjVsoTTzxxx7Rp0x70er3XdnV1JYuiqM7KyupmGCZC3paRkXGEoqiP8vPzzTfffHPK2bNnEwRBoIqKiobLyspGhoeHh00mE3fdddfB7XZTb731FhmuPxEVIri0tLTGzZs3l+Xm5p7Jzs6+BIsmSRL8fj90Ol3EHyJJUkhLS/vHZcuW/df58+d/fObMmZuOHz++RalHoWka8fHxY8nJyXs2bNjwxvDwcIXyQpoK6FMSDTH6KCxfkPl4detgq8cXfIYXuBkeP5dwvn34nzsHJx//uLajLyZK1VHV2DvS3DPqoSmKd/uC0aOTbmPPsD2toWs01eUN6gkidL/xsdrmR25ftCV5mqHS4+cgh4uqFDJ1UZQQxbKTJfMz1gcF8ePhCddTNrs3OSgIc0/Uds6tax908YLUSZHERY4Xh6LUKr/T49ON2r1Gtz+YuPfY+Vm+AJ+ECJBR5mXAJkhyAkkQ2dvfOH60IDPpp7oo9esJcdG4Nns6jp5th4alCVESwdAUzrcPfa+yvvd73xTge7kn4/IGsKEk/zV63bp1u9evX79bWdSvlKxgEF/mkF4eIRJFsS83N/eJ8fHxXxQWFhruueceY0dHR1Rubu7k1q1b7UVFRa7PP/9cVurYrwaO5DjOnpmZ+UJhYeF/tLW1Re3evVuTmJioGxgYUKWmpgYfe+wxl9/v96xevTr49ttvX7IZlWsoG1OW5fE1a9b8i06nw7vvvkvJskxs3rxZEEWR/Pjjj6HVanHDDTdI9fX18uTk5FhqaupYe3s7OI6LMLIPDAzA5XIhKysLKSkpUW+99VYcQRDIz893kCSJtrY2FBYWnl65cuVppSLz8sFxXDjjTUbuTRAEWCyW6sLCwmqv16vZtm2bsb+/3+zxeOjc3FxbWVnZqNfr9et0ukgO6moLLUoyPD4O0836NwmCODrh9N49ZvfcwdGk1RvgogJBYZbd5Z/VPWy/xPJRiKyZoAC1ig5o1ExTRpLxj9dmT39zTnqCa9DmjDzPJY9FEJAkGd4AJ85JT3itICPxvYExZ2l950ipn+Znu31cjCCKBecvDhfUtQ/9xZQjQho3yAnQaljQFOmMi4k6f9N11t92DU9WNHaNvDAy4d6gYunoM419/zlrujHdzwn/PD97utDcOwavjxO1ahVHU4RHo2IQq9NceUqm3Csxlar+i2sje7TqmDh91ATt9/vB8/w3qrP+pp2SOI5DIBDgExMTbUaj0Waz2RAfHx8JXX6d9mRKWzG/3y/Lsuw1mUxek8k07vP5YDaboVKp4HK5cLWk4OXX4jhOyaeIRqMRs2bNwqFDh9bs3bv32blz51bu2LHjRwsXLkRnZycGBwcj9fTKpjaZTLj99tsxOjqK6urqgsHBwUSLxTK8ZcuWi0qtvd/vh91uB0VRVySpuxrBnSAICgDTbzabB9xu9wBFUTCbzRETVpmzr3KACQBCKJI0lJJg2MGy9L/PiNfnnWnsnb12SU5W36gj0e7268adPoMgiJRBp3EbotUea7K550RtZ8vczMRWb4Cvs84wSYq/8VUhWwJAkBdAsczYvKykXRRF/E4frc479XlP7oKcGXMau0ZTx+yeOF9QUGlYmovRqjwmvdaZPTO+5Wh1e+cPFs+unnD6OvIyEnBxYBzFBWk/5Hix5/3Kln9SsTTdMTjx81/vPZl157Lcdf/+4EpOF6X+iKWpmSRJSKFkJGQCoaQnQUAmQ+dyaL5Dd0iGP4ciVYRMhMFrBIFwcyGC4AXJ/79G/qTkPgRBgCiKEUqebzuUFmTK8W2upYAoY2Nj8cknn6Crq8vR1dWVbbfbU6qqqn4TExPT/sEHH0CSJKxbtw4WiwUOhwNJSUloaWnBwMAAcnJycPTo0XtdLhcWLVr0SXd3tyPs00Var/01I1QpeOmcfdsCIV6UABkiCdQZY6LqViyworKhB91DdvgCPHwATHotkqfp8f0FmajvHAkxjcgyOEGE5pvCygEEQwQOEkmQ5y2mmPNL56Vj3OmD3e2H6ONAUST00RqkJxmxelEWqpr6QFMkRFFCkBfD8HxR/MmaBU92DU62N/aMviCIUsySvNRTa5dcw9kcXgzanD6NivYp2DOCIDBFQEBGzi8RkMg8klP+/hcBIUEE+f/f7Q94nofVasWyZcsQDAZRUlJy8siRI6dramqu37lz51PTp0+/t7e3V1ywYEEksz31rX/x4kX09/c/eODAgXssFkugsLDwhba2tkjbAqvV+q03899vhGwLUZLhD3LgeBGCFCaQDjMr8oIIf4APO95/i/+odA2QEAjyECUJ8iUoAxm8KMIX4CFdoeBKkkOaKzqKLVuUk+zQRqnSf7JmwfOCIIJA6PcKgjisQRDe73+xnsLnl3++/JxQWtMRoTn5fy0gsiwjLS1N8ZWgUqmkW2+99eetra2Hm5qaNvn9/mSe518kSbJJluURSZICsiwzJEmavV5vTkVFxea6urofsCzLp6am/sRoNFYrkJuprCrfjb/NEEUJRkP0e2ZjNERJhiQD8t+50SL93aSLl5xrNJpTJSUly2tqav6tv7//ewRBFO3fvx/vvPOOj2XZgCAIDEmSWp/PR4qiiKSkpE+tVut2l8t1UslpfDf+juslSxBFKZIt/3uP7zrgXEFg1Gr1mYSEhOWlpaXW6urqxd3d3enLly+PGR8f1+n1+sCJEyecqampXcuWLfusqqqqWaPRiA6H47vJ+z84/gfojczBA4NSRwAAAABJRU5ErkJggg==;" parent="1h0svEDW4cat6tXGmW17-6" vertex="1">
          <mxGeometry width="41" height="37.72" as="geometry" />
        </mxCell>
        <mxCell id="1h0svEDW4cat6tXGmW17-3" value="" style="html=1;verticalLabelPosition=bottom;align=center;labelBackgroundColor=#ffffff;verticalAlign=top;strokeWidth=2;strokeColor=#82b366;shadow=0;dashed=0;shape=mxgraph.ios7.icons.data;fillColor=#d5e8d4;" vertex="1" parent="1h0svEDW4cat6tXGmW17-6">
          <mxGeometry x="41.004380833852" y="0.22000000000002728" width="54.760423148724335" height="50" as="geometry" />
        </mxCell>
        <mxCell id="1h0svEDW4cat6tXGmW17-4" value="&lt;font style=&quot;font-size: 16px;&quot;&gt;&lt;b&gt;PIXL DB&lt;br&gt;&lt;/b&gt;&lt;/font&gt;" style="text;html=1;strokeColor=none;fillColor=none;align=center;verticalAlign=middle;whiteSpace=wrap;rounded=0;" vertex="1" parent="1h0svEDW4cat6tXGmW17-6">
          <mxGeometry x="25" y="55.22" width="73.38" height="30" as="geometry" />
        </mxCell>
        <mxCell id="1h0svEDW4cat6tXGmW17-15" value="" style="group;fontStyle=1" vertex="1" connectable="0" parent="1">
          <mxGeometry x="431" y="1437.5" width="120" height="150.5" as="geometry" />
        </mxCell>
        <mxCell id="1h0svEDW4cat6tXGmW17-13" value="" style="rounded=1;whiteSpace=wrap;html=1;" vertex="1" parent="1h0svEDW4cat6tXGmW17-15">
          <mxGeometry width="120" height="150.5" as="geometry" />
        </mxCell>
        <mxCell id="1h0svEDW4cat6tXGmW17-7" value="" style="strokeColor=#dddddd;shadow=1;strokeWidth=1;rounded=1;absoluteArcSize=1;arcSize=2;" vertex="1" parent="1h0svEDW4cat6tXGmW17-15">
          <mxGeometry x="17" y="40" width="91" height="41.62" as="geometry" />
        </mxCell>
        <mxCell id="1h0svEDW4cat6tXGmW17-8" value="Imaging&lt;br&gt;queue" style="sketch=0;dashed=0;connectable=0;html=1;fillColor=#757575;strokeColor=none;shape=mxgraph.gcp2.task_queues;part=1;labelPosition=right;verticalLabelPosition=middle;align=left;verticalAlign=middle;spacingLeft=5;fontSize=12;" vertex="1" parent="1h0svEDW4cat6tXGmW17-7">
          <mxGeometry y="0.5" width="32" height="32" relative="1" as="geometry">
            <mxPoint x="5" y="-16" as="offset" />
          </mxGeometry>
        </mxCell>
        <mxCell id="1h0svEDW4cat6tXGmW17-9" value="" style="strokeColor=#dddddd;shadow=1;strokeWidth=1;rounded=1;absoluteArcSize=1;arcSize=2;" vertex="1" parent="1h0svEDW4cat6tXGmW17-15">
          <mxGeometry x="20" y="97" width="84" height="35" as="geometry" />
        </mxCell>
        <mxCell id="1h0svEDW4cat6tXGmW17-10" value="&lt;div&gt;EHR&lt;/div&gt;queue" style="sketch=0;dashed=0;connectable=0;html=1;fillColor=#757575;strokeColor=none;shape=mxgraph.gcp2.task_queues;part=1;labelPosition=right;verticalLabelPosition=middle;align=left;verticalAlign=middle;spacingLeft=5;fontSize=12;" vertex="1" parent="1h0svEDW4cat6tXGmW17-9">
          <mxGeometry y="0.5" width="32" height="32" relative="1" as="geometry">
            <mxPoint x="5" y="-16" as="offset" />
          </mxGeometry>
        </mxCell>
        <mxCell id="1h0svEDW4cat6tXGmW17-14" value="rabbitmq" style="text;html=1;strokeColor=none;fillColor=none;align=center;verticalAlign=middle;whiteSpace=wrap;rounded=0;fontStyle=1" vertex="1" parent="1h0svEDW4cat6tXGmW17-15">
          <mxGeometry x="2" width="60" height="34.73076923076923" as="geometry" />
        </mxCell>
        <mxCell id="1h0svEDW4cat6tXGmW17-16" value="" style="endArrow=classic;html=1;rounded=0;endSize=8;startSize=8;entryX=0;entryY=0.5;entryDx=0;entryDy=0;edgeStyle=orthogonalEdgeStyle;" edge="1" parent="1" source="1h0svEDW4cat6tXGmW17-7" target="CianoWygyvogbfJQY6NW-39">
          <mxGeometry width="50" height="50" relative="1" as="geometry">
            <mxPoint x="492" y="1464" as="sourcePoint" />
            <mxPoint x="523" y="1391" as="targetPoint" />
          </mxGeometry>
        </mxCell>
        <mxCell id="CianoWygyvogbfJQY6NW-28" style="edgeStyle=orthogonalEdgeStyle;rounded=0;orthogonalLoop=1;jettySize=auto;html=1;entryX=0;entryY=0.5;entryDx=0;entryDy=0;fontSize=12;startSize=8;endSize=8;exitX=0.5;exitY=0;exitDx=0;exitDy=0;" parent="1" source="CianoWygyvogbfJQY6NW-49" edge="1" target="1h0svEDW4cat6tXGmW17-7">
          <mxGeometry relative="1" as="geometry">
            <mxPoint x="323.76" y="1507" as="sourcePoint" />
            <mxPoint x="482.76" y="1399" as="targetPoint" />
          </mxGeometry>
        </mxCell>
        <mxCell id="1h0svEDW4cat6tXGmW17-17" style="edgeStyle=orthogonalEdgeStyle;rounded=0;orthogonalLoop=1;jettySize=auto;html=1;entryX=0;entryY=0.25;entryDx=0;entryDy=0;fontSize=12;startSize=8;endSize=8;exitX=1;exitY=0.25;exitDx=0;exitDy=0;" edge="1" parent="1" source="CianoWygyvogbfJQY6NW-49" target="1h0svEDW4cat6tXGmW17-9">
          <mxGeometry relative="1" as="geometry">
            <mxPoint x="330" y="1568.5" as="sourcePoint" />
            <mxPoint x="418" y="1511.5" as="targetPoint" />
          </mxGeometry>
        </mxCell>
        <mxCell id="1h0svEDW4cat6tXGmW17-18" style="edgeStyle=orthogonalEdgeStyle;rounded=0;orthogonalLoop=1;jettySize=auto;html=1;entryX=0.25;entryY=0;entryDx=0;entryDy=0;fontSize=12;startSize=8;endSize=8;exitX=1;exitY=0.5;exitDx=0;exitDy=0;" edge="1" parent="1" source="1h0svEDW4cat6tXGmW17-9" target="CianoWygyvogbfJQY6NW-47">
          <mxGeometry relative="1" as="geometry">
            <mxPoint x="553" y="1558" as="sourcePoint" />
            <mxPoint x="586" y="1510" as="targetPoint" />
          </mxGeometry>
        </mxCell>
        <mxCell id="1h0svEDW4cat6tXGmW17-21" value="" style="group" vertex="1" connectable="0" parent="1">
          <mxGeometry x="792" y="1533" width="121" height="83" as="geometry" />
        </mxCell>
        <mxCell id="CianoWygyvogbfJQY6NW-42" value="&lt;div style=&quot;font-size: 16px;&quot;&gt;&lt;b style=&quot;&quot;&gt;&lt;font style=&quot;font-size: 16px;&quot;&gt;&lt;br&gt;&lt;/font&gt;&lt;/b&gt;&lt;/div&gt;&lt;div style=&quot;font-size: 16px;&quot;&gt;&lt;b style=&quot;&quot;&gt;&lt;font style=&quot;font-size: 16px;&quot;&gt;hashing-api&lt;/font&gt;&lt;/b&gt;&lt;/div&gt;" style="rounded=1;whiteSpace=wrap;html=1;align=center;" parent="1h0svEDW4cat6tXGmW17-21" vertex="1">
          <mxGeometry width="121" height="83" as="geometry" />
        </mxCell>
        <mxCell id="CianoWygyvogbfJQY6NW-43" value="" style="shape=image;verticalLabelPosition=bottom;labelBackgroundColor=default;verticalAlign=top;aspect=fixed;imageAspect=0;image=data:image/svg+xml,PHN2ZyB4bWxucz0iaHR0cDovL3d3dy53My5vcmcvMjAwMC9zdmciIHZpZXdCb3g9IjAgMCAxNTQgMTU0IiB3aWR0aD0iMjUwMCIgaGVpZ2h0PSIyNTAwIiBmaWxsPSJub25lIj48Y2lyY2xlIHI9Ijc3IiBmaWxsPSIjMDU5OThiIiBjeT0iNzciIGN4PSI3NyIvPjxwYXRoIGZpbGw9IiNmZmYiIGQ9Ik04MS4zNzUgMTguNjY3bC0zOC43NSA3MEg3Ny41bC0zLjg3NSA0Ni42NjYgMzguNzUtNzBINzcuNXoiLz48L3N2Zz4=;" parent="1h0svEDW4cat6tXGmW17-21" vertex="1">
          <mxGeometry x="7" y="4.5" width="30" height="30" as="geometry" />
        </mxCell>
        <mxCell id="1h0svEDW4cat6tXGmW17-23" value="" style="endArrow=classic;startArrow=none;html=1;rounded=0;entryX=-0.006;entryY=0.833;entryDx=0;entryDy=0;entryPerimeter=0;exitX=0.396;exitY=0.004;exitDx=0;exitDy=0;edgeStyle=orthogonalEdgeStyle;endSize=8;startSize=8;exitPerimeter=0;startFill=0;" edge="1" parent="1" source="CianoWygyvogbfJQY6NW-47" target="1h0svEDW4cat6tXGmW17-3">
          <mxGeometry width="50" height="50" relative="1" as="geometry">
            <mxPoint x="609" y="1625" as="sourcePoint" />
            <mxPoint x="659" y="1575" as="targetPoint" />
          </mxGeometry>
        </mxCell>
        <mxCell id="1h0svEDW4cat6tXGmW17-24" style="edgeStyle=orthogonalEdgeStyle;rounded=0;orthogonalLoop=1;jettySize=auto;html=1;entryX=-0.012;entryY=0.896;entryDx=0;entryDy=0;entryPerimeter=0;fontSize=12;startSize=8;endSize=8;fillColor=#d5e8d4;strokeColor=#82b366;startArrow=classic;startFill=1;endArrow=none;endFill=0;exitX=1;exitY=0.75;exitDx=0;exitDy=0;" edge="1" parent="1" source="CianoWygyvogbfJQY6NW-47" target="CianoWygyvogbfJQY6NW-106">
          <mxGeometry relative="1" as="geometry">
            <mxPoint x="644" y="1721" as="sourcePoint" />
            <mxPoint x="764" y="1695" as="targetPoint" />
          </mxGeometry>
        </mxCell>
        <mxCell id="1h0svEDW4cat6tXGmW17-25" value="" style="group" vertex="1" connectable="0" parent="1">
          <mxGeometry x="522.76" y="1330.5" width="121" height="83" as="geometry" />
        </mxCell>
        <mxCell id="CianoWygyvogbfJQY6NW-39" value="&lt;div style=&quot;font-size: 16px;&quot;&gt;&lt;b style=&quot;background-color: initial;&quot;&gt;&lt;font style=&quot;font-size: 16px;&quot;&gt;&lt;br&gt;&lt;/font&gt;&lt;/b&gt;&lt;/div&gt;&lt;div style=&quot;font-size: 16px;&quot;&gt;&lt;b style=&quot;background-color: initial;&quot;&gt;&lt;font style=&quot;font-size: 16px;&quot;&gt;imaging-api&lt;/font&gt;&lt;/b&gt;&lt;br&gt;&lt;/div&gt;" style="rounded=1;whiteSpace=wrap;html=1;align=center;" parent="1h0svEDW4cat6tXGmW17-25" vertex="1">
          <mxGeometry width="121" height="83" as="geometry" />
        </mxCell>
        <mxCell id="CianoWygyvogbfJQY6NW-41" value="" style="shape=image;verticalLabelPosition=bottom;labelBackgroundColor=default;verticalAlign=top;aspect=fixed;imageAspect=0;image=data:image/svg+xml,PHN2ZyB4bWxucz0iaHR0cDovL3d3dy53My5vcmcvMjAwMC9zdmciIHZpZXdCb3g9IjAgMCAxNTQgMTU0IiB3aWR0aD0iMjUwMCIgaGVpZ2h0PSIyNTAwIiBmaWxsPSJub25lIj48Y2lyY2xlIHI9Ijc3IiBmaWxsPSIjMDU5OThiIiBjeT0iNzciIGN4PSI3NyIvPjxwYXRoIGZpbGw9IiNmZmYiIGQ9Ik04MS4zNzUgMTguNjY3bC0zOC43NSA3MEg3Ny41bC0zLjg3NSA0Ni42NjYgMzguNzUtNzBINzcuNXoiLz48L3N2Zz4=;" parent="1h0svEDW4cat6tXGmW17-25" vertex="1">
          <mxGeometry x="5.240000000000009" y="5.5" width="30" height="30" as="geometry" />
        </mxCell>
        <mxCell id="1h0svEDW4cat6tXGmW17-26" value="" style="group" vertex="1" connectable="0" parent="1">
          <mxGeometry x="715.76" y="1304.5" width="127.62" height="137.5" as="geometry" />
        </mxCell>
        <mxCell id="CianoWygyvogbfJQY6NW-13" value="&lt;div style=&quot;&quot;&gt;&lt;b style=&quot;background-color: initial;&quot;&gt;&lt;br&gt;&lt;/b&gt;&lt;/div&gt;&lt;div style=&quot;&quot;&gt;&lt;b style=&quot;background-color: initial;&quot;&gt;&lt;font style=&quot;font-size: 16px;&quot;&gt;&amp;nbsp;orthanc-raw&lt;/font&gt;&lt;/b&gt;&lt;br&gt;&lt;/div&gt;" style="rounded=1;whiteSpace=wrap;html=1;align=center;spacing=2;verticalAlign=top;" parent="1h0svEDW4cat6tXGmW17-26" vertex="1">
          <mxGeometry y="2.1975757575757573" width="121" height="129.5" as="geometry" />
        </mxCell>
        <mxCell id="CianoWygyvogbfJQY6NW-14" value="" style="shape=image;verticalLabelPosition=bottom;labelBackgroundColor=default;verticalAlign=top;aspect=fixed;imageAspect=0;image=data:image/png,iVBORw0KGgoAAAANSUhEUgAAAxIAAAD6CAYAAAA1O3G5AAAABmJLR0QA/wD/AP+gvaeTAAAACXBIWXMAAAsTAAALEwEAmpwYAAAAB3RJTUUH4AUZBTcF2cewFwAAIABJREFUeNrsnXeYHNWV9t9bofPkHCWNNMoSygEQCNCAyDkbhzVe7LWN7cXYuw6fNzh7veuAE5jB2AZjwGCiyUEIRJBQ1ihP0OTcaTpW3e+PqlLXtEZiJHXNdM+c3+N6hGXT3XXjee89ASAIgiAIgiAIgiAIgiAIgiAIgiAIgiAIgiAIgiAIgiAIgiAIgiAIgiAIgiAIgiAIgiAIgiAIgiAIgiAIgiAIgiAIgiAIgiAIgiAIgiAIgiAIgiAIgiAIgiAIgiAIgiAIgiAIgiAIgiAIgiAIgiAIgiAIgiAIgiAIgiAIgiAIgiAIgiAIgiAIgiAIgiAIgiAIgiAIgiAIgiAIgiAIgiAIgiAIgiAIgiAIgiAIgiAIgiAIgiAIgiAIgiAIgiAIgiAIgiAIgiAIgiAIgiAIgiAIgiAIgiAIgiAIgiAIgiAIgiAIgiAIgiAIgiAIgiAIgiAIgiAIgiAIgiAIgiAIgiAIgiAIgiAIgiAIgiAIgiAIgiAIgiAIgiAIgiAIgiAIgiAIgiAIgiAIgiAIgiAIgiAIgiAIgiAIgiAIgiAIgiAIgiAIgiAIgiAIgiAIgiAIgiAIgiAIgiAIgiAIgiAIgiAIgiAIgiAIYoxg1AQEQUx2ptz8IBNkuwuCmAUOJwAZAAPnAHimrJNK3N/VeuTJO8NJf89P5kNKz/+aDUAVAEl/f+1DOE/3PUMF53HOlRCPhwOhzj3BwOG31BH2O04jniAIIjVI1AQEQUw2pn3ycZExVghgDsAWAZgPYAqAYjDkAHAAEDPstXyCI+smAB8CEHSDWT0FQTEVwFMAisCYatjfjCH9hQQQYpB8kGw9nimrWtxTVu6GqmxXY0MN4e59Xf6Db8RGeAcSFgRBECQkCIIgTkzNp57IBbAKwKUA1gCoAZA1Md6O2+LB3iwATt1YVkyPehJGswigEEBB5rYF0//DAFEIimJ2o6tq2TvO8oUvxP3dm/q3PtJjagtm+mcSFQRBECQkCIIghgmIYgBXALgVwHIA7gn3kpyzmLctRxcAHEAEQFj/MzZqI5lzBsYmkkHtBth8xth8Jjk+Zsut3FZ8zpcejfnanxnc8UQrVxVVbxvzO5OgIAiCICFBEMQkFxBuAJcD+AKAFdBiHyYknHMh5ussAVAJIAogAMCHhIvTKE/dOSZw+JwLTDhTkOwrbHlTbitcfcfvh9q2PR1seqdfbyPjITFBEARBQoIgiEksIuYD+DcAVwNwTfw35oISGigFMAhgCIBhHEeh3UgoZBwn9j7GhKWi3TPPM2XlJfa8qp8NbH9iC1djMQBxU1txajOCIAgSEgRBTB4BIevi4T8BzJ40L845U6OhQgClAPy6iBiCdjMhYpTXDJxzI7B6MuBgony5nFu1sGD5bT/z7nn+8Zi/06+LL0NQgMQEQRDEyAjUBARBTCAR4QbwVQC/m1QiQrN1GVdjWQByoAWQuwDYTkZETFYYE6ZIroLv5s6/8uv2otoKaDE0DmiucILeftSGBEEQSdCNBEEQE0VEZAP4NrR4CMdktIe5qtr0dw/pRrBEhvCo1YRbdObckV17QYEfwv+Ge/a16e0YhnY7QbETBEEQJCQIgpiAIsID4DsAvogJHFD90XBBFw5m8UACYvTIoiP7hqwZa2U1HvppdKClTW/LMDR3JxITBEEQJsi1iSCITBcRMoCvAPj85BYRQJJ4IAFxaoiiM/vqrNoLPi86ciqguYolu4lR2xIEQZCQIAhiAnATtLgIOzUFkSI9JsruguuyZ9XdCLAik5iQSUwQBEGQkCAIYgJQ86knlgH4DwDZ1BpEarWE4LDlVn3MU3P2GmhF/nJNYsLYO0lMEARBQoIgCCIDRUQOgG8CqKHWICzREqJc6Cydd5ucXT4dQJ4uWB1IBLETBEGQkCAIgshAbgJwMTUDYSWiI2uBe8rKSwEU6WLCYxIT5OJEEAQJCYIgiEyi5lNPTAHwOVBcBGE5TLDlVl1gL6qdCyAfCRcnCr4mCIKEBDUBQRAZyI0AFlIzEGOyUcqOUlf5wrVI3EpkYfitBEEQBAkJgiCIdKfmU0+UQ3NrIgOOGCMY5OyyZba8KTVI3Eq4QbcSBEGQkCAIgsgozgcwj5qBGDs4BNlZ7CietUgXEbnQbiWcoMBrgiAmMVTZmiCIjKHmk3+zAbgc2kmwBTCAsaPGY2bBUvlBzMLPt/b1uVX9JjBbbuV8QXa+p8ZCQwACAILQql7HQVWvCYIgIUEQBJHOxiKbCmClVZaoGhsKxf3dffFgr0+Nh6Lg4An7maWzkci4EovF/V1+3aA1Hn6yv5mr8V4A93A1nseVqFONhbJ4LJzDlZiHq4odUCUAjPN0GhZgTJBlwZGVLTpyCgXJ7kr9t3CI9uwKOaeiKtJ7cABaKlifLiaiABQSEQRBkJAgCIJIX5YAKE+1gODxcGSoffsB//5X9oe79w6okUBsBGP8pI3yMYbrxmxMN2zjJuN21L+7e8PPuwF8D1pmogIAlQCmACiF5tJjRyIuIL3UlOSQbTkVuc7yhbPt+VPnMtHmTGWXMUl223KrpkZ6Dx6G5trkAeAHENLbPd3HCEEQBAkJgiAmLcugVRZOmYhQwl7/4M4n3/U1PN/IlZhiMsgV3RiP4zRO+MdBSIShnZKHMPyknJ9UwyQ+M65/1pAuIKLQYgLSTkjweBiRvkN90YGmJlfl0oPuKSvrBNmZn7rhIjDJU1QJxjzg3KMLCSc0VzujrRmJCYIgSEgQBEGkETWf+psLwNxUigg1NhQe3P74Ju+eZw/rxp+KxIl+GEBEf2KnaJCPtZBQ9d8bAOA1iQn1JH+38VlRXZR4dRER0oVcWgoJo2O5qrBgy/vdYILXM3X1TUyUs1PVwqIju0iQXR41GnRBu7UxhISot4tCs5UgCBISBEEQ6WQlc57FtBiJlNndQ0c+aPA2/KMJidP8KLST9yA0lxXjZD+CzAioVZG4QfDrz6n47xs3EWFocQBM/2eHyWBOSxGhPwIAKdjyXrcttyrfXjDt2lQJH0F2ZIn2rCw1GnQkCQlJb2uCIAgSEgRBEGlGIYCcVNmbStjr9zW8uB9cMdyYIkicvg/oj08XFoaQSPcbCfOtStgkgk72NoWb2sSvv3sAidsIII1vJAwhAc7toc7df7flVqxkoq0qFU3MBMkmOLKy4O+06yLCgUTciHFTQ65NBEGQkCAIgkgj6zAX2glwSj4sOnikM9J30KsbfTHd6PYC6AbQA6AfiUDaU401GC9BYY7vMN+kjPbfBxI3NIaLk4T0dmlKFhIiAFuk94BfjZ/7gZgSIQGAiZIgO116e9h1IWHD8HoSJCYIgiAhQRAEkUa4kMJA65i3rZ8rsbjJYA7o4qFHFxMD+t8ZGZAyRUQAw28nTiXjlFlMGO5SDJlTwfnorQRXYn6uKjsAXJOSD2ZMZIIs6/unTX9kDK9wTSKCIAgSEgRBEGlkG0q6sZYCc5tDjQQiGB5T4NOFRJ/+pw+ZXWyMH+efT0WUqBkiIMxCgkG7aWJMkDp1UZSC8cMYY0zUP0vSRYQhLIQMayeCIAgSEgRBTA4lkUIbm3OuGCldjXiCgC4ejCJjYf1/O9mMR+koJE73MzLtlN34rSoAzkQ5nOLfn4jDSDzpHIROEARBQoIgiMmLVmSapf5jtRuHCBLZmpKzNKnU+hntqsOZIFrRh+ZYDPNNBLk3EQRBQiJTqDj/Jla8eB1z5pczcFUQZLvAJElQoxE1NuRT40M+7mvdp3a+/QwPtO6lhZ0gMtYc5Cl2GmGGy44RI2HUjIiaRAStGRNCADEr+tKcalZIEhM0bgiCOIZ5//wjll01RxBEmUEQBUG2iVBVxEMBJTLYpQ4c/FBtfPo3GXV4lRFC4oLfbmcQmIcJQg7AyhhjFQBKAJSCGSkhWTYAO8ANP1UtpSNHOH/uat/UCz/pBec9ADq5qnRzVW1TouHO6GC3t/3tJ4PNL/5BTdogMm4zqKtvsAEoAOeMqwo4VwHOwTln4Gn5KhzgnKuqwlVFUePRWCzoiw4e2BJtePA7ahq2bzaAGQAXuMoBpG27prVhFw8FDr9x5+qBkQ2+cTE0DTFhZDjKlOxMxKhN/pTfZLEkIZEciJ5xNxJ19Q0CgAIAMleM/UNN8f7B1aivv3/j1+uiaTL/T6Z9RL19JK4q4Gpq2kdVYoE3vrDSd3wRnJb7oIdzVc+czXU7Q2Wn94u56mve07f5h7fFMm1sHGOz3rvDxgQhG0ARY0IlgFL9KQGQC8ZyoCUPkXSblQOIeypmhPLnnTkw/Yov9AO8C5y3qarSweOxI1F/f5/30Hb/rvu+Fk83WzUthcS6+3aKYEI+Y2wGgDPA2AIAswBMAZAHIAtapozjrO/D/+tRdwjjD0GMAPCLsr1fdmc3117/1b0zrvnKLjUW3hke6D7U+e4zA43P3Rsb4QPTfUAvAfAAGHMwUeIZEPGnG3A8Ao4QgKA9u3DQXVYzULHm2m5wtHGuNnEl1h4PBTp8TbsH2t9+MtK95WU+Tn2zBMCDAHMzgZGReWrGV4xJ0ucAPA3NJYSP8Iy1kDDEhPnhaTbnM2kdmkzvz0beeDKS+QDqARQwUeQsRXkNkue/PVf8dwBP6gIsec6n89guBfAnADVMEFUmpKR9RIHbPzjrRy/d+fbXL+wyCdB0bpMvAvhnxgSFSSkLCRLAeZ+reMptAPZlSDskbNbf73LqgmEuGBYBbC6AWl04ZOuiQfjIpc2wVxN/pYiiFIRsG5Qc7hZnYcWBkuUXbVNj0e0Rb++Bjref6Gl87r5xt1XTRkisu3+3Tatay1YAWAtgKYCpeiekOoDNDsAOxgoZ2Eww1DFBVAVZHnQ7PY3Tr/rilmmX3bEh6uvb3LX5xZYDj/00ZDp54mk8qJ16mzkyzkZgSdOKiQDAGcQYJNkn2pwdhWec21i4YM02NR7bFhvy7RzYv7l91+++OjSGk8imn0i5SROcMvFYwJtjWliNYnDjkRnpeKlSR/0b6uobygHcoc09nvJfzoFIfMj3hze+uOpw0vqTFmtQXX3DIgA36YZAyhcGDt451NlU/843L/WeoP/STehkqqi4Tt93LW4p4WPlZ1+zoX3jE6HEYdLRNMPpazByLoGxSmgHmqlrDiZU2nMKjxQvvfC73VteCie1STraGwUAqi34XE+4rz1bt1+YqQ2MsZFWt3x19+/JBWPzAKwBcA6AuQDKcNxD7lMTmpoNzLLBUM2YeDYTRC5INr/ocDdNv+rOD6Zd9tmNEW/vu53vPdd86MlfhI8KszEcO+MqJOrqGwRwXgHGzgVwKYDVAMqRwlzxJ6WIwfIZY/kQhaWiKH3SUehsq677xDuV597wQrCz6e19D323zdu4M27aLNJrknNuxRX+eG/ONgCFuuhbAFG4QhSlsGhztJcuX7+teNH5r0UDAxu7Pnjh4IFHfzKEYwMdObVvWm3GiAx0ZkGrUg1oMQlhDM+QlNanT0mUAPgSNPfKlJuQDDyoREIbABzRNwfzrUk6GNRzAdwNQLBkbnC+N+rrewpaIDwb4f3TVUxkFHX1DVUArhqTRhLENcVL1p3VvvGJD5Conh7R57+SrvOfcxVa1t/U2x6i7Pj09Ku+cLh7y0t/QyL5QzQt10SL9kHOVRZoO5ALIB+JIpjG2DjZoppWzRMHgHkALgKwHsACbe0f07nPAGQzxhZClBaKovRxZ1FV69SLb99Udf6tLwQ7Dr6175EftfsO7xgzW1Uap86wAVgM4Bowdhm0KyA5zdYNG2NsGpPkaYIkX589df7+pV978LnwQNfTTf/4/Y72t/4WGkEh8/Gd3xxschi6DjBWw5hYI9qdVzltjvbqdbdtLD/r6r8PHtiyYfs9X+zBsafNp90/FmUNmnSE+zoKAVTqm2QQWjXp5OJp4zaNTmFT5Vb+mlBvm1s7lQL0DdUIBlfGfXO1WlyrquBr2p2lv786wvtnkuhMZ9YDmDM2QkIocJVMvY4JYgdXlSFo1eMDuljkpn5NLyGhqkiRO9MIjcKyXMXVd8286d969z/yw616WwT0/zWWrm2S4gYWhrqaSgAMIlEg1I9j3V7HfL7X1TfkATgfwA3QPGaK0ujgQDbZqtfl1Jyxb9ndf/hHuL/z703P37uz/e2/W26rSmPcGU4AZwL4uL5wFWfIELcxQZgv2p3zXCXVn5h967demnbx7Q83vXD/+20bHg9g/P28JzMCGKsUJPkmW1bulUVnrP3w3J+/83D/nnee2/m7r3ZguNvK6U2ilGcNmnxwcBbx9RVCuxoPQasezfXNMuM2TKvFO+echbqbC6D5Zyu6gTFkMrrG9VbUanGtKnEp0Hag2DQ+zCl6OSaDgWX1vnz/nhwAN46dPcBgzy1aW3jG2o09W189BM3V2OzKkqa3ktb+HEF2TCldcfGXe3e8+cP+PZuakHDpHsn1cgLqCFWMeHvKTOtbv2lvMCfBGEubtQjA5brNugKa+3ia26riAtHunO8qnfLx2bd95+Vpl332Ly2v/OndI68+ZJmtKoxRZ8h19Q1rANwH4HG9U4ozcKwzxoRS0eb4uKtkysOzbv73X678zuPn5tYudWN4QaJxqm462fULczJROsuWlfez4qUXPnz2j1+5tXrdbfkYXjAqObsKMbZDlMVD/jzdMC6CljzBDc2FTcy8frF4znFVCPV1lACo0tusEIBHN77EiT2OGbgSkyOD3RXQbrBKoLk9ePTxItBcTsmudjaAlWM5ZySHu7xkad25ep8WQLtxckLzTJikRf047LlFy6dffefHZXdOub42GnNdmthjnYFzVYiHAsXQ4gyKAOTqe4M81jZVXX1Ddl19w8cAPAHgNwDOzQARMZKtepuruPqh2uvu+s3q/3pqXdGSdVn6vpFSW1WwuDNYXX3DLAA/AfA3ALfqg2MiLL75ot11a1bVnIcW3fmr7y78l5/N0ye8jOEFisZu4lMqUgNZkOQznQXl90y/5kv3LP7KvSsYE5y68SGdat9wzslgSQFqLOqG5leapS/O5o0SGbVZWjznOOcsFhgo1g3pUt2QzkobIcEt/H4GqPG4HA/5ywAYKb/zoAXqZ6jwTC90N+MbdYN17BAEljNj8QpnUVWl3qdGZhs56cBn0qm67KnzLqq9/qsX6YcGuSMctIxnu1h5/SqosWi2/s7ZpveWxuqd9UPv8wA8BO3g+2ykNnh6PIZUnmh33uiumPHn+Z/+wU+XfvWB5fbcYkeSrXpagkKwsEM8AG6HlubtTl1hTrxpLwjFsjvn80WLzv/zWT944ZOlKy8p1Ade8oJIG97YTyCX5HBflz9n1QOr/uupT+TOWJwHLSNEuizKkxAOqIqsG8K2cRXeKXkbq8UlZ0oklKsbFfn6BmtsAkJa9KeVn64qohqLFujvb5zQOkwHAsTptfACAHXjIcAd+WVVJcsvmqOPacNwnPR9K0g2Z8myC6+vOv+WxSaRZRyECRl32DJaecIBrqp20x4tY/jBn9UiohLAdwH8FcBlyLjslx9lDgn5ktPzqbxZyx5a+e1H/3XG1V+qSpWtKljUIfN1NfcLaAFcE91YY4Ikz3EVV/949sf+3//Nv/1HS5A4aZVBV/DjvDDLNe7ymu8tuOOn3yhbdXkVtJMv6pvxMl04F0Y4CcnM9ueWfz7jStyhG1mTb03hqshVxaXPWfPtFYmI1Gxd10K76Rr7dVm2yUWLLjhDtDuN28lkkTg512TOIblzSqdc9MlbcqYvmoZE7awJLrI4AG7sCcmHS5atdXX1DWJdfcN6AI8C+Com6KH30RkvSlPseSXfqr7wE/ct+/ofL7TnlXiOIyjGR0jo10I36h1y00RTdKOQfE7ZnXNdyfKL7lvxzUeudxZV5mLkE3AyWsdejXscBaX/XHvD3f9Vee4Ntfqm5cSkv0of3275iP9OAOBcNWJ80iAOa1waQMbI1/A0Z09vv56CMUr5ejw8FTOmFy5YU60LZQ8ShzyTe03mHM7CyoW11/3rtbI7R6uGPDmEFhvLuV1X35AL4GsA/git/MBkOaCQRLvz3NwZS367/N/+/JXys66uQOLW66Tdv4UUdkgOgG8C+C3GKI1cuiLI9lnZ0+b/aMm//v4rRYvOK8exJ+BkNI3PGiXZc4uurrny8/+vdNXlM6Gd8rhArk5E+m+uk9N41uKS2KRuA+u4FMCs8TSWJafHU7LikgW6kWy+lZjEQdfGrGcsZ/qiC2Zc968XQHNrzDHtV3STfvo261QA9wD4T0zwW4jjDjFRLHYWVtw988av/XT2rd9alGSrjtomElLUIRUAfg7gG5gowdSn20GCmOsqrr5zzm3f+a/K826embRAktE6jl1jzy1eP+PqO+/Om7lsmr44p1MwG0EkW1yZF4RuragiTn/PzoOWE398jXXGkDtj8ezsafNLkLiVMN8UC5O5zwXZ5ixZvv66yvNuXoxEEPIkz26VkvG/FNotxK1IvxpmYz0HZdmTe1n52df88owv3rNekOQcJG4nRmUTCSnokFoA90JL6SrTEB3eQfa8kmunX/WF70295PYFoBPwtOkZZ2HFxTNv+rfbbVn5ZSQmiDQfrpSOjUg15wBYPv4amcOWU1hUuvLS2SYhYQ66ntzrMOeQjXiJmoXmeAknJnssyanbrGsBPABgDbVGAtHunF+4YM2Pl9x1/8227IJ8fR7aRzPOhNPskLnQgqovocF8fCvAlpV/3tT1n/5uzeWfW4KR05pR2429yBOzqmZdO+uWb1wOLSMMiQmCICaDIWWHlvLVlRZLsSAKBfPOXmDPLTJqhFD8WpKYcBVVLay97q5rJVd2MRIpYSdBfYmUj/2LdJt1AbXGCIJAspXlzlj8zUV3/vrTjvzSIowcl8NSJiTq6hvmAPgdtEIdxEcge3JXVNfd9p3qCz+xWBcTHhIT47yBSbKrYMGaW8vPvmYREqk1zSc9BEEQE41FAC5IK0O5uKqqeEldDY4fdD3JNyvGcmYsXlebiJdIt/oSmSAi1gH4FYAZ1BonGGqilJM9dd6dCz//i884CitKkbgBO26Mr3CKHTINwC+hFesgRi0m8pZMvfj2fys/66r50E7AJ0nVyjSFc8iunKqqC269XvbkViBR7IuujQmCmHCc/9vtDMB1AIrT6XcJNoe9eOmFCwRJzsaxQdckJmCKl1h74yKMHC9BNsTxbdYzdZt1OrXGqMSE21lYcYmnfMYMjKLyvHAKHVIErVL1BdTcJ489p3BFzZWf/3L+nFXTQVeU6aAm4KmYsap63W2rdCGRBzrpIQhiAiLa5GkArkjH35ZVPac2f87qCgy/laB1+OhWxSF7csumrP+nW7KnLRgpXoL2qZFt1rnQkgHNptYYjYpgiIcC/paX//R674437QBKkCgGOmJqZuEkO8QF4FsArqbWPnWcBRXn1N5w9+2OgvJyDL+izAAxwQCWoidNXlOQ7a6SZRfV2fNKjFuJbH0To8wYBEFMJCvhMqSjawfnkN3ZOaUrL52HkYOuaR3W28lVVLWw9vq7rpGcHoqX+GibtQTAjwEso9YYnYhQo5Fo6+uPvNP03L2d0OJHi5Dw1hhxPgon0SEMwKcAfCatJjVjYEw4+gw3VpP+Pn1+s5BVNevSWbd84xrGhCLTYpDewWWccyU6FFFCgbASCp7+ExmKqLFIjKuKagiUcekrzuEsrppdtvqKRbryNqvv5EnDLBFVxxVbGSQMR/WcsH8pOxFBWGVU3b+nAOmQ8vUEe3nerGXz3OUzjCBPI+ia6iYk2Q+5M5asq73urvNB8RInslkdAP4dWjKgdOm8YTYrkmzW8bZXuaKone8/v/3QU/cc5Fx1QTtUzUHicNU8xo4incR3nKN3inP8+0IAwMHjcUWJBCPRgDcYD3qHYkFvKB4JRnk8pjBBhGBzyLIr2yG7c1yyO8clubLcgmyXGBMYBwc4H8dXkOwFc1ffNO2Kf2k9/NQ9GwCo+sP1R00v44pBiQxFDj39643B9gNexkQGdvS36r/xJNJUMjBBsjHR5pRkT67dnlfichVX5zmLq/IdeSV5ktPjAhPYWPWRINsdRYvOW9Hyyp/2qNFwCMAQgDCAGAAFgMLj0UaVq/+rRsOe2JDfFQsOZseDvmwlEvKoSszOVUXUC2ilaIwIQt6sFTW2nMIca9qBYairscvXuKs9scgdM95S+cWMc1X1tzT0JY13EhEEYb0BuhbAkrT9fZzDnldSUrryklmHnvxFB7QTUDeAgL4WK/oz6RFkm6tkxcXX+5r3HGnb8Nj7AKIA4nr7cGonAMBNAG4fd1HFGBgYVDXO1Wg4Ggv6grGgdyge9IbiIX9YiUXjAIcg20XZmeWQPLlOmzvHLblz3KJstzFBHDN7tX/PO/sPPPqTHWo0bOgD83Pcui6jEhJ19Q1lAP4DQMV4dgYAqNFwLNzX0e9r2dPhPbity9/SMBjqbRuK+vqiqhJTwLnZGAcTREiuLMmRX+bwVMzIypm+qCRn2oIKV8nUEsmV5QZjbHwEBYfocBdUrLn2Y/0N77YP7t9sLJLG74+mlXHFAK4qqq9pZ//A3vd79b9VTA8/xd/LTVJdkD05cvbU+blFZ6ytKph3Vq2zuKqMiZI4Fn3kLps+M3/W8im9O9/yAwjqjyEm1Nc+t/QggP/WN7ciAJUAqqH5EOYknZylYLNwiMu/8ecce25RDrfi/Rnga9rTsfPeu98z9YU6gpGf2oGvfXZMH+OxpHFPgoIgUkzd/XscumHlTOffyURJLDrj3IUtLz24LRb0eqHdSvj0g50Y0u6AbfxEl+zJLZt68adv8bc0dPuado20lqqTtZ3q6hsWQjv4do+XwcQYg6rElKi31+dv3d/pO7yjy9u4s2+ouyUYGewOq9GQwlXVvO9xxgSIdqdozy+zu8umeXJqzijKqVlY7i6rKZU9eTlMlATNFkpxtzIGX9Puln0Pf/+DqL8/ahKjcX2fjujjKz76SX2ZAAAgAElEQVTSuJJG0SEigH+BdiMxPgKCcx719we8B7e1dG1+qbG/YVNvZLA7ZBINhuGjJP3JuarwWGCQxwKD8Lc0oGPTM/slp8eWM31Rfsmyi6bnz109y5FfVsxEURxzQcE5HPklc6df8S9Xbv3ZZx9U41HFdKpgGFvpumgqpgEWPd4AG71JCwCcxQKDrG/Xxp6+XRsPOwsrt1Sed9OsstWXr7TnFhdb3ReyKyunYMGaWb0732rWhYHPJCaUpE3MeP+Q/v8RkHBNS9HQZyITpLilvZ+QPKreh8ZicTr9ORohEdHbLaT/swK6nSAIq+b5EgBr099ABlyl06YULb5gavvGJ3qRCLoO6OutQutDYs9yFVefUXv9V6/Z/ssv1MfDgZhp/eZpbj9YKSLcAL4OYOZ42axKeCjiP7K3rWfrq4d7tr/ROdTVEuRKLI7hHifJ9qrKucrj4SCPtx9EsP0gure8fFCQ7bKnsja7aNH5VYULzpnlLq+pEu0uh9arPCW/N9R9pGf/Iz98N9jZGDCNnRAAv24HGYerkZHm4GhuJM7EeMVFMIZYYDDYt/vtA62v/3X/4MEPB7gSV0wdETcZP7HjGEKGMWT4DYrxUEA0jFV3+fQPKs+9cU7x0rqljvzSUl25jOFLCixn+qILqtZ9bFfzC/Uh07uYB1kaLQbMbEQHRhhg6mmYswyJ6zMp1NsqH3jsf9r7dr+zr/b6uy7Mrp4zX3MgtOjNBJHl1CycIcj299VYJADtat18GsZNIsIwhAf0f31IFxKp808VmCjItrC1Hc+MsRXX32lIfyKmOWSFkIjq7efVv4+MBIKwxrASAFwPLXAy7ZWEaHc5S5avX9DxzlP7uKoY7k0O3bAxr8MEY0Ju7eK6Gdf9a9PeP//Xcxh+qJeG9sOYcA3GIyGQFqgc8x7e3tz25mMNPdtf74qHAtEk4ZBss5rt1WTPDgZAUGMR0de4q9fXuKul5aUHtxUtvqCy/KyrFmVPnT9TdLhcp3UAzhiivn7/wSd/vmlg3wf9SHjDGCJiAECf/qffZBeMXkjU1TdkA/gKNNeNMe0QHo8pg4e2NTX/4/7tvbs29nAlbp4YRgdEoJ0Wh03/HMVwf0GzkBB0Q1XSjT5bsP1Q376/fL+1871nd0y79I7V+XNXrxAdLvfY3U5wiA5XTsXZ11ze9cELTeG+9pips9LL35EdXZAUva39pkEWROLqmZ/SJ2v9Y+4jGwBH/553enfd190x79PfvzZn2vzVVkUicXA4CyvKPOUzCn3Nuwcw3Ec3Ynq3uP7+Xv1fDWF41ozU6AhRlkSbMzQGe4AhyocADOpP4HinDyn8vrDpxMOq7yKIyc4MAJdn0g/OnjpvVu7MpWUDe9831mGvvsdE9fWD0Vqh7xOy3VW68pIb/C0NrW0bHjO7oJjth0nRXnX1DdUAvoyxd+HjQ51NPUdee3hb+8YnWuKhQAzHugdFk2zVCIZ7dJgF4NGDb7O9Ggt67e0bn+jq2vzC3tKVl02vXHvjmVmVM2cySZZP2mbVbk7CzS/Uv9f57rPtSbaND0A/gB4AvbpNMGSaf8PE/EfdSFwCYP1Yi4iYfyDQtuHxrU0v3L8/Fhg0+2sZRrYRDDukLy5D+t+FjiMkYDJUh3WMftLh8h7e0b/jd3e1Vq+7bV/1BbdeYs8rrR6zecc5XCVT5k+58BOr9/3lB4OmwRXDsS4143wAMsytxziR704yBk9HqhhiQtYfOwBnsP1g376//OAPC/75xy5nYdUiS5qCc0iu7KysKXNLfM2723QR4TKJhJhJzIb0fyumG8MpL2An2JyyaHeGLO51c8yCISS69T/NJ4BWfWdY/54wCQmCsITLAdSkeiMI97b1iQ63Q/bkpvbgjXPYPHl5pSsvnTuw9/1mJFLB+vV1Ik5dOry99HiJm5PiJczuqeokaY2PA1g8lgaRGovG+3a9tffgEz/fHmjd79P/F8NeNcRDsr06ZBITI8W3IElISLod4gDgUMJDrrY3H+3t3f7G/inr/2lJ2arLzrNlF5aezPbJ4zGlfeMTW5tf+sPhJBFh3EQYImIAiYQHJxcjUVffUAjgs2Oq7BjDUFdz98EnfvZu1wcvtEOLMFVNAsLoCL/pCZiERAQj30aYXZuSxYRdf0eXGg17mp6/ry/QdqCl9vqvXu8przlDTxFl/atLsly0+Pzz2t762+5A6/6w6X3iJuM1XYws84lyQD8tGkyBMciSxIS5j1zeg1sH2jf+/YGpl9z+bdHmsOSaXpBstqyqWSX6hDWEhDl3sjm43HDREWFBFWx7TqFNkO0RK7udDe/PiN6fg/oCEoR1rgTc1JbHu9olCOI00AvIXpfqtYkritr+9lO7sqfNKy5auHYOT/WUFQSWP2fVfGdR1fuhniNG0LUTFHR9XDHhKq5eVHv9XVdv/+UXHoiHg2YX6UkRL1FX3zAbwCcwVlmatMJtodbXH9ly+Jnf7FW0Nje7CRvxkwEk4gwCGB4bmCwikl3xj7mV0O0RFwBXZLB7YP8jP+weaHh3f82Vn78kq3ruYiaI0kd2M+e8Z9vrew4+8bPderiAYrLnBvT9vxfarYRf/73HdXU+0Y3EpQBWj90wYPA37zmy96HvvjN44MN+/S+NK6GQqTMGdcPV6BizshspNoKfwFAVR+icrN7tb/iivr6eOR//j1uzq+ecY6VfvnkhcOSXT6s49/pl+x76Xg8SNyxmMZEG15MsOVjIfEuUHJR8CjbtsAlkFn0BAK6m5+97q2T5+uc9FTM+bs3aIMBZWFkAMAfAHSYhYS5Ox00LdBwW5e3Oqp5tEyR5rE7f1KT5ZiyAp+quNloxwZPmKhkGBJE6zkeqT2gZQ8TbM9j53rMtkcHuofw5q2sFSZZSuzJwOArKykqWr69tev6+LhzrZkqpYEfYvHJrl1yoxUv89/OYfPESt2Csii1q8buBxmd/u6nl5T8d1mphHbWHwvr+6UPikNUcsGzYdckuaMniONkWknDsAbgHgKdn+xveQNuBttobvnZh0cJz1wt2h+e4t4SMYfDAh437Hvnhh7oLlhHzaXgk9EG7jejTf3foo8S7cBxllwvgNt3AHpNO8TXvatld/823dBHBTR1i+OF3AWgD0Kr/2Q7NBaNPf3lzJyVfGRmPkWUobDKW/KbG6wbQAaDd17hz754HvvW7QNuB18dq4jFRFAvnr1nlLKosg1ZkJrnCcjoVmjGLiZFOlk/2iZv+NPeV4cbmBzCgxqOdgwe3PsmVeI9VL2bPLcqRHC4HEleJdgwvFmgOuh4peCoVTzR/7pkxxgQ+Rn2ZLA7NcyZqwfuNlB2KRARBpIi6+j0uADfr61dK8R7ceiTYcTjYu/PNznB/R68VF/eCZJOLF1+wUHS4cpBwb3Km6X6YFhjxEhVrrlsIrbBqdlKbYSK2WV19Qw20hAJjIyKC3uDhp371dvOLDx4yiQhzAhbDljTbq526gT6gG+iGN40R55u815rt1bDJXvUiEb/QoX9+W6i37dCu++5+pHXDow/Eh/w9I4aSMoZg+6GOfX/5wbvhvvYhHOvWbBYR5kQoJ9yjjzf7zwGwaqw6Jdh2sKPhj//5tr+lwYvhqae80K5XOpM6o9vUGYZ4iCYpPPUEj9kANPuwmQNMOv0tDfv3/eX7vwn1tr4zNqY5h7OwfErZqsvnIVFR0FxhOV0XAJ6iJ7mGQfKtxxCAQMc7T21VouGt1rwIh+TO9ogOtx2JmyoHEhUdzS5MPMXvP+xxFVeNh3HNk4Qit/gBiQiCsGRzXYaUp23XUlt2bXmpCYAa7uvwD+7fcsiS5CQccFfMqClccE6VLiKycILquoRmQ8juvPKpF3/65qzqOVP0A8ksDHfPnYhcDmDWWNirSiQUaX7xgfdaXv1zk14lzuwW1G8SEW36n10mwzz5RkIZhb2qJtmrxgFrwGT8dwHoUGPR1n0Pf/+55pce/HUsMNg2bIowhshA18CBx/5nk69pl9nWHtJ/myEiejFyNsXjTvJjBtW6+3fLAK7FWBTyYAyRge7B/Y/9zyZf487BEUREny4cOkwCwvDZGkrqDPUUDJ/kTFBRk6AYANDb3/De3qZ/3H9PLOjdOxbrFpNscuHCcxeLdme+LiSMxXOyncIk95Uh/iKDB7b0qrGIZeJOlB02W1a+4c5k0x85afOyVEQAgGh383Fse4zRe5KAIIgUs+73u0QAN0A7lU7hls0w1NnY1b97U6+xX3dvfbVBCQf9qd+WOCSHx1264pIF+oGacSuR7GpKJLWbq2TK4pk33H215HAX62Ii+UBywtgQdfUNedBSvlr+TlxR1M53n93R/I/6g3ods+OJiPYRBERyUbeTtVlVHJsJyhyn2msIisNP3fNqy8t//EV8yHtEq/XLEB/yBxufu/ftnm2vdyTZ2sYBuhEXMVLWxhPu08KxC4UwC8B5Y3BaAiUSija/9IfNvdvf6B7hxQyV1an/2WvqkDCGBxKdjkEyorGKRI77gdbXH9nas/2NX6vx6MBYTAx3ec30/DmrqnURka0vnul+KzEWouJokLcaj+0E5yFrxJwsSa4sO4bH0CRnZaLTMIIg0hImiDOhZV1MKaoa570732qMBQeNdNixgb3vNYd6Ww9asiIyIGf6ojnZ0xaUmMSE+VYi5UkuJsYAYELuzKUXTr/2y2t1MZmj2xHmA7GJ0m4rACwZgzaF9/D2pkNP/mKXXjzYcGcyApR7dHu1M8kgD+PYLFqna6+abyoMu9mcKKX78NO/fqN1w2O/UCLBTh6PRds3Pvl662t/2YvhsZDmDE2G25UhIkZdlHYkRb8WQOVY2Ia9OzfsPfLqQ40YXuTLb1J2XUkvF0qhgPgoQWGu7De47+HvvTzU3fIYrD5B5RySMyur8Iy1s/RF01yQZyJfTZ7UJOJKrEXvGys2YVG0OY0FVzI9E20BJghiYnIlgKmpNqSivj5v95aX25A4+IvEQ4G+wUPb3oGqpj4xBOew5RQUlK26bA4S7k2T/WBtVAiy3V228rIbys++ZiESMZfJ8RITgYt1W8lSERH19fsan/nt1oi3J4zhRVUHdTu1CwmvGaOQreEaZEUcYHJsoyEOjt4wHHj0f17r/vDVX/XufOvxQ0/98g3OVSMcIGiytc1pXs0plkedZGXYYFp3/24ngIssn5yMIdTb1tv4zO92qbFIPEnZGZ3Srf85eByFZJVBn3z6HQEQjA/5+9o2PPbHeDi4cwyOk5A7fdFMW1Z+nr5wjuQbOlkXUA6Ac877kKjlkNJPZ0xgTBTNKWglk4ij63SCINKWuvv3lEJzT075HuE9vOOI/0iDD8ODNAM9H766SYmEmq3YlpggCgXzzppvzyvJQ+JWwjCI6XDnBCJM9uRVTL3k9luyqmYfL14io9ttnTbW11r+RarKuze/2NC7c0MPRvaeMU70zelSkw+9LbWJMLxUgiFw+vb84dvP7rz37gfjQ/52/fcNIFGx2vy7R8rQNDrROmzCgk0FsMjy8a3ElY5NT+/yt+zxJi1Ihp+XOWrcqGYZx9j6VBvfdfQaqOWlB/cPdTX/EZxHrf5qR0F5afa0BaX66YtxnWu420x6Y1aQ7YZ/oAVCDgATBAxPE2y+RqdNiyCI9ISxCwAsTLktFQlHu7e83MRV1XDrMGIKA707NxyO+vs2WFUo1FlUVVmy9MLp+j5I++FJ2BLukqmLa2+4+2rR7kqOl8h4EcaABbA65StjCPW09rS88qf9GO49Y8RFJMcWmE/0MUY2a7JHjTE3vWos0qeEg0acsRH8bTzdGJ6hyZzufdS/W0hqsOUASq3tFAHBjsautjcfbdL/xghW8ZtUUj9OMmp8rMREx9t/f06JhrZYfZIgOdzuvFnLq5HIFWy+zp30fqGCJFs3HjgArhpFYQTTZkX+uARBpC119Q1uADchxanbGRMw1N3c3bdro5F22yhIatSb8QbaD/2Dc3XQkvXeZrcXL61bKMj2bBx7K0EHPCe2uYS8mcsumnHtl88FYCRxmRgeDoydDasTA6kK7/7w5f3BjsMBJFyajIPvfiRKEIyl58xH2azmmhaGq1MXTOli9X82vH4MEXFKtvZRIXHerz5g0FK+Spa+pRJTu7e8uD/c3xkyKScjsDmdRMSIHdPyyp/aIt7exwBubaEwQWTZU+dVMSa49Env0hdOGy2cgCDZRDBmT/3CBHBVUdVYRDUJCUYbFUEQGcBKAGtSvgmqCu/dtbEp6uuLYLg/tuFrHep45+ktPB770KoXy6qaNb1g3pmVSNzSO0GpYEdlwgg2u7ts1eU3lJ919QIcP14io9pw3f173NACra0UKggPdA+0b3q6GYlDZfPBdz9Gvong49rhw12djN9rFhMd0G4jBpHIKHXKXj9HhYRoc2YDOMPqTokMdA10vvf8kaROMWIjBjDcnWm8RYS5Y45W/h3cv+VlVYkfsvornYUVxfb8UmPCm9PeTfqFU5BtWXq7pL7l1biiRELKcHkxTEjQpkUQRFpRV98gArgR2olzSvftqL/f373lpSNIBHYereuj79fhrg/+0RMPBZ7FSfpXj25R5pBc2TklKy6Zj0QSEg8mSBISrsTiXFWsq9StxUtUTr30M0a8hBF/mcHtx0swBrUjBg9+2BI4ss+PY2MjBnBsZiY1nRrIZLcadvYANDes5FuU07K1jw4eJgiVSHWWh5E65cDWlmDH4SCGx0b49JfyJqmj8VZ2yagA1N0PfKtJjUZet3oIyFn5OZ7y6XlIlEN3grJVaONVlMpg0ZWmGo/FY0Hv8W6cSERMoGFETUBMIOYAWG/FNPE17Wr1Ne7ymYwps1vT0ZpOwc6mV7mqNlszWxnyZi6d66moLcKxqWAz95aeMYT6OvoH9n1wyFp7h8NdMnVJ7Q13XyXanUXQbiaSM2BlTPsxsFoAJVZ+hxIJRXu2vd4ygkHu1R8jsPojqz+ngZgwi3/zvD1tW9usQqcCKLDUCo+Go707N7Ri5HoNXiRSvMbTTNnB1MgKuBqOBb2vWlXHwPg60eawu8un5ycJieSaBpPSGNIXkSwLPhdKNByLBQajI7QtFVAbf8OfHfNf2Sk8x04d6tdJJxzZqT0sbZfcqwBUW7Bvx7o/fKVRPzEf8TbCMKT2Pfy9Q2o8as0hG+ew5xYXl668dBaODbrO2FsJBgY1Fo0ffvrX2wJtBzosHV9avMT6Gdd8ZS20eIlcJAreZlq8RK3+2y0TeJGBrsHB/Zv7kwR0ANrht1EYOZ28Z45nu5rjJqL6c0qB1SNhjoeYoU9I6zplsMc7eGBLHxJuTaGkThnLlFmnIybUUG/rNkd+aQtj4izr5rwouktrCvRJbod2DZkccD3pDKBzf75JBGMrrfr8WGAwqERD5jGYrNbJ6ByX2cd94HwX56oTXBG5ErdxNS5DVWTOVQHgwkl8FlcjvpCpf839mo7rjuFSopgOYuKmtXK8zCA1M8YOBgG+C+A2zlVJGzOKDaoqcW3cCOCjbkauxsMRpFGV9rr6hnJo1X1TvG0LCPUc6endscFcNDZZSBw91fS3NIRjQe8zomy/EYyl/MaYiZJYuPDchc0vPbgtFhjw6mJipLSVGbVGM8ZYsP2g//BTv3pvzsf/Y52clZd1EuPxpCaCYLO7y1ZfdoOveU9rxzt/jyCRFdNcOTkTGs1StyYGhkD7wa5wf1cYx9YW8+PY2IL0XgE/+p9TICQYm251pwQ7G3vD/Z3mYh6GkEi+Zkn7RaB7y8sduTOW7GKChUKCCbDnl+ZAu4U4npCYdMjurCoAZ1r1+ZHBbr8pRiK5kiSJiHEi1Ln7AyYIl0d6Dngi/Y0FSrCvQo0NVXIlVsy5mgXObScxL7ga8UeSjPO0618mCELhgjXVrqIqu2B3DsmurKm27MLZjvyyPltOYUByZkUF2aYyJozD7+YqGM7OhHUo6j3yGrh6aczb4YkHewqVSKCCxyOVXFWKADULfFj2n49+8dhQ2CToksfOeIyhCwHMT712V9G3552myGB3sjFliAjDrcNoAwzu3/J+ybILdzBRWm2FOeQqnTqleMkFU9s2PN6DRI2lZF/vzIOJrGvzi23Z0xa8P+XCT5zDREm26EAGsie/ctqln7nZf6ShO3Bkn3E6bR7Hab3Xnfvzd2RY7IqvqnHub9rdA/AT3cSl88H3icRESpEAYM1P35AAlFu75Sg80Lq/13Q9Gk1akJIj3nk6d8aRVx8K1V7/1Z2AfK2VX2bz5Hkkp8ceDwVkXVDYMMkDrpkgrgdgifDlXEWo54jXJBxU0wJLQmIc6XzpP6PQAsWMmwRDXAv6emIIiVHvFfrmEBphU0gT20ISy1ZdvizpVIan0dTPBFcINrD1rxF97Bi1ZxymsRM5hbGjmMZOJMkQG1MxUXf/nixoQdapNTwZQ8w/EOjaPGKQdfA4+zbb+bu7egoXfvAPyelJvZAAh2h3OkqWXbSwfeMTe7mqGrES5oq8memCyrTbgMbn7t2WPWVudv7c1cutNGPcpdOWzLz+q1dt/9Wdf1QiodgIYgLp2o6Sw50FoMjKzlCjkaj/yN5BHBtjEETi4DtzhWsKEQBAdue6ARRaqu6UWDzQtn8Qwwt6DOmPcaoRz6BOUbkS36v/ZoumOofkznaLdpesbxKGkJi0MRJ19Q0VAD6lC6nUd2osGvMf2TeI4X6FStIGRWJi/ES84c5nuEaa68/0nsRjVPQ0Uk6nr2slY2zYA2YuljjeD8uQcWMWj+YkH/2nOHaMzCcDSWNn7A8bGFsFC25oGRh8zXtafYe3e3Gsj7jhRZC8b3MASri/40XO1Q6rXjl76ryZebNWlOPYVLCZvC+qAJT4kC9w8ImfvRjuaz9gcbyEmDdr+cUzrv6SUV/CiJdI+/oSTBCz9N9s2fFIPBwMh3pag6b9JmKyVyPIrNsIa4WdfvDgQKpTxiWdbCjRcDTUfcScrcm4kRgpcjwjroi4qrQCPACwXKu+SLQ57aLNYdxAGLcRk/JGoq6+QQLwOQDLrBqn8SHfUODIPq/+N8m+6HT6kB6brZE9w6evYVFop8viSRi35mwWRjo/P50yTWgRmjx2RL2/jRSY7BTGjlGYalzGTt39eyRoBeiyU/3ZSiwS79n6apMajxnrn1GIy8jWFD6eeGp55c97Z9/yjY1Mtl+f+p7kkN25uaWrLp3b3/BuExIFWw1BF8/E8clMAbHewzs6j7z28F9rrvj8Z0W7q9CaIcUh2Bzu0tVX3OBr2dPa8c7TmRMvwY4G21v08ZotoCddMWzWiD7mjeQCtE+YhQSYYLeyUwBACQcjscBgBMOvicL6nxnZKVxV+sHhA4NlQkKQJElyZRvl7CVdREhJQmLCB13X1TcwADcD+Dwsys7BwBDqbesf6moKmhbRuL6IZJLQnQxCIqSP+7huQJyMj7vZIDT7fQeRvlnjiNSIiZhp7MR0QXE6Y8dcmG3sRShj82BBylfGBIR72/p6tr/eieE1nwwf8SEMdyWC6U/W9uajwRlX3/mMTbZdAVhQOFQQWP7slfNdJVPfH+pqMoKunUhU6M3IoGuT0RpueqF+c96s5Q8XzF9zBxMEaxLhcA5bVn7VtEvvuNnf3NATaDuQKfESTliasQmIhwKRWMgfO47NGge5Oiemo7ZoMBkWFfcyDDQlGo7GQ4G4aVGKmkREGmQfOYU5qChG+i8Le0gURIfLcGUSTSJi0rg26TcRtwL4MWCdaONchbdxR4cSDcdNi4c5VZqCNPcdnSTGoDmfdz+0Cp1Gtc520z+f6DH+f536vz+gf166p/IjTs9IUzC80mu3PgY6TuIxj50efewkC4mxGjvXwIL4Rs5V9O99rync1xFCIjmKMecMwX081w4OgPtbGjZyVd1nlQHsyC8rK1mxvhbabUQWhtdEEDJ0bUsIVM4D+x7+/t/DfW3PW/217tKpS2tvuPtK0eYsxvD6Eunq4uSERe7NRxeLaDiqRsPKcWyBeAaLVWuEhMlAtW6oxqNxJRoyG2ixTDfQOFcNXzkLD5wYE0TZEA7SCEJioouIEgD/D8AvAJRa2NCIh4Ohvl1vd2D4bUSykKBTiPHdaJPFhOHr7oVW1HJQN+w+6jH+v4ZbSnIhTGJijp2jJ756n/tOctyMNHbMgZdjNnbq6vdUQasdkfK1MDbkC3Z98EJLkhFluDSd0K3J4MP//UybGo28ZNmSLclS0aLzFkpOTw4SBeqcGH7DlEF7JDOLiTiA6FB3S2/TCw/8Nj7k32rtV4ti/uwVF0+/+s5zoFW9zkE6x0toGfos/T1qPGbYpWablbwTRkDSDWLGrFTwDOCqyrmqmLPgZH6nqKrhN2+tlBDF5ADHdLmRsKS/zvvNh0yU7SVMEC4C8M8AVlp9+sDAMNTZ2D148MMBHHtrZhiY5BOZXmLCEHxmF7/T+TyAbpxo7GTM2GHrAcy1Yi30t+xtHzy41VgLza5/xm3Eidy4jL+LR3y9z7nsVf8ExvKt6E1P2fRphWesndL57rN9SBSoy/RUsNwkeCOtr/9lf97MZf9XvLTuJ4Ikl1j1lYLN4Sk784obfM17WjvffSY6gn2WPvESjFkbI8oBrhXyMNfwMcdL0mFTspAAHwMj/miykWGdkrb520eDIMkMzGpDnnOuKEa2mnQUEafcbzk1C9nMG78uOIurJcnpcQiSXArGahnYOWBsnb5J2sfiZVQ1rvbu2NAYH/JHTeMzbNo0Kbgq/QzCVAta6lsaOxkxdurqG3IA3AALPAnUeFTp2fZaoxqLmIOsDSERwElkN+ve/NLO6gs/8b4gyeut6ErR4XGXLl8/v/PdZ/cj4d7kRKangtUw2j68676731pR+ti9WdWz72ZMcFhkasCWVVBdc9kdN/tbGnqC7QdHjJfg4NabPR/9W63N8MkAQZREjFwMlG4jRhQS4Ib6tWzpFkRZFGSboISD5uJeGd0pot1pA5hs8YThqhLjiUQbSjEAACAASURBVOF9zDNWExeCbJenXXrH4qoLbpkhyI6w5HD7ZXe2T3Ln+CWHOyxItjiYwBljo+1LWT9BKgJjZQDKAJSMlXgwi9xIX+dA53vPH8Hw9MRh00PBVelvFBLEZBk7ZwFYlfq1UEC4v6O/Z+trhounEWRqiIjRFo7lANiBx386WHHOdc8Intw6WHGrzICcmjPm5NScUeo9vH1QFxNe/fcaGXcyLRmJOc24AiDKVTW+96HvPnzG5/5vtj2v5Horv9pdVrNs5o13X7n9njv/pMYiyfUlEkm4x5eY1X0qyA6JiZLAlfhIRWlp70kWEpyrxmJh2awQZLssOdxizD8wYSoFM0l2wcIgdU3iqapeZXn8RIQxsSSbnD/vzDnaqsyHiYzMNilU3rP9jQPBjkMBDPehHjJtnDFaRAiCGG/q6htkaAXoUp9pkXMM7PugOdRzZMi0FibfRkRHuRZyABjqano927WwkQnCDCt+r5ydX1C66rI53sPbj2B4KljjACiTMfzzuffg1p7WN/76yynr/2mG5PQsts6wEcT82SsvnnHNl5r3//XHL2J4Qpyolql2nLdszkPMSlcrDkgOl01yesRYYDBZ3NH+n2wbAgBXlIhWD8G6XhEdLrvszpWP0xkZ2TFMEHP0ExDrVhElpsSHfLG0eWmugnNVEw/Gk8kwhlBve1/rG48exMgpHZPrnBAEQYwnCwDUWbEWxkP+oa4PXmzGsdV8k7M1jfoQcOe9dzep8eirFu7DrGDemfMd+aX5ODboOq0Lq320OTssXiJ6+Jnf7OtvePd/1Xisy8qvFWyOrLIzr7yxdOWl86AFX2frbSpxVR3/tuTcqEFmUQtwSM4sp+zOkUg8jFJIqPFoGBw+K6eDaHfZ7Xklhm9f8sTOzOxDjBXDgkJAw4RENBzVbyRAg9mCoRmPKx3vPLUr0LrPj5FP4IzqrRQfQRBEOnAdNDfQ1G5nYAi07u8Y2L+5H8MzoxlB1ua1cDSHKhwAD/W0RmKBgWfBud8ioxLOosrK4mUXTUei0rUbw4tUZvQ2BVO8xI7ffOWNYPuh+zhXrcsYqcdLTLv8s7d4KmZUQUsJmwXAwVVFHPcGUeMhaw+/Acnlcdlzi5Nt1kmRcv+UhESwsykIoM9ShSvJsqeiNiepMzI6hSkDmw4L/fkZGGJBX8gkJMynFGTUnr4QhLdxR/ORVx86PMLG6cPJX+UTBEFYRl19wxQAV1rx2aoSU3q2v96oRIZiGDnI2kj5etK1Mvob3tusqsp2ywwZ2W4rXrJuoSDbs5EIunYgY1PBHl9McCUe2P/IDx+ODvY+Y/VXustqltVef/eVgmwv0sWEm8dj4y4klGjYD44BK4WUYHPYPJWzcky2qoBJVL/rpIXE5h/cGuPgHZbabKIkeCprC3BsCtPM7RiGBZb+bgZE/f3BeDhozmdMvnopEhGRwR7v4ad//WHU329UXI9CO3XzJwkJc6VUgiCI8eISALMsWQ8Huga7P3ylHccPsk6uZD1qdt//771qJPSclQ2TVTlresH8syqRKFDnwvCiapksIgBTTY/+ve91t2547JfxcHCbtdukKObPWXnx9KvvXAPNxSlXjUXkcW4PFmg7GADQa6lxLNmkrOrZhRPKZrVSSADgUHmTtTY3g6d8RonsybXh+FWaM4a6+/fkAmyBpasH54gMdgfAVSXpVCLjA9XHW0QokVC05ZU/be7btbEXw3OlB6Bl/fAhkfmD3JoIghjfPae+IQ9ayldLToQH9m9pHupsOl6QdbKL52jXw6N+/qG+9pc4V1st2iwhubKyS1deOh/D3ZvMla4zXUwMqy9x+Kl79vY3vPd/ajzWbeXXCjZHVvlZV92kx0vkKtGwfbybcuvPPxvj4C1W26xZVbNKRIfbZrJXpQkgTC0TEuBcOQgLMxxwcDjyywqyp8zL1TtCRiIYKhMV3nRLTobMbabE1aGORq/pNMKcy5huJU5xeeBKXOnc9My2lpcePIThLk0BJKrW+vTNk7I1EQSRDqwBsNyKg5V4KBDu2vxis2l/MW5njSDr006B3fT8fft5PPaWdUs7Q27tkrlZ1XOKkQi6NldnxgQwAIfFS+z87VdeC3Ycvo9zHrXuG/V4icvuuMldVlOlREOO8W5FNRJSofL91jY0h7Owsii7ek6OSUgYNiuJCRNHi9nweLwZktwPsGLLTgycHnfBgjWVfbvfPmwSEnJSp2RGzmeGswEUWvkFaiwaC7Qf9OLERVGIkxERqqJ2b3l514HH/2enGosYheeMK3wvgAFdSBjVUePUzulDXf1eFgsH4G3ahaHORkQGexnUU/E64/A37uJ9uzcmb9LEBGXt2vNYPB6Hz+dDKBRCNBplp5YUn2NwcJB7vd4xGzvr7t9jB3ATtFP2FK+KDMH2Q50De9/rQ+J21ogVS64dcWqTDUDne88Nzbzp68/YcwqvBljqi6pxDntOUVHpyktm+1sa2pGIlTBSwQpIp+rMpy4kYIgJNRYN7n/0xw/N//QP5thzi6+x8mvd5dNX1N7wtSuUaNiVFg2hxg8yUQxDi4WxxGaV3dlZhQvPrRzYv7lJF6Q2HHsAPun3jaNCIurvb3HaK9rAUGzVlzFBRP6cldNtWXmbo/4BG7RrRxuGXz2mfaesu2+XB2DrYXV8RGAgEOxsDGDkMu10Sn5S7andRHR/+MruvQ/995ZY0Bc1newEdfHQrz9eJK7yqZ3TRkQ0LAD452WHWy6cvQKYvcLolVOZh1yJhf/42meXbNDXHp60/vB0GrssTQ+/ODIjBfTateetBPBpSZLE/Pz8pJX2pFEVRfntW29t2KwbFJaPHcZwBoDzrWgbVYmrvTvebIyHAjEwpgKIMbAwGIbAhCEmCBFBdii2rHzurpzJPOW1YKI0+nbjHEO9R1jn208yX+OuTYUL1jQwUbKkDgITJbFwwZoFzS/+4cOor8+LRKXr5Fi3TF7PDXsgDiDSv/ud7rYNj/+i+sJPzJAc7oXWLUNavIQSGRoc5znPAUCJhA4Kkq0XjFVaZ7NKLH/emTPkf/z+w1jQa9NFS7K73KQXE0eFRF/Du4MVZ1+9izHRskInnHO4SqaWFy46v7L9rb91653iwLG3Eultk4rCEgArLP0OMIR72/rDfe1hJNxvjCqTRnGY9DN60lREqNFwtOPdZ7cfePQnO2JBryEQzCKiD1rw1gAStxF085NeVAH4pLaQs1M3A48eaMW2ANikrz1q0pMWmwPnKg91H+mJh4JhxhhLq/nOOWRPnttRUFaQAWNnBoBPmfe807K9FeVVADvGbuyw6wCUWNKNqqLmzz2zOnvq/EImiCqTpKgoO4ZEhzsgu7ICosMdEm2OKBMlBYzxUxG1HMD8T/0346oigDG3dWMScBZPqS5evK6m9c2/9iARdB00rekTZT034iWEQ3//ZUNW9Zz/LZh/9k8ESS6yqnFFmyNbtDmy0+HlI96eDsmdfYjBOiHBOYe7bFpl0eILKto3PtFlEhIZZbOOmZBo+MO3o+Wrr9jMBPFj1jUOh2h3OspWXb6g891n96qxiHMEhZfWJwZ19Q0itIC3fIsNCPiad3dzJW7cPignEBLECURE1NfnO/LKn7c0v/jAQSUaNlXoPOrOZIiIfmixEZSpKS3hHGApG/Mx/4ADgJHeL66PCWN+pUXfcyUeb3z23g+6PnihQ5Akpv0ulhaZ29R4TJ16yWdm1Vx2xwVIiJy0HTwpbCsejUadprFjrMtRk4GXuj3n/j01sCjlKwAIkizlzVo23RAI3NxMPDVbMQMAJoIJouXdLNqdjuJlFy5o2/h4A1cUL7RYCb9pXZ8IN8zDXJwACDt/e9dry7/1yO+zKmrvAmO2ib4bbPr2Fb4L7tu5lYnCudaOJ5ej7MwrFna9//w+JRp2QrvhSrZZ6UbCQIkMvSdIcj8YK7By+GdPm19buuLiKe1v/70HiatHW4acGCy0clE3ll0lEgwP7t/ShURwlbFRRUGuTaMSEFxVVH9TQ+vhp3+9pWf7613gnJsMRkNE9ADo1oXEII7N1ETtmz5bZ0o9fCKD3bnQCnupSGSoCSb1Ox/nd4YaC8eVyFBU0cpPxTHcvXE8BY8KrgYn4+oSDofzAZQmjR2m72GpHTuMXQrtRsVSjc4n0FKXPWXuzLxZK8r792zqRyLo2riVSJsbx1SKCSUaCux/5Id/mn/7j+bYc4uumgTzUOXx2CaI0r/o9qNlrZwzbcGs0pWXTWt76/Hj2ayT2r1pmJAY6mo+mD1twR7G2Borx77k9Lgrz7tpZc/2Nw/EAgMD+iR3YHie6rTrlLr6BhnAZwBUWvk9jDGE+zsHvIe3DyYJiYj+xEA3EicUYtHBHm/n+8/vbn7xgf3h/s4Qjs2N7tXFQ7cuJvqhnVpF0nkMTm4dkUolwRHx9hQAqNaFoxcJNxXF9Gc6GQ3G+A3h2OJg47KRi3aXLyPGDucpvTSJRCJFSWPHCORN6W1xXX1DAbQbcIFWgNGLItmTm1u26rJ5/Xs2NSERdO3T581oK3NniphIxEvs2dTd9tbjP6+u+3iNlfES6UIsMLhNtDnawNg0K5tYdLhdlefdtLp354YDkcHuAdN4CpG9MHxxYu9/76YBrsReH4uJnlU9d86U9Z9ahETOZ3OatnRNBXuevqhbbjB5D21viwz2hGHKG60/yTcShNmyicfi3R++vGv7b7784r5HfrhDFxHmYnM+aK5MXQA6dSHRh0Rmjxi17aRQJYgFvfn6oUAptAxsWUjLAlYMSLgwBHTR2wWgDUArgCMAWsbjkT25fRniJZzSXxmPxwpMY6fAwrFzLoClNGFPtrcZ8matmOcqnVaYZGNMlErXx2x9hp1w6Mlf7BnY98H/cSXeO9F7ufXNR49wVXl3TGzWqlmz/397bx4eR3Ht/X+ru2fRvtuS933FZjcQwmJAYCAkkJvkkuUmudluuIHkJrlZ3vAmv9y8gZDlsgRICAQTIEAS1rCD2VeDVxnbsmxLtiVr12j2pXu6u35/TLemNB5hWZoZjUbn8zz9SFHMTHdVddX51jl1zvxLv3EKkqmFS1Le+bwcT43rm+XG9c1ZDXVL3eUw45HgK+Dcm+2HkxxO54yPXL62dvXZ86xJuBQJd1FevuiN65unA/ixtWhkdb0zYhF1YMfrhzG8AE3MulQydj/kfTcN07Pr7Q7f3i0eIZTJrhHhtYRDD4BuyxizRUQUeRQbT6RbKjPbNaYaK7Xe5yprDrLnn3xbGHgaIdFtiYhDAA5aP3N9HXRVTeufaucNOefMMIxyS3ymjp2MFT5rXN/sRiLlaxG9/Mdu+Lmr6+vr11y8JEVIiLHtBbQtklJf4o/ffTnc3fZnZLO+RB5w4Ok7okZc3WDZRNm1zBSHUn/apWsbzvj4kslgs1pziALgawD+5/w7m8qFTRWWyfuVUgYjG9z9zg5uGu/n4kV3VdbNWHj5ty8tqps9HUn3o9t60fNJRDgA/Je1O5TljRSGSM+B3sHhOb1VyxiOIhm/Xwhp7DKO7Cpyzj7/88cXT59XjGQoiG189VkGWJcgIkT3pEFtmt+rZUaFhBF3WXOOHVqZr5k4xA2FKJIJAmyvmi2Mc365q+p9U/F94Zy7rXFjH7wUc8sjQ2PoJCS84MQYDb+6E9auUorLKieL4ZcpMWFosdDef/z2fjUw8Fyhd3NssPstzs3WXNisjrKqugWXXXV5xcLjZwMot8aUWxhT+SQi3ACuBnADgO8zWbn2tJ89UoZkcT05U4LiiAffedeP/Loa+SdyFB9cNnf5Scs+f+2lSlFpjdUxYln7fHnRPwvgqlwMFNPUzYEP3jgQD/nsQzy2NyJiGREUw3+Ul720YWHD/Eu/vowxSRcMrwHB4OpD8kyEGGtOImJqjRVJmFDFAkP5aijYO45RSxwHLSHsn6DL5yyrjk7RaUa2jAclzdgZ9xi64K4PJACfRlaLnhb+zkNJw4L5dcevnWuJPjsVbB6GL2Z0w0EHoHp2vtXb9dbjtxixyM4C3ltiTbd/p53r8Zdy9eIX189bvvRz1366pGFBgyAmXPm0hjSub64E8FMAvwRQCcDBmPSdkhkLfzTz7E9XWPebmsZ2zPed1jAOd+7bwE1jT07kJJPk6hUfuXD5l35xiewqqhFe9rw4L9G4vvkiqzMqctAYUAd7vT3vPduRxnCIWEZvqkcix/pfAsvQhWxljJQkNu2kxuOmn3bJNKvtgpZwGEBiJ1esXC2GiZGImFJ2BmfWHJi6i5xfBgYbZiTYB3rtLG6q8DPXlya7ivQpOnpSwwMyuk4xWVkI4GP0lo7vDZfdJcXTT123CkyyPRKpO8iFGJc3dF5i/6M37fbu3XQjN3RPoXZypLtN04KDT4DzwVzNyOXzVp654t+v+1xJw4IZlpjIJ5t1MYA/APgBEhvzNi7Z4fruwk9867uls5bUYbiHblz3nbY4z6ZffaF97e2bHlWKSlfm4sElxemedtL5n2GMxXb/5WcP69GgeKDYNpyRa0OvcX3zWgC3IFEIKydqd2DnW62hzn1BDA9liCCRaWhCq3Oauhb37nm/NR72R60UKDydxTOaB2VMliqXnDzPVVlXmfEqmZxDKSkvmbfuq6f692/bGx3oVIV2TBVkJCCmLmwMg3cibpOnMRTEa8IyNzFZoTNF2eEyAAupGcZPxYLVSysXnVjv27fFKxhPdprvQkkFixSbwN6ElHfc8f2X11z70N2lMxZ9F4w5CnEe73zz0S3zL/nGG5LDmZO0t4xJcsXC1Reu+sZvseeh6+/w7d2iptgTObdZrfMQ6wD8DxJhkeluvNhZWfdfK796vbz1f7/2YDzk8wu2JcZ638pIgzDc3fZY+byVn2OSvCgXY19SXCV1J57/xdUlFY499/3PXyN9h1J3inOWq7dxfTMDcDGAmwEszs2rwKB6+3xdbz7SKjyvbQCHLANYxURlbGIMpqbGDzx71w7vnvc9wngxMbYdfb740/+9au5F/34ek6TMh4xxjtJZSxbOv+yqE3bf83/bkdx15iAPBDEBQjwL95wXhemIDK8/d++uQyKsiarmZmAdcJZV19SfdukK374t7Uhm27HDWgvRoyaKCdWIhYP7HrnxvhVf/n/LXBW1Hy/AZ2Vt/7w9OPOsTz3grpp+Phgry5GYUMrmLF933NduKDv0wl9u63j5gW2CbZHTDfDG9c1zAHwLiYPV1Ue575KyWUuvXvUfv5Oabv/2w0Ys4klpz2O2tUc04N7/5b/u1aOhh3K3QHFIiqOketlpXzz+mlu/M/3UixdjeOGPnLiMrAMqXwNwV85EBABwk/dvf7XF37bDj+GZmkIjCImJxvYW2cWYgkjGbI/q6nz9H9ujA4fbsxXixGRZnnbSBWfVr7lkvjWOxIqUhZb+jyCIQoCxtQBOoIbIEJLEalacsdJdM6MGyfCmyZBufrwG9tB5iYGm13q7337iFkON7CpU4dT5+sOvm7r2Wo7fVamodtZZi674zi9X/+ctlxXVzqzBkZWvsza+Gtc3lzeub/4CgEcB/PfRRETSNlJKq5au+Y+VX/nVJ5ms1CIRniWGOeFY7ln6kI7RfXs3/9004jk9qMMkyVk6c/Hly77w0+tXfu2GC5zlNZVIxDRm/aVvXN88F8DvANwEYEYOByOi/Z0DHa88sA/JUAW7cJooJDTkx2667TaNIJlBxk6rOtqrN9LX3jqw4/VXuKFnJ3VbojBR7dx1X7nIVVFXh+GH+R0kJAiCyCca795djERyDze1RubWAXftzJnTT7lokTX/i4euCy0VbCpDm5L7HvnfXd69m28q0PMSvO2pP/higz33cG76cv3lSnH54mknnvfzk39470+XXvnjk2RXcQmSyRgyLiYa1zeXNa5v/jiAB5HY9D7lWMexpDgr6o4/55srv3Ldx8BYNY5MgT76zxpBRHAAfPutV7dp/oG7wLma6z0ZZ1nVSfVrLvn1qT958EeL/uV7x8lOd3G2OsbqlM9Zqu4qDD+gkv03QI8bXW8/vjN0eK99NkLMzBKwftpu2An2RjAx7CpkiQg7p307ji0PfXvnG4++qPk9O7J28DpRSObEeR/7xkeQyF5QYe1IOUGeCYIg8gnGTgZwNjVEZpEcTue0ky5YLTvd9vxvH7oW7YmCM66RWl/iTz/YEO49eA84jxfgc2Lfw797w4hFnpqIW2CyUlZUO/PKWWs/e+cZv3zqR8d947cnls5eWoJkNqdx2a0X3LVTarx7d4Plgfg7gAcAXDr2TQcOyeGumnZy41XLv/jzi5DwZpSN5b1QjqJkjfYN9z2x8BPXrJPdxZfk/OVXHDXF0+Z8be6FX1xbv+bih717N/+z9YlbW2KerogwgJDm99Hu/lSAsXMBfBXA+dYuRa4XDvjbdhw8/OpDB6xnsGsfhJEMA7IPhumYSE9EMnuMLSSClpAYsH4XPSaj+sTQ4RYWOLjzgdqK2uVMkrLS/kxxOOtPWXeRZ8cbLQMfvGkfthbDxCj1K0EQE0rj+mYZwGcwyvAE4tgonbVkQc1xH53Vt/UlD5LhTfbamrMzmBNgZMNes/VIILj/kRvvXfGlXyxzVtQWWlYws2/rS6HZF3zhzqrFJ5/FZGXeRFhJksM5t6hmxn+5K6d9qnb12a9oAc9zocN7Nx98fn13oG1HDMewGXzure9JirukjknSKjB2IYCLACxDYiM0I8NDdhbXNZz+sWvMuKq1PHh9ahrdURU/Vo4y+MxDL/xloPb4c39ftfjk1UxWZk1Mx7gWFdXN+pG7uv7KuhPOe1kLep4PdrRs7dn4dG//tpePqWPOv3NHiSQrC8DYeQA+AWANcuyBEEWEFvAEDjz9p+1a0Ksi6Y2IIJkf3q66nBdhTYwdURwrgERqVb9loB9LBhkGQO545YFnq5aeepFSXHZRdqZSDmdF7ax5l3x9nW/ftm49ForiyOJ+JCIIgphIliCxw0hkYQ1QikrL6k+7dFXf1pdakSyAKx66LtQMZMPOS/Rvf7Wna/E/b5593mcXyK7iFQX2nHzLb77cdNZvX77LXd3w8wnMUsWYrMx2FJd/yVFU9pniutlttcefu43r8S3c0PeaunbY0FQPGFQG6JLTBUlxSUxWnJLirGKSPIsxtsTyUJ4IYJElfrPSbLKrpH7GmVd829Bi2v5Hbnw9xc48qphQjqbwAJhbb/z6+2de98xdRbWzrgVjzgnqGInJynxHSfnXHMVlny2um9027YS1W01d324a2h5u6N0wTb9p6BEmK3FJVpjkcLkkh7OUSXI1GJvHwFZbHbMawHRMcGwk1+NG11uPNw188EY/klWs7boHPss4F8Oa8sDYZeLEJBbLC41BSACA5Nn1TjjSe+iesnkrTmdMylq9jooFq8+Yu+7LO1ufuM2uZm3XkRDvmQQFQRATwccBzKNmyJpph8pFJy4vm7vineCh3T4cmQq20D3TyfMSD/9uZ+msJTfXrDjjBiYrheABEz0v8fYN9/9twSe+daZSVHpJHoy7IiYrK2VZWQmH6/MAj4AjACDIgQCzU68yOAFWgcRZzgokPGYsV82nFJXNnnXuv/6XqcXUtif/8G7Ke/ChYkIZTcdwPa7uf/Smvy79wk9PcJZWXZEHHVPCZGUVk5VVksP1b0CJCs7taqsRy+iWwOACWCmAKmv3QcmjWQ2Dze/tO/jsXXuRDGmKWZOaz7oC1vPkU9E0Md2kgSMLZB2zkAAgtz15++vHfeO3LypFpZ/OmhJ1uosazrzikoEP3mz1tzZFMbxSuBjiRBAEkTMa1zdPB/CpbBoOjOX/mWIOjozXFRr6cA5nRV1d/WmXLgse2t2JpFciJKwDhboGDDO0AcQ+uOP7L5567YNLSxsWfrtA6kvYdol56MW/9FUsPvHGuuPPXSYpzgX5JGcBVgKGEgANLM+az1FcMX/OBf/2PUOL/frQ8+s3pdh7I5YeGI1hbQIwet5/bqBi4Qk3zjz7U/NlV3E+paaTABSBsSIA9ZNlZyTc1dq975HfbYmH/bbxrSKZBclrCYmgMMHxPJ2Y+AjXaDEAoL/pNV+k9+C9ZXNWnMckqSZbC0lRdcPC+R/75gVNt13Txw09iiOL01GYE0EQueZ8JDzlWcHUYlp0sHsQnOfx3Ma5UlxR7Kqorcza0ivLUu1xZ6069MI9WzX/gB8Jr4S9YWeHD6NA1wD7mXQAqh4NBvY/cuO9K778/5Y5y2suLaBnNADoO27/zvbT/r9HbimbvfyXTJLKaIoZpZgorVoyb91XvmvEIr85/NrftqXYdGnFhDLKgWcAiLc89Ktmd3XDDbWrz/md5HDOokYfm4hQff2+/Y/euDHYvieAI88beK3Ljzw6GzHKnYCxCAlmPZ/Z8tANG0/8zh+fVorLvpS99pdY9bI158xe+9ld7S/dH8KRXgkKcSIIImc0rm8uQSLla3bChhnDYMum1l13/5+N3DS4lXnPBBs2V0/4fMcNnU8/ZV3D0s/95GLZWeTKyi1xjuLpc2ZPO6lxweFXH+pH8tC17ZUwUNhzf+p5ia6ud/558+y1n10gu4qWF8jzDSWE+eCO7z9+4vfuWlRcO+sqMKbQbDO6JnSW1x634OP/+V3V3399/7aXm3HkxvGwOWO0DWsPPK3p9m+/efIP7vld1ZJTflYgsXU5FRF6OBA58NQfN/ZtfbkXSXeRfS5iEIksSD4kQpzsMweFvEs+JFZ9+7aEgodb7qtcdOKFTJIbsvV1srukfNbaKy/17Hr7YLi7TTx4TSFOBEHkmjUAPpqtDze1WLxv8wttWsATs+daa67TBcM5H9YX3r/91cicC7/UWTpz0YJs3ZHkdLunn3Lhqq43H91t6pod3uS21gEdU6NSvL2BKe37x28/KJu15Obq5affwGSlqkBsCgNAPNJ7KLjv77+5c9kXfjrTVTntClCq91HaqoChRYv0aGgagH5BgJpC+w7Zb9Ioxjlv6gAAIABJREFUO8X+EA1AtOnWa570t+24lRt6kFp89CLCiIVjB59fv7Hj1YcOYfi5iCASXgiPJSYCwqRmToHWGRpju9Zfu1WPhh7P7rdxFNfPWzH/sm+ei8T5mUokC9XZOZ9pwiEIIqtc8OedMoB/teagLCw7EiL9Hf0DO97os/5krzkhJDasBpFI392fB9eAFhjo8Lc2bQU3s2rIl81Zvrhq+WkzMbxAXSFXuk633ibrS9z5wxcivYf+As71Qnu+vq0v9Rx4+k//qwUGX6MZZ3QqIti+58Cuu3/yvHfPewzANCRSUpcjWWNi2PshHUPH2Du1MT0WCjb94Tt/87ft+CM39BA1/OhExKEX733v4HN37QPnZhoRMYDh3gg1z3aLcvHym9G+9mjgwM4HuKEfymqXSLJcu+qcCxrOuGwFkoXq7MUkq2XtCYIgrHloGYCLs7dnYmJw17sHVX9/TDAcw5aA6AXQCaADiWKi+XB1eHa++bqhRvuyNv1yDkdJRWX9aZeutIREKZJeiUKvdJ3O2FbjIW9g/2O33KMFBzcU0DPaXhe145UH2w4+v/5XWnDwXZp1Pvzl8O3bvH/Xn3/8mm/fFtWyiyqtq3Skd0QZQ8foAGKaf8DXdNs1f131zRtRufikb0qKs5zCytOLCD0SjB564S8bDzzzp73cMMw0u0ID1uXF8DSqU+ng75BXoum2a3Z+9LcvPewsq/7vLL4vcJRU1M658MuXDDZv7FB9/elCnGhAEwSRTS4HMCdba088OBjs3fxCB4aH0fqR8AAMIllINF/OBrCBHa93aUHvu0WuksuzuS5XLTllZUnDgvfC3W32oWsxFSwT1qVCXnOHzkv0bd3QVbnk5JtnnfOZ+bKraFkBPBsE8Swfev7uPdyIXzf/0m/81FlecxpNPcPfB67rxsCO15tbHvrV5ujA4TASm6ou671wW/9brHg9VMBROsaOEd1hES046Gm67ZoHB3a8fouhRQfAaAM3ZbsJWmAw2PrP29488PQde7mhD720SKZ5td26Hky9kKa0E5uhRVXf/m0PcSO+N9tfVzZryYnzL/2PjyLplbBDnBSQV4IgiCzRePfuGQD+JYsLEAIHd3cGDuzwI7k7a2cGHEDCI9EDoAtAt/Vzwi9DjbbHBrv/CW5Gsjf1c7ir6qfXn3bJEiTDm6aaV8JmaOd+799u2OHbv+1mbujeArEnhqXWb99w3679j99yXWyw503QRuGQiDBi4djh1/62aefd/+e96MDhqDAu7Eik1IQ/w9pOGmPHDKUr1aPBwQ/u+N5jXW8//pt42H+Q7K5k50T7DvW3PHT9q+0v3tfGTUMUESFrN0gUEXYNDHF3aKoN9KEDPU23Xr1XC/keyragYorDOf2Uiy6qXXX2YktMlCMR4uTA1IiXJQhiYtaIRgDHZc06jMfifVtfOmDqcV1Ys8PWWuNDMkOgXbfInydXwNey+Q3T0Hdmd+5XlNrjz13tKKmwwzZsIeHA1AlvTd0gju688wfPR/ra7y2Q8xK2QTwkJjpff3j3ngd+eUO4u+05zk19is9BiHm6B/c9cuPre//+6x16JKCJY8GyVYPWNaJ9Ko1x4A0LzzH1+OCe+3+xoe2J266LDnRuts4ATNmOAeemb9/Wtp13/ejlno1PdwJcrAIdFEREr/XTi6l5LuLDXnxtsPm9h009viu70yiHs6J25rxLv75OcZfUIXH4WowFJBFBEERGabx7dymAKy2jNQvLkIToQKdnYMdrPTiy4GnAuuz01zFr7cmHKwZA3f/4LZ2GFn022yZ0Sf2CebXHr51rbR7ZXglX2rm/cFfkYRvEWnAw0PrErfdoQe9LBfJstk1he+SC/dte3r/jju/d5Nu75QFTj4emXDQNY+CmYXhbNrfuvOuHL3W8/MABU4/b2dzszW4fEpvcYhhkDGnqmknj6Byx/kEQgK/9pfu37PzzD3/t3b/1CVPXwlOxc/RoKNb51qNbdvzxu2/49m/zWm0l1onwAOhLEREhEhFHjC2+884fHNQCnvuB7O+MVMxfddrcdV9Zg+EhTlMliwdBELldK84A8JHs7Y+YGNy98WBssCcGIeOitdaELINKtdYmA8nwhXy4DAC66u19nnOzO5tLjewuLqpfs24VGCtD+kPXbCooCaScl+jd9HxXz/vP3Gyo0b0F8mzDwvIB+EMdLR1Nt129vvudJ26Nh3wdU2aJT5ydCrW/9Nf3dvzhO697WzZ5UuaIgCUc+pAIfexLIyTMTAgJCCrP3unwAxj07d2yv+n337qr45UHb1O9fa2JDmQF3zEAeKhzf3fLg9e/vOf+X2xVvb1Rq33EitUeJONS7c6xRQQd8E0ztvq2vvSEGY9vzfaXSU538YwzL7+kYsHxcy0xUYbEISMHpla8LEEQWaRxfbOCRMrX8qwZCmF/qG/zC+2icWitQyEkaxTZIoLn49Xx0l+buR5/O9v9UT5/1dLKxSc3WELCPnQ9VTeRhqInWh68vsnXuv1mbui+AhMTQyF+8XCgd/dffvb03r//5oZQ5963uGnEC3YDnDFwQ9d9e7e07bz7Jy/u+/tvdmgBjyq0Saqd2m3ZqgNIht7Hkab6uzTOjoF1E+KO+2A87O/a+7dfv7Dzzz/+7WDzxmcNNRIozM5hiUk75At3vfXYlqZbr97Q9dZj7YKLyM7M5EXC+9CTRkTESESMuDtitjx4Xafq778PnGvZ/UYOd03DgvmXfbORyUoN0qc7I68EQRDjZQWAddlblRiC7c1dvtbtPiQ94nZYk+iNyNcqzhwADr/+j7AeDT0JcDWb876ztKq64fSPrUDy0PVUDW0Vje04Euclno30d9xXgPUlxPCdga63Htu6/fffuqVn4zP3xoPeriH7rkAEBAAe7esYaHvqj29uv/Vbrw40vdbLuSmG3It2arcgIsQkQHEceegawLGnf03XMQzJKndRoaOMwd3v6P792wZmnvOZpplnfXJdcf38lZLD6QLnBdA3EnQ1ovlbmw61b7j3g4Edb/RbB6qHMiBYE3YAw+tE2AXnxDMRJCLSYwBg3e8+9czci778GdnpPju7Xyex6mVrzp593ud2tW+4z44fVlNeIFBfEQQxDj4JYGbWJk1d1fu2vXzAjKv2IWsxrGkkb0Reiolge/Nb1SvOaGGSvDp7077EqpefflxR3axN0f7DYirYSJq5fyqICcDyYmkBT6D1iVvXL/v8/13qLKu+qICezxYT9t/MaH+HsfPuHz827aQLmuc0fumS8nkrTpNdxaWT1l5NnNeF5h8I9G9/paV9w/0toc59QQw/mmB7Z1KLInuR9EKkRswc0SBKhjqGpUxKtkGtG1o03r7h3kjvpufaZq298pTpp1x0TtG02QslxelM3A6fVB3DwGBo0XiwY8/hzjceae55/7lOIxaOI6VSJJLZMezOsYvNBTG8XsFUPxNxtBfebH38lt76U9fdUzx97ilgrDibXym7S8pnrb3yUs/Otw6Eu9vS1ZYwqGsIghgLjeubZwG4IntrlITYQJdnYPur3UgesraNhXCKYZD3687WG7/eufYPm19Q3CXZExKcw10zY8b0U9ctOvjsn3ssIVGM4WcXp1oCmeR5ifef66xcdOJNM8/+1HzZWbSkAMVEsuAy53rflg2qZ+fb3TPO+uTmGWdecX7pjIUrJae7aNLYqwkBwTX/QMCz+522w6/+ba9//3av5YEQ5wTbE2HbqbaA8CHpudRSxn/aBlAy3DGmMEHZv8cBqKqvT219/Pe+zjce2TXjzMuPn3bSBacX189bILuKi+2XOa87BoAeCUaD7c2d3e882dK3dUNPPOxXhQEpeiFsl5nYOXaWjMmwG5RvE5px+I2HNyz8xNVvyK6iddmdYjiKp89dPv+yq9buvPMHHiSzmozqhSIIgvgQ1iER2pSl+cuEd8/7h6IDnfYZPTvsOJzGOMjn9WdoZ1wLeJ5VXMVfAWM12foyyeF01J14/uqOVx78wIhFbK+EGNIBbppTJczJ3hwe2rVuefD6ptIZi26pWrrmOibLlQUmJjQIh/wBxA01Eu946a/h3veeaa0/4+PH1a+55MzSmYuWyq6S0kQZtnx7bRgYYzAN3VS9PV7PrrfbOt98rDVw4AOfFSnDBXs8Zs0DQUFE2FcQY/BaKlnoHNH9YQodpQKIxTxd0bYn/zDY8cpDO6edeP6iaac0nlA2Z8VSZ1lVNZMdMsDzo5Ms74Opa4bq6/N5921t733vmQODe973GGokjuHuIdELERBEhC9F3R3VRUSkF6iHnl/vmXHm5X8pmbHwI4xJ5VntekmWa1effX7DGR9v7n73yQiSIU6pXgnqP4IgRkXj+uZyAJ/Jwro7tGbFw/5w7+YXDuHoh6wnTbhO76bnd8y96N/flxTHxdn8ntIZixbUrjp7Tu+m5z1IeiXsEGTGTQOYOmcmUg1taeddP3r2lB/dt6x4+tz/BGNygT1j6vkQFUBMC3pj7S/e6+t687GWuhPOXTT91ItPKp9/3HJnWXXNxNurCfHAwWFEw7FwT1tv//bX2no3PXc43HMgBM5FG9x+JjvEMSDYpz4MTwetHaudquSgc8w0SigSD3nDnW8+Mtj1zhN7y2Yvq687Ye2iquWnLS2ZPm+Wo6SigikOhSHRSDnpKEs4cHCYcU3Xgp5A6PC+Xs/Ot9oHdrzRG+1vj3DTNITBpgsCKZzSOUOFdaznzdWONsv2wJ0gTADmgWfufG35F3/+suIuuSK70wuHo6Sids6FX7pksHljh+rrE0OcxDEw+aHj4wSRK84EcEYWzQqEOlq6fPu22GnHxdoR6bwRk8HQY/sfvck/65zPPCWVVl6IRCalrMz5SlFZ6fQ1Fx/Xu+n5fUgeurZTXmrc1LM3W7K8bX/YglT19/v3P/H7u5d9/qfLnGVVjTn8/lyKCVOwWe2zRWE9Gox2v/uUr+e9Z/eXzV7aUHfiBUuql5+2rLjesldlRQaYZatm8bZtO5WbMNSIGhvsHvTv3364b/vLHd6WzYNWQbmRBITohRBtVDvcXkwHfUx2qpLDzhENb3uHJMgNPRQ4uNMfOLizU3rmrm2lsxbXVi87bXbFgtVzShoWzHBW1FUp7uJiJisyY5L14Xzo5T/mt5UlJ10wgJsmTD2uG7FQNDbY6wt17u3z7dva623Z5In0dYS5ETdSOsZ+jhiSLuOg0Cl+DHcP2epOnLx5FtvdTA4Cbn8Ty8BEyzg37Q/kE/Cimz0bn/bPvegr95TNXnoWk1iNNRCyMwVzjtKZi4+fd8nXP9Ly4HVeQRDGMTyPcrbbwEz+zGB/Wq8B58Pun4MOlBNExmlc3+xAwhtRaq0FLNNztKGrRv/2Vw4YWsw2BsS11t5tnGxhtRwAwt0HXq1YuHo/k+SlVsHbzM/7DKxiwfHLyuetnB44uMuHRBanImstlw1NZY4SblpfnbH5mMNknHPOh1uh+dQ3w85LVC0++aYZH/3kXNnlXgKeofvknFlNMBHPL4bmp/NM2EZ4iJtGOHBodyBwaHfnwWeLtpbOXjqtesXpcyoWHD+3pH5+g7O8pkp2FbmZrMhDG+GCTXEsgmHITkWiLoypx3U94g9HB7q8gUO7egZ3v9vtb23yqv7+mNVuQ4mOLLtTS9lICKbYqLaXUk2xa455blBy2DmiQrKNcPvhygCUmfFYIHDgA2/gwAeHAdbkLKsqLZm5qLp01pKasllLp7lrZ1S5KuoqHCWVpbLT5WKK0yEpDoVJkpR8l1maW+DghmGYRlw345puajFNC3pDqq83GO3v8AXb9wyGOvcFwj0HwnokGE+5Z9GjogkDS+wcu4NCKQJiTOpuzAuJGm1hsvIdPRIsUQP9paqvvzoeHKzRo+EKU1eLuGkq4HzMKX8NLRYP9xwMCn3JkbtDaCYAs+2J32+cf9lVPzTj6iIt4KmMRwKVhhot5UbczU1TBufjz/vNwMEkU5IVPTrQaUiKo9LU46l9m/WD1+GeNsNd03CHGVdf0oKDRaqvv0LzD9TEI/4qU4uVmobuhGnKY35exuBv29EvTD4cFHI3lp1ElroAiIvAuD5bYuLn87xvDJaxp0+0JSuQEi7cVDjwNDeMdw01qsTDviLNP1CuBQaq4mF/laFGy0w97uamoYxpDmOAEYvoPe89247hmZpSU77qk/H93vv3X7ev/Or1PzF1bbnq66/QgoPVRjRUacTVYm4YDnBz/Om5GTPBTc2Ma4olIIqRrCmhhDpavI7isp8baqxWCwyUqL6+Ki3gqdGH7kN3WOsrO9Zxrnp7w0Y0pAk2R77MxUecl9jzwC+3S86in7kqak+Nh30VeixcbmpqMTd0J+djXIMZYGqqHukdsi/StQPPwbNCsNlSN47Dgr1abmjRoL91u9ffur0DjG1zVU4rL525uLpszrK60plLprlrGqpcFbUVSlF5ieRwOiSH08FkRWFMYqkLCJKb49w0dMPUtbipxeLxsD8c8/YEIr2HvMFDuz2Bg7t8kZ4DYWuzIPUIgS4ICFv8iNEytq0qJl0Qw5jGbKcqORqIYucc4TayHrJUuEoAXqIFB4u0Pe8PePe87wLgZLLiUorKXM7SSreralqxs6Ku2FFS4VaKSp2Ku9QpOVwKkxWZSYxx0+Tc0E1Di+l6NBjXo6F4PORTVV9/TPX1qXrYH9djYZ2bRqoBJd6jKCBiwmASd3lCwt9iwmRtIMdnIV69ek03gHusnZQ6ALMAzAFQj0TxI7vIznj60hQGaxy5SV87NIb6m14L9ze99hSAWgAzkEijOM16PheSRYSQoeeMWJ9bYi0sLiSK1GXdK9F069UmgBcAvIZEXYsGqz9nAqix7me8uc7Fcz7HHBs55THNEJfMt7lpVHA97jA01WXGVbepa07LKJSshXVsH69rejzkjeWtyOO8j5vmm9zUHaauOUxNdZtx1WXqcWdi48Icu7BnjKm+Pr+hRXWkL1o2adjw1ZVRAI8iUY/Gbb3P9dYcPUN4nzNRAFPH8FjoICbPIeu0c7+/rSn+zrWXvgDgPWsenG39rEGycOh4531TaDvZWi+d1mcr227+jzCAf1j9V23Nw3Os/qu0/j7W9YenGIKpUQwT3geCQI3svufadwDstfqg3uqHMgwv5DfWdVcdYSM2l88q2oOimBDDg8qGbFbOS1Rvr0/19vZ5dr51AIBTcrjcjuJyt7O8ushVNT1hrxaVuZSiUpfsLnFKikNikiyDAaahm4Ya1fVIQIuHfKrqH4jFPN1Rzd+v6tGgbupxPeXehh0OFza5YykbCKk2qp08Jp4yxsY1Jyg57hxg+IHV1ExH9i5AsWC42bsCbm7ornjI64yHvI5wzwEZyUJhsvXT3g042uLF04gHI6VjUgWEqPAiwiXGlqUzrHM5ETChLexCRPaCAuslz8QiFcPExNyKk61do8NefM1xTuTpvssQhKHdtorQxrlAEr5LDFdwWvc13ue1hcSkPYw5kXS/82Sbo7zm33z7tpSEOlpqVH//TCMWnm3q8emcmxXg3IXxFDPk3NQjQVXY2DCQR7Vn+ptee8NQo9t9+7aUhrvbarXg4CxDjc7ihj6Nc7MUnDvH8fycmwbXI4FoyvPn047tsb7LijVfOYVNANt4NTPwPtvzfgTDM7FEJ/l7LdZoEud+yVoPlAzNyYZgyNohVKJdIaeZj8PW37VxbNTZa5ttY6SGoeWLmBDTCYvjGNb9jreQn2GtQWKa/IkSE8CR4fmivRoQbFXRXi0G4Dbjqkv19ztVf78S7Gix7QZZsFmZMJbYKGxVUTyMJCAiwhhKFQ9apgVEroVEagelC3dSBbXnFq4i4XJbO8JO4VJSjDs5RUywD+mUkQSEmkZERIUOiaVRzRMpIFKfzx7wdrVCbv3uGIXIGu2uhJ1/OCJMujnxSlhtHkbiYLts/S2cIiRYhsapLij81IWY5aifxTSOfmu8q0h6YDCOPhUXMDvDWGrVWxIUI7D73p8Z1pxlWP1SYu1SOa2/jU9IJAVtDOkLJE5o3zTddk3cGpOGNb9YHmUo1n06xvn89hydLnvaZISnbIiEhPdZGYVhMdrPtueKQWt8FkK7iRWJB602UnGkR2I865spzIepc6EYh65Za4LX+r5IykYdG0O/2e95AMnUs3qeiT9T2EwMCuuPvRklCgk2hvYX7QsfJrYoIE8RsakhRFHhmdPZqu4Um9WRxl5N3QBPHRMj2am2gFAFuzSaIhxs8aAJ4iN13chImyoTPJkypKk5YTWEw7rsTnAJlygk7H8np+kgNsL3miOoOzHEQ03pLFE4pIqHfKp6bD9X1JqMgGR4TiZ2u8SFyj6wMxFeCXvC5Vbf+DE+t+pI3yUa8XYdkFztCKcuXCFrXMcFQSFloE9FT0egAHYvJ+q9iwvvhdPqs0x4Ae3+tw0M0WuUL9gC3x5DtnHsyND4jFlj3n4HJ6NRzFPet6D192gG5y7x8+2wYdsgnqwhi+mMTNuTExLWNilD3zUUwiOIMCNN/wUEMePC+Lwi4lpjf2/qJl2+nZeICP0SQzL0VxpjO9jPaJ+jDaVp/4kcf+nERDp7Nd0l2qoOwVaVRyEk0nkhRNs0NoKdKoqHrAiIiRYS6QQF0ggKWRAIDuFnaocoaTomtXNGUpeiyhMFRTzl7+nCCvIxy4JoaEMwQJQMTrRiefUYchd7m7qgQBBNzgw+44c9r5pjI1s8rxEWdmcdGRRNqXGgk/ZQ5gTv0tnGoWK1pRuZi90WPVKhPFhcU8enuAsuWeMoU6GGqV7IyZbG9MPmZzULGyCp9Y0muzdCbLu4sAEprm1yhr9nWP0rHOkZsIvR2mImk5s64vfm24ZB6hrMU9bg8Z7xmUj7YrTPDgw/kC3aq6I96jgGezWdByfdhrcoJuJp7FXRTuXI0Sa3kmeDU1S89o6D3cjiWQh5hCudq+jD3EWpgiL1Sv13+Soe0r3kEAxQcbcmEzteovFg5HhBT53IDOElztQz4kN2BgzkNv2raKhCMELERStTYVzi81Hl9WM3AGwvmW1cZErspe6SRvJISIjGcdR61rjVDuMNa0ondO3433zaqR3Ls4hjRs7Qu3y0+Woyv888ZU0zUta2TLaf+M6J86GZItTEnfmRjMFMfm8+2hniAWk5Q+2QuhOfbxsGPI3wYYKRL9qh8ijs1XRnJUYKbTJGGB/iBreZZkxlFSWPJ4zUTmJCJzEMPwSV7m8jTSrpsn+YI/xMJxryfSJOzZKlY/xnBo72wue6bXL1jEcbN7nySIjuZEPYlSuE55sYGNjwNHwZE7a2oRNCZs7rAOlT/OWTcWgKRrFtVCgZMCrSPX885flH3+MTX/ZLfJdT17ZszVf5FHabaQPWyHK/pmtDpPwt0/eQrqZBPvZd6hosZaEd8n388hHmKTbCJdqrEkY+y5tuTU5no35YetyctpUyCSYNcQKG0FE4hp8jKf/Un/xDBshknHB5hnZpRtM/E/2M2XrOfHhm8TyRUcB9erTby9zOFJOguEucIxicYzWm9RRhK2W4b1K9qfnijWAYvjupITOeiNE8/2jboDSD6x3nYy/ElRoekYt3uRBERDoxlu15/2jzYbbWVz5J+i2b69JkG78j2asj2aUf9v+n+7y8tlOVSTaBjOYFZmMcqIU44RbaM02VxXKqP+tI2DHDRePWEWAomja7gjFJShTKzUjfmMjuLvPRFpJ8MO7EXdpsbx6M+vkZY4syeB+maZrGONcOPsXf5ck+F1L/0bqUK3uV57udqhTYIE79GytgoUAQUwvTDEBGFInig+OcODhKZyyuL26YXxzuavVhdGGR+WJc5OMclnrOLW+e/5xzzq0F8NEMqghD1+MaGZYEQWTIXp3Utqo0BTpuasR8E0Sh6whd8yCZMnOcMwOHq2p69cyz/mUBhsetShkSFNm8JuO8O2HPzxi7GMDxGRQScVVVoymCidYWgiCmpK0qUf8RBDEZiIcDfnDelanPY7IsNZx+2cnTTjq/Acmqw3Zavnw4nEuMk3PPXbscwPeRSEWbEXRdj6iqqgoGwGTI6EcQBJEVZGoCgiAmA0yS9eoVHzmdMXZyxibAopKi8nnH1Wm+/o5wV2sPEqlF7YJ8lAJ3couIpQBuAXBmxsYgYwiFgp3d3d37Oed2dVs/EhWO/UikAtVp3BAEQUKCIAgij/C3bufzP/bNWUySL0YGvQWO0srKqmVrFpTOWKRpAU+P6uv1p4iJSae5MIW9KWeffU7F/PkLLgdwEzJ4NsLG4/G0eDyeLiRrCPisK7UqPEEQRMGjUBMQBDFZMNTIZkkp9wCsLmMfyjmc5TUzGj7yia/VnbD2nHjY/w439A9kd7FHdpdqkuIwmSRzJjGet3vMDIxzxDV//ztv/vd53jRCYtR3fu65a8ssA9yV+O844/m/t84AFDPGlgA4F8ApAIoz/SWmaWg+n68Pw4tyihVlSUAQBEFCgiAIIh8J9xzcVzF/1QdMYudl9IM5B5Mkp6O0aqWjtHJlwijk+mTa2GfgfibJlwPYhMSZj7EWdJoJ4E4A0xL/PQNjk6Ih7PMtWSMWUwcDgcAgkmlu7Wq2cQwvEkgQBEFCgiAIIp9s5U3XXek/70/bn5cl11pkxcofsgFlgE2u0E8Od3SgswSJ4mvA8N1y8xjEBEPCG+GkITccv9/foaqqXcHbrjKugc7UEAQxRaGsTQRBTCpzWQt4XuTcbKemSGkYzlm4u60KQC2AaiTqbRQBcBzLXM85p2xVadB1Pdzf33cISW9EHICKRKFEbQyCjSAIgoQEQRBErmxlAFLLA9e1cD3+DDVHauuYUrT/cD2AWQDqAdQg4Z1wgVLajptAINDu8/nssCbdEhFRS0ioSJ6RIBFBEAQJCYIgiHw0l/u3v6JFPV0Pcm52UXMIDcO5pAU99QBmW0KiGkAZEiFKMomIsWMYerS7u6vFNE37ULVmCYioddkeCRIRBEGQkCAIgsilcad+AAAIL0lEQVRjWNOt12w3YuG/U1OISsJkRixSDWA6EuFNFUiENjkxvFr30QQJtWUKXq93v8fjsbM12SFNYSTrjmigrE0EQZCQIAiCyH+TOdzdqnn3brnH1ONN1BxJgWXqWikSXogSQURQWNM4UFV1sL29fVeKNyICIGRdopAAyCtBEAQJCYIgiPwUEfa1/ZarWqP9HbdwbgaoWQBwzjg3HZZ4cCKZDpVExBgxTTPe2dm5PRAI+JD0RkQtAREUhASlfiUIgoQEQRDEJBIUxq711z6r+QfuxeSsQJ2NVmFIhjFJJCLG15oej6e5s/NwK5LpXmNIhDMFrCuMRJgTnY8gCIKEBEEQxCQRESYA09+6PXTgmbv+GA/5nqNmAQThQOJhnAQCgYOtra3bDMOwQ5rscxF+AD5LSESQ8FLY3ggSEwRBkJAgCIKYBJgAjI6X/9rd8cqDN8TD/repSYhMEA6Hu/bt27cxFotGrHEWt0RDwBIRPiRCm2KCkCAIgiAhQRAEMQmwvRI6gHjrE7fua99w3y+0oHcjNQ0xXhGxd2/Lm8Hg0LkITRARXgCDlpCww5qoojVBECQkCIIgJiH2brHa9uQfdrc9efsvYoPdrwKcdoiJYxangUDgYEvLntf9fr9deM4+XG2LiAFLSNjeCDobQRDElEahJiAIYrIaftZPO35d7nj5gT2RngPXL/rU9/rLZi29jCmOIlBdBOJoatQ04x6PZ09bW+u2aDQaFkSE7YkYBNAPwIOENyKCZMpX8kYQBEFCgiAIYpKKCTGjjuzZ9c7BUOf+2xd96nsH61afc6WjtHI2wBjZekQ6VFX1dnV1bT98uKPVMAz7vIOGpCfCY4mIfiS8EiEM90bQwCIIgoQEQRDEJEY8ECupvr7eXX/+8ZPTT13XNqfxi5eXzVl+puwqKkuYfGT3EYBhGDGv19va0dG+0+/3e60xZCC9J6LX+j0giAgKnyMIgoQENQFBEJMcMcQpjsQhWABA76bnd3h2vtXXcOYVmxtO/9h5pTMWHie7S8oTDgoSFFMRXdejwWCwvbu7a8/AwECvaZoGkl4tFUlPhC0i+pE8YC2meyVVShAECQlqAoIgCkhM6Cl/M/VoyOx46f5Y99uPt9Ydv3bZtJMbTyqbu2K5q6K2TnK4XIxJ4PZ/TuKioGCMgXMO0zTjqqp6AwH/4b6+voM+n2/Aqg/BBQEas4SCH4kQJg8Sh6u9GF4zgs5FEARBkJAgCKLAxYR9fsIAENejIa1741Oh7veebi2um1NftWzN3MrFJ80raZg/w1U5vUZxl5RIDqeDyYrCJEmaXDXdmNgGfKoaupxzk3Oum6ap67oeVVXVH4mEB3w+X4/f7x+MxWJRJIvHGUh6IWJInH0QU7wOWqLCztCkgQrPEQRBkJAgCGJKiAkuiIk47LAVzqORvkPhSN+hvs43Hm6WXcVlroraMnftzAp31fRSpaSiSHa6HYxJEgdngsmY18qCG3Ej2N7ss57XHKug0HW9S5blq3Vdr9A0tVRV1RpN02p13ag0TbOYc+4EeN5Vz+Yc3DQNIx7XVVWNRWOxWDQej2uC54GnCAjNGhMRS0T4kfRG+JH0Qqig6tUEQRBpYdQEBEEU6NzGkKiVowBwAigCUAqgDEC5dZVZfysG4LL+nQOAbF2S8Fn5PmfaoilmGcNdANqtn14kYv+NURjC9jMWA6gFMBPAHAANACqtdpIn0fphi4ehAoZInoWwRURAuIJInLOxvRDiwWoSEQRBEALkkSAIohARD2CLKWLttJ5hy2gsFYREsSU2XJaYUAQxIU0SIWHX1AjiyFoHx7o2yEIbqlabSVb7SJOgLXhK34teiKh1haznCllXxBIQqvXvxbYjEUEQBEFCgiCIKSYmTKScl8DwmPgi6yoG4LYMZVFMSDjSM5Gvz2vXQAghkWUoPEYxIYqSEBIeDVif58hzIcFT2kMMZdKsvo8h6ZGICuJBw5EHqklAEARBkJAgCGKKCwojRUzYO9NO63IJvzsmqZDgSBbns3fZ1TEKCftzAtbfIpbQsr00mARtIQqJuNDvWopwiCMZwmSCvBAEQRCjgs5IEAQxFec8JggE+zyEgmRIj4KRz0nkuwEt1kSwd9rjKQbyaNpItsSUC0lPjTIJRERqW5hCm9iiQhf+t4EjD1KTgCAIgiAhQRAEcVRBwVKERervbJIJCXEnfiRDeTTtwwShpaSIKkyituBpRIWJ9KlySUAQBEGQkCAIghiTqADSZ2maTHNl6hmBsRrJbAQhxSZZOyCNWOAj/DuCIAiChARBEETG5sXJOE9mylAutLYg4UAQBEEQBEEQBEEQBEEQBEEQBEEQBEEQBEEQBEEQBEEQBEEQBEEQBEEQBEEQBEEQBEEQBEEQBEEQBEEQBEEQBEEQBEEQBEEQBEEQBEEQBEEQBEEQBEEQBEEQBEEQBEEQBEEQBEEQBEEQBEEQBEEQBEEQBEEQBEEQBEEQBEEQBEEQBEEQBEEQBEEQBEEQBEEQBEEQBEEQBEEQBEEQBEEQBEEQBEEQBEEQBEEQBEEQBEEQBEEQBEEQBEEQBEEQBEEQBEEQBEEQBEEQBEEQBEEQBEEQBEEQBEEQBEEQBEEQBEEQBEEQBEEQBEEQBEEQBEEQBEEQBEEQBEEQBEEQBEEQBEEQBEEQBEEQBEEQBEEQBEEQBEEQBEEQBEEQBEEQBEEQBEEQBEEQBEEQBEEQBEEQBEEQBEEQBEEQBEEQBEEQBEEQBEEQBEEQBEEQBEEQBEEQBEEQBEEQBEEQBEEQBEEQBEEQBEEQBEEQxGTk/wcsFlSTZiqGvwAAAABJRU5ErkJggg==;" parent="1h0svEDW4cat6tXGmW17-26" vertex="1">
          <mxGeometry x="7.619999999999891" y="2.1951442132165027" width="62.88" height="20" as="geometry" />
        </mxCell>
        <mxCell id="CianoWygyvogbfJQY6NW-32" style="edgeStyle=none;curved=1;rounded=0;orthogonalLoop=1;jettySize=auto;html=1;exitX=1;exitY=0.5;exitDx=0;exitDy=0;fontSize=12;startSize=8;endSize=8;" parent="1h0svEDW4cat6tXGmW17-26" source="CianoWygyvogbfJQY6NW-13" target="CianoWygyvogbfJQY6NW-13" edge="1">
          <mxGeometry relative="1" as="geometry" />
        </mxCell>
        <mxCell id="1h0svEDW4cat6tXGmW17-28" value="&lt;font style=&quot;font-size: 11px;&quot;&gt;raw plugin&lt;br&gt;&lt;/font&gt;" style="rounded=0;whiteSpace=wrap;html=1;" vertex="1" parent="1h0svEDW4cat6tXGmW17-26">
          <mxGeometry x="11.880000000000003" y="63.5" width="58.62" height="21.5" as="geometry" />
        </mxCell>
        <mxCell id="1h0svEDW4cat6tXGmW17-27" value="" style="group" vertex="1" connectable="0" parent="1">
          <mxGeometry x="901.82" y="1306.5" width="121" height="130.5" as="geometry" />
        </mxCell>
        <mxCell id="CianoWygyvogbfJQY6NW-35" value="&lt;div style=&quot;font-size: 16px;&quot;&gt;&lt;b style=&quot;background-color: initial;&quot;&gt;&lt;font style=&quot;font-size: 16px;&quot;&gt;&lt;br&gt;&lt;/font&gt;&lt;/b&gt;&lt;/div&gt;&lt;div style=&quot;font-size: 16px;&quot;&gt;&lt;b style=&quot;background-color: initial;&quot;&gt;&lt;font style=&quot;font-size: 16px;&quot;&gt;&amp;nbsp;orthanc-anon&lt;/font&gt;&lt;/b&gt;&lt;br&gt;&lt;/div&gt;" style="rounded=1;whiteSpace=wrap;html=1;align=center;verticalAlign=top;" parent="1h0svEDW4cat6tXGmW17-27" vertex="1">
          <mxGeometry width="121" height="130.49999999999997" as="geometry" />
        </mxCell>
        <mxCell id="CianoWygyvogbfJQY6NW-36" value="" style="shape=image;verticalLabelPosition=bottom;labelBackgroundColor=default;verticalAlign=top;aspect=fixed;imageAspect=0;image=data:image/png,iVBORw0KGgoAAAANSUhEUgAAAxIAAAD6CAYAAAA1O3G5AAAABmJLR0QA/wD/AP+gvaeTAAAACXBIWXMAAAsTAAALEwEAmpwYAAAAB3RJTUUH4AUZBTcF2cewFwAAIABJREFUeNrsnXeYHNWV9t9bofPkHCWNNMoSygEQCNCAyDkbhzVe7LWN7cXYuw6fNzh7veuAE5jB2AZjwGCiyUEIRJBQ1ihP0OTcaTpW3e+PqlLXtEZiJHXNdM+c3+N6hGXT3XXjee89ASAIgiAIgiAIgiAIgiAIgiAIgiAIgiAIgiAIgiAIgiAIgiAIgiAIgiAIgiAIgiAIgiAIgiAIgiAIgiAIgiAIgiAIgiAIgiAIgiAIgiAIgiAIgiAIgiAIgiAIgiAIgiAIgiAIgiAIgiAIgiAIgiAIgiAIgiAIgiAIgiAIgiAIgiAIgiAIgiAIgiAIgiAIgiAIgiAIgiAIgiAIgiAIgiAIgiAIgiAIgiAIgiAIgiAIgiAIgiAIgiAIgiAIgiAIgiAIgiAIgiAIgiAIgiAIgiAIgiAIgiAIgiAIgiAIgiAIgiAIgiAIgiAIgiAIgiAIgiAIgiAIgiAIgiAIgiAIgiAIgiAIgiAIgiAIgiAIgiAIgiAIgiAIgiAIgiAIgiAIgiAIgiAIgiAIgiAIgiAIgiAIgiAIgiAIgiAIgiAIgiAIgiAIgiAIgiAIgiAIgiAIgiAIgiAIgiAIgiAIgiAIgiAIgiAIgiAIYoxg1AQEQUx2ptz8IBNkuwuCmAUOJwAZAAPnAHimrJNK3N/VeuTJO8NJf89P5kNKz/+aDUAVAEl/f+1DOE/3PUMF53HOlRCPhwOhzj3BwOG31BH2O04jniAIIjVI1AQEQUw2pn3ycZExVghgDsAWAZgPYAqAYjDkAHAAEDPstXyCI+smAB8CEHSDWT0FQTEVwFMAisCYatjfjCH9hQQQYpB8kGw9nimrWtxTVu6GqmxXY0MN4e59Xf6Db8RGeAcSFgRBECQkCIIgTkzNp57IBbAKwKUA1gCoAZA1Md6O2+LB3iwATt1YVkyPehJGswigEEBB5rYF0//DAFEIimJ2o6tq2TvO8oUvxP3dm/q3PtJjagtm+mcSFQRBECQkCIIghgmIYgBXALgVwHIA7gn3kpyzmLctRxcAHEAEQFj/MzZqI5lzBsYmkkHtBth8xth8Jjk+Zsut3FZ8zpcejfnanxnc8UQrVxVVbxvzO5OgIAiCICFBEMQkFxBuAJcD+AKAFdBiHyYknHMh5ussAVAJIAogAMCHhIvTKE/dOSZw+JwLTDhTkOwrbHlTbitcfcfvh9q2PR1seqdfbyPjITFBEARBQoIgiEksIuYD+DcAVwNwTfw35oISGigFMAhgCIBhHEeh3UgoZBwn9j7GhKWi3TPPM2XlJfa8qp8NbH9iC1djMQBxU1txajOCIAgSEgRBTB4BIevi4T8BzJ40L845U6OhQgClAPy6iBiCdjMhYpTXDJxzI7B6MuBgony5nFu1sGD5bT/z7nn+8Zi/06+LL0NQgMQEQRDEyAjUBARBTCAR4QbwVQC/m1QiQrN1GVdjWQByoAWQuwDYTkZETFYYE6ZIroLv5s6/8uv2otoKaDE0DmiucILeftSGBEEQSdCNBEEQE0VEZAP4NrR4CMdktIe5qtr0dw/pRrBEhvCo1YRbdObckV17QYEfwv+Ge/a16e0YhnY7QbETBEEQJCQIgpiAIsID4DsAvogJHFD90XBBFw5m8UACYvTIoiP7hqwZa2U1HvppdKClTW/LMDR3JxITBEEQJsi1iSCITBcRMoCvAPj85BYRQJJ4IAFxaoiiM/vqrNoLPi86ciqguYolu4lR2xIEQZCQIAhiAnATtLgIOzUFkSI9JsruguuyZ9XdCLAik5iQSUwQBEGQkCAIYgJQ86knlgH4DwDZ1BpEarWE4LDlVn3MU3P2GmhF/nJNYsLYO0lMEARBQoIgCCIDRUQOgG8CqKHWICzREqJc6Cydd5ucXT4dQJ4uWB1IBLETBEGQkCAIgshAbgJwMTUDYSWiI2uBe8rKSwEU6WLCYxIT5OJEEAQJCYIgiEyi5lNPTAHwOVBcBGE5TLDlVl1gL6qdCyAfCRcnCr4mCIKEBDUBQRAZyI0AFlIzEGOyUcqOUlf5wrVI3EpkYfitBEEQBAkJgiCIdKfmU0+UQ3NrIgOOGCMY5OyyZba8KTVI3Eq4QbcSBEGQkCAIgsgozgcwj5qBGDs4BNlZ7CietUgXEbnQbiWcoMBrgiAmMVTZmiCIjKHmk3+zAbgc2kmwBTCAsaPGY2bBUvlBzMLPt/b1uVX9JjBbbuV8QXa+p8ZCQwACAILQql7HQVWvCYIgIUEQBJHOxiKbCmClVZaoGhsKxf3dffFgr0+Nh6Lg4An7maWzkci4EovF/V1+3aA1Hn6yv5mr8V4A93A1nseVqFONhbJ4LJzDlZiHq4odUCUAjPN0GhZgTJBlwZGVLTpyCgXJ7kr9t3CI9uwKOaeiKtJ7cABaKlifLiaiABQSEQRBkJAgCIJIX5YAKE+1gODxcGSoffsB//5X9oe79w6okUBsBGP8pI3yMYbrxmxMN2zjJuN21L+7e8PPuwF8D1pmogIAlQCmACiF5tJjRyIuIL3UlOSQbTkVuc7yhbPt+VPnMtHmTGWXMUl223KrpkZ6Dx6G5trkAeAHENLbPd3HCEEQBAkJgiAmLcugVRZOmYhQwl7/4M4n3/U1PN/IlZhiMsgV3RiP4zRO+MdBSIShnZKHMPyknJ9UwyQ+M65/1pAuIKLQYgLSTkjweBiRvkN90YGmJlfl0oPuKSvrBNmZn7rhIjDJU1QJxjzg3KMLCSc0VzujrRmJCYIgSEgQBEGkETWf+psLwNxUigg1NhQe3P74Ju+eZw/rxp+KxIl+GEBEf2KnaJCPtZBQ9d8bAOA1iQn1JH+38VlRXZR4dRER0oVcWgoJo2O5qrBgy/vdYILXM3X1TUyUs1PVwqIju0iQXR41GnRBu7UxhISot4tCs5UgCBISBEEQ6WQlc57FtBiJlNndQ0c+aPA2/KMJidP8KLST9yA0lxXjZD+CzAioVZG4QfDrz6n47xs3EWFocQBM/2eHyWBOSxGhPwIAKdjyXrcttyrfXjDt2lQJH0F2ZIn2rCw1GnQkCQlJb2uCIAgSEgRBEGlGIYCcVNmbStjr9zW8uB9cMdyYIkicvg/oj08XFoaQSPcbCfOtStgkgk72NoWb2sSvv3sAidsIII1vJAwhAc7toc7df7flVqxkoq0qFU3MBMkmOLKy4O+06yLCgUTciHFTQ65NBEGQkCAIgkgj6zAX2glwSj4sOnikM9J30KsbfTHd6PYC6AbQA6AfiUDaU401GC9BYY7vMN+kjPbfBxI3NIaLk4T0dmlKFhIiAFuk94BfjZ/7gZgSIQGAiZIgO116e9h1IWHD8HoSJCYIgiAhQRAEkUa4kMJA65i3rZ8rsbjJYA7o4qFHFxMD+t8ZGZAyRUQAw28nTiXjlFlMGO5SDJlTwfnorQRXYn6uKjsAXJOSD2ZMZIIs6/unTX9kDK9wTSKCIAgSEgRBEGlkG0q6sZYCc5tDjQQiGB5T4NOFRJ/+pw+ZXWyMH+efT0WUqBkiIMxCgkG7aWJMkDp1UZSC8cMYY0zUP0vSRYQhLIQMayeCIAgSEgRBTA4lkUIbm3OuGCldjXiCgC4ejCJjYf1/O9mMR+koJE73MzLtlN34rSoAzkQ5nOLfn4jDSDzpHIROEARBQoIgiMmLVmSapf5jtRuHCBLZmpKzNKnU+hntqsOZIFrRh+ZYDPNNBLk3EQRBQiJTqDj/Jla8eB1z5pczcFUQZLvAJElQoxE1NuRT40M+7mvdp3a+/QwPtO6lhZ0gMtYc5Cl2GmGGy44RI2HUjIiaRAStGRNCADEr+tKcalZIEhM0bgiCOIZ5//wjll01RxBEmUEQBUG2iVBVxEMBJTLYpQ4c/FBtfPo3GXV4lRFC4oLfbmcQmIcJQg7AyhhjFQBKAJSCGSkhWTYAO8ANP1UtpSNHOH/uat/UCz/pBec9ADq5qnRzVW1TouHO6GC3t/3tJ4PNL/5BTdogMm4zqKtvsAEoAOeMqwo4VwHOwTln4Gn5KhzgnKuqwlVFUePRWCzoiw4e2BJtePA7ahq2bzaAGQAXuMoBpG27prVhFw8FDr9x5+qBkQ2+cTE0DTFhZDjKlOxMxKhN/pTfZLEkIZEciJ5xNxJ19Q0CgAIAMleM/UNN8f7B1aivv3/j1+uiaTL/T6Z9RL19JK4q4Gpq2kdVYoE3vrDSd3wRnJb7oIdzVc+czXU7Q2Wn94u56mve07f5h7fFMm1sHGOz3rvDxgQhG0ARY0IlgFL9KQGQC8ZyoCUPkXSblQOIeypmhPLnnTkw/Yov9AO8C5y3qarSweOxI1F/f5/30Hb/rvu+Fk83WzUthcS6+3aKYEI+Y2wGgDPA2AIAswBMAZAHIAtapozjrO/D/+tRdwjjD0GMAPCLsr1fdmc3117/1b0zrvnKLjUW3hke6D7U+e4zA43P3Rsb4QPTfUAvAfAAGHMwUeIZEPGnG3A8Ao4QgKA9u3DQXVYzULHm2m5wtHGuNnEl1h4PBTp8TbsH2t9+MtK95WU+Tn2zBMCDAHMzgZGReWrGV4xJ0ucAPA3NJYSP8Iy1kDDEhPnhaTbnM2kdmkzvz0beeDKS+QDqARQwUeQsRXkNkue/PVf8dwBP6gIsec6n89guBfAnADVMEFUmpKR9RIHbPzjrRy/d+fbXL+wyCdB0bpMvAvhnxgSFSSkLCRLAeZ+reMptAPZlSDskbNbf73LqgmEuGBYBbC6AWl04ZOuiQfjIpc2wVxN/pYiiFIRsG5Qc7hZnYcWBkuUXbVNj0e0Rb++Bjref6Gl87r5xt1XTRkisu3+3Tatay1YAWAtgKYCpeiekOoDNDsAOxgoZ2Eww1DFBVAVZHnQ7PY3Tr/rilmmX3bEh6uvb3LX5xZYDj/00ZDp54mk8qJ16mzkyzkZgSdOKiQDAGcQYJNkn2pwdhWec21i4YM02NR7bFhvy7RzYv7l91+++OjSGk8imn0i5SROcMvFYwJtjWliNYnDjkRnpeKlSR/0b6uobygHcoc09nvJfzoFIfMj3hze+uOpw0vqTFmtQXX3DIgA36YZAyhcGDt451NlU/843L/WeoP/STehkqqi4Tt93LW4p4WPlZ1+zoX3jE6HEYdLRNMPpazByLoGxSmgHmqlrDiZU2nMKjxQvvfC73VteCie1STraGwUAqi34XE+4rz1bt1+YqQ2MsZFWt3x19+/JBWPzAKwBcA6AuQDKcNxD7lMTmpoNzLLBUM2YeDYTRC5INr/ocDdNv+rOD6Zd9tmNEW/vu53vPdd86MlfhI8KszEcO+MqJOrqGwRwXgHGzgVwKYDVAMqRwlzxJ6WIwfIZY/kQhaWiKH3SUehsq677xDuV597wQrCz6e19D323zdu4M27aLNJrknNuxRX+eG/ONgCFuuhbAFG4QhSlsGhztJcuX7+teNH5r0UDAxu7Pnjh4IFHfzKEYwMdObVvWm3GiAx0ZkGrUg1oMQlhDM+QlNanT0mUAPgSNPfKlJuQDDyoREIbABzRNwfzrUk6GNRzAdwNQLBkbnC+N+rrewpaIDwb4f3TVUxkFHX1DVUArhqTRhLENcVL1p3VvvGJD5Conh7R57+SrvOfcxVa1t/U2x6i7Pj09Ku+cLh7y0t/QyL5QzQt10SL9kHOVRZoO5ALIB+JIpjG2DjZoppWzRMHgHkALgKwHsACbe0f07nPAGQzxhZClBaKovRxZ1FV69SLb99Udf6tLwQ7Dr6175EftfsO7xgzW1Uap86wAVgM4Bowdhm0KyA5zdYNG2NsGpPkaYIkX589df7+pV978LnwQNfTTf/4/Y72t/4WGkEh8/Gd3xxschi6DjBWw5hYI9qdVzltjvbqdbdtLD/r6r8PHtiyYfs9X+zBsafNp90/FmUNmnSE+zoKAVTqm2QQWjXp5OJp4zaNTmFT5Vb+mlBvm1s7lQL0DdUIBlfGfXO1WlyrquBr2p2lv786wvtnkuhMZ9YDmDM2QkIocJVMvY4JYgdXlSFo1eMDuljkpn5NLyGhqkiRO9MIjcKyXMXVd8286d969z/yw616WwT0/zWWrm2S4gYWhrqaSgAMIlEg1I9j3V7HfL7X1TfkATgfwA3QPGaK0ujgQDbZqtfl1Jyxb9ndf/hHuL/z703P37uz/e2/W26rSmPcGU4AZwL4uL5wFWfIELcxQZgv2p3zXCXVn5h967demnbx7Q83vXD/+20bHg9g/P28JzMCGKsUJPkmW1bulUVnrP3w3J+/83D/nnee2/m7r3ZguNvK6U2ilGcNmnxwcBbx9RVCuxoPQasezfXNMuM2TKvFO+echbqbC6D5Zyu6gTFkMrrG9VbUanGtKnEp0Hag2DQ+zCl6OSaDgWX1vnz/nhwAN46dPcBgzy1aW3jG2o09W189BM3V2OzKkqa3ktb+HEF2TCldcfGXe3e8+cP+PZuakHDpHsn1cgLqCFWMeHvKTOtbv2lvMCfBGEubtQjA5brNugKa+3ia26riAtHunO8qnfLx2bd95+Vpl332Ly2v/OndI68+ZJmtKoxRZ8h19Q1rANwH4HG9U4ozcKwzxoRS0eb4uKtkysOzbv73X678zuPn5tYudWN4QaJxqm462fULczJROsuWlfez4qUXPnz2j1+5tXrdbfkYXjAqObsKMbZDlMVD/jzdMC6CljzBDc2FTcy8frF4znFVCPV1lACo0tusEIBHN77EiT2OGbgSkyOD3RXQbrBKoLk9ePTxItBcTsmudjaAlWM5ZySHu7xkad25ep8WQLtxckLzTJikRf047LlFy6dffefHZXdOub42GnNdmthjnYFzVYiHAsXQ4gyKAOTqe4M81jZVXX1Ddl19w8cAPAHgNwDOzQARMZKtepuruPqh2uvu+s3q/3pqXdGSdVn6vpFSW1WwuDNYXX3DLAA/AfA3ALfqg2MiLL75ot11a1bVnIcW3fmr7y78l5/N0ye8jOEFisZu4lMqUgNZkOQznQXl90y/5kv3LP7KvSsYE5y68SGdat9wzslgSQFqLOqG5leapS/O5o0SGbVZWjznOOcsFhgo1g3pUt2QzkobIcEt/H4GqPG4HA/5ywAYKb/zoAXqZ6jwTC90N+MbdYN17BAEljNj8QpnUVWl3qdGZhs56cBn0qm67KnzLqq9/qsX6YcGuSMctIxnu1h5/SqosWi2/s7ZpveWxuqd9UPv8wA8BO3g+2ykNnh6PIZUnmh33uiumPHn+Z/+wU+XfvWB5fbcYkeSrXpagkKwsEM8AG6HlubtTl1hTrxpLwjFsjvn80WLzv/zWT944ZOlKy8p1Ade8oJIG97YTyCX5HBflz9n1QOr/uupT+TOWJwHLSNEuizKkxAOqIqsG8K2cRXeKXkbq8UlZ0oklKsbFfn6BmtsAkJa9KeVn64qohqLFujvb5zQOkwHAsTptfACAHXjIcAd+WVVJcsvmqOPacNwnPR9K0g2Z8myC6+vOv+WxSaRZRyECRl32DJaecIBrqp20x4tY/jBn9UiohLAdwH8FcBlyLjslx9lDgn5ktPzqbxZyx5a+e1H/3XG1V+qSpWtKljUIfN1NfcLaAFcE91YY4Ikz3EVV/949sf+3//Nv/1HS5A4aZVBV/DjvDDLNe7ymu8tuOOn3yhbdXkVtJMv6pvxMl04F0Y4CcnM9ueWfz7jStyhG1mTb03hqshVxaXPWfPtFYmI1Gxd10K76Rr7dVm2yUWLLjhDtDuN28lkkTg512TOIblzSqdc9MlbcqYvmoZE7awJLrI4AG7sCcmHS5atdXX1DWJdfcN6AI8C+Com6KH30RkvSlPseSXfqr7wE/ct+/ofL7TnlXiOIyjGR0jo10I36h1y00RTdKOQfE7ZnXNdyfKL7lvxzUeudxZV5mLkE3AyWsdejXscBaX/XHvD3f9Vee4Ntfqm5cSkv0of3275iP9OAOBcNWJ80iAOa1waQMbI1/A0Z09vv56CMUr5ejw8FTOmFy5YU60LZQ8ShzyTe03mHM7CyoW11/3rtbI7R6uGPDmEFhvLuV1X35AL4GsA/git/MBkOaCQRLvz3NwZS367/N/+/JXys66uQOLW66Tdv4UUdkgOgG8C+C3GKI1cuiLI9lnZ0+b/aMm//v4rRYvOK8exJ+BkNI3PGiXZc4uurrny8/+vdNXlM6Gd8rhArk5E+m+uk9N41uKS2KRuA+u4FMCs8TSWJafHU7LikgW6kWy+lZjEQdfGrGcsZ/qiC2Zc968XQHNrzDHtV3STfvo261QA9wD4T0zwW4jjDjFRLHYWVtw988av/XT2rd9alGSrjtomElLUIRUAfg7gG5gowdSn20GCmOsqrr5zzm3f+a/K826embRAktE6jl1jzy1eP+PqO+/Om7lsmr44p1MwG0EkW1yZF4RuragiTn/PzoOWE398jXXGkDtj8ezsafNLkLiVMN8UC5O5zwXZ5ixZvv66yvNuXoxEEPIkz26VkvG/FNotxK1IvxpmYz0HZdmTe1n52df88owv3rNekOQcJG4nRmUTCSnokFoA90JL6SrTEB3eQfa8kmunX/WF70295PYFoBPwtOkZZ2HFxTNv+rfbbVn5ZSQmiDQfrpSOjUg15wBYPv4amcOWU1hUuvLS2SYhYQ66ntzrMOeQjXiJmoXmeAknJnssyanbrGsBPABgDbVGAtHunF+4YM2Pl9x1/8227IJ8fR7aRzPOhNPskLnQgqovocF8fCvAlpV/3tT1n/5uzeWfW4KR05pR2429yBOzqmZdO+uWb1wOLSMMiQmCICaDIWWHlvLVlRZLsSAKBfPOXmDPLTJqhFD8WpKYcBVVLay97q5rJVd2MRIpYSdBfYmUj/2LdJt1AbXGCIJAspXlzlj8zUV3/vrTjvzSIowcl8NSJiTq6hvmAPgdtEIdxEcge3JXVNfd9p3qCz+xWBcTHhIT47yBSbKrYMGaW8vPvmYREqk1zSc9BEEQE41FAC5IK0O5uKqqeEldDY4fdD3JNyvGcmYsXlebiJdIt/oSmSAi1gH4FYAZ1BonGGqilJM9dd6dCz//i884CitKkbgBO26Mr3CKHTINwC+hFesgRi0m8pZMvfj2fys/66r50E7AJ0nVyjSFc8iunKqqC269XvbkViBR7IuujQmCmHCc/9vtDMB1AIrT6XcJNoe9eOmFCwRJzsaxQdckJmCKl1h74yKMHC9BNsTxbdYzdZt1OrXGqMSE21lYcYmnfMYMjKLyvHAKHVIErVL1BdTcJ489p3BFzZWf/3L+nFXTQVeU6aAm4KmYsap63W2rdCGRBzrpIQhiAiLa5GkArkjH35ZVPac2f87qCgy/laB1+OhWxSF7csumrP+nW7KnLRgpXoL2qZFt1rnQkgHNptYYjYpgiIcC/paX//R674437QBKkCgGOmJqZuEkO8QF4FsArqbWPnWcBRXn1N5w9+2OgvJyDL+izAAxwQCWoidNXlOQ7a6SZRfV2fNKjFuJbH0To8wYBEFMJCvhMqSjawfnkN3ZOaUrL52HkYOuaR3W28lVVLWw9vq7rpGcHoqX+GibtQTAjwEso9YYnYhQo5Fo6+uPvNP03L2d0OJHi5Dw1hhxPgon0SEMwKcAfCatJjVjYEw4+gw3VpP+Pn1+s5BVNevSWbd84xrGhCLTYpDewWWccyU6FFFCgbASCp7+ExmKqLFIjKuKagiUcekrzuEsrppdtvqKRbryNqvv5EnDLBFVxxVbGSQMR/WcsH8pOxFBWGVU3b+nAOmQ8vUEe3nerGXz3OUzjCBPI+ia6iYk2Q+5M5asq73urvNB8RInslkdAP4dWjKgdOm8YTYrkmzW8bZXuaKone8/v/3QU/cc5Fx1QTtUzUHicNU8xo4incR3nKN3inP8+0IAwMHjcUWJBCPRgDcYD3qHYkFvKB4JRnk8pjBBhGBzyLIr2yG7c1yyO8clubLcgmyXGBMYBwc4H8dXkOwFc1ffNO2Kf2k9/NQ9GwCo+sP1R00v44pBiQxFDj39643B9gNexkQGdvS36r/xJNJUMjBBsjHR5pRkT67dnlfichVX5zmLq/IdeSV5ktPjAhPYWPWRINsdRYvOW9Hyyp/2qNFwCMAQgDCAGAAFgMLj0UaVq/+rRsOe2JDfFQsOZseDvmwlEvKoSszOVUXUC2ilaIwIQt6sFTW2nMIca9qBYairscvXuKs9scgdM95S+cWMc1X1tzT0JY13EhEEYb0BuhbAkrT9fZzDnldSUrryklmHnvxFB7QTUDeAgL4WK/oz6RFkm6tkxcXX+5r3HGnb8Nj7AKIA4nr7cGonAMBNAG4fd1HFGBgYVDXO1Wg4Ggv6grGgdyge9IbiIX9YiUXjAIcg20XZmeWQPLlOmzvHLblz3KJstzFBHDN7tX/PO/sPPPqTHWo0bOgD83Pcui6jEhJ19Q1lAP4DQMV4dgYAqNFwLNzX0e9r2dPhPbity9/SMBjqbRuK+vqiqhJTwLnZGAcTREiuLMmRX+bwVMzIypm+qCRn2oIKV8nUEsmV5QZjbHwEBYfocBdUrLn2Y/0N77YP7t9sLJLG74+mlXHFAK4qqq9pZ//A3vd79b9VTA8/xd/LTVJdkD05cvbU+blFZ6ytKph3Vq2zuKqMiZI4Fn3kLps+M3/W8im9O9/yAwjqjyEm1Nc+t/QggP/WN7ciAJUAqqH5EOYknZylYLNwiMu/8ecce25RDrfi/Rnga9rTsfPeu98z9YU6gpGf2oGvfXZMH+OxpHFPgoIgUkzd/XscumHlTOffyURJLDrj3IUtLz24LRb0eqHdSvj0g50Y0u6AbfxEl+zJLZt68adv8bc0dPuado20lqqTtZ3q6hsWQjv4do+XwcQYg6rElKi31+dv3d/pO7yjy9u4s2+ouyUYGewOq9GQwlXVvO9xxgSIdqdozy+zu8umeXJqzijKqVlY7i6rKZU9eTlMlATNFkpxtzIGX9Puln0Pf/+DqL8/ahKjcX2fjujjKz76SX2ZAAAgAElEQVTSuJJG0SEigH+BdiMxPgKCcx719we8B7e1dG1+qbG/YVNvZLA7ZBINhuGjJP3JuarwWGCQxwKD8Lc0oGPTM/slp8eWM31Rfsmyi6bnz109y5FfVsxEURxzQcE5HPklc6df8S9Xbv3ZZx9U41HFdKpgGFvpumgqpgEWPd4AG71JCwCcxQKDrG/Xxp6+XRsPOwsrt1Sed9OsstWXr7TnFhdb3ReyKyunYMGaWb0732rWhYHPJCaUpE3MeP+Q/v8RkHBNS9HQZyITpLilvZ+QPKreh8ZicTr9ORohEdHbLaT/swK6nSAIq+b5EgBr099ABlyl06YULb5gavvGJ3qRCLoO6OutQutDYs9yFVefUXv9V6/Z/ssv1MfDgZhp/eZpbj9YKSLcAL4OYOZ42axKeCjiP7K3rWfrq4d7tr/ROdTVEuRKLI7hHifJ9qrKucrj4SCPtx9EsP0gure8fFCQ7bKnsja7aNH5VYULzpnlLq+pEu0uh9arPCW/N9R9pGf/Iz98N9jZGDCNnRAAv24HGYerkZHm4GhuJM7EeMVFMIZYYDDYt/vtA62v/3X/4MEPB7gSV0wdETcZP7HjGEKGMWT4DYrxUEA0jFV3+fQPKs+9cU7x0rqljvzSUl25jOFLCixn+qILqtZ9bFfzC/Uh07uYB1kaLQbMbEQHRhhg6mmYswyJ6zMp1NsqH3jsf9r7dr+zr/b6uy7Mrp4zX3MgtOjNBJHl1CycIcj299VYJADtat18GsZNIsIwhAf0f31IFxKp808VmCjItrC1Hc+MsRXX32lIfyKmOWSFkIjq7efVv4+MBIKwxrASAFwPLXAy7ZWEaHc5S5avX9DxzlP7uKoY7k0O3bAxr8MEY0Ju7eK6Gdf9a9PeP//Xcxh+qJeG9sOYcA3GIyGQFqgc8x7e3tz25mMNPdtf74qHAtEk4ZBss5rt1WTPDgZAUGMR0de4q9fXuKul5aUHtxUtvqCy/KyrFmVPnT9TdLhcp3UAzhiivn7/wSd/vmlg3wf9SHjDGCJiAECf/qffZBeMXkjU1TdkA/gKNNeNMe0QHo8pg4e2NTX/4/7tvbs29nAlbp4YRgdEoJ0Wh03/HMVwf0GzkBB0Q1XSjT5bsP1Q376/fL+1871nd0y79I7V+XNXrxAdLvfY3U5wiA5XTsXZ11ze9cELTeG+9pips9LL35EdXZAUva39pkEWROLqmZ/SJ2v9Y+4jGwBH/553enfd190x79PfvzZn2vzVVkUicXA4CyvKPOUzCn3Nuwcw3Ec3Ynq3uP7+Xv1fDWF41ozU6AhRlkSbMzQGe4AhyocADOpP4HinDyn8vrDpxMOq7yKIyc4MAJdn0g/OnjpvVu7MpWUDe9831mGvvsdE9fWD0Vqh7xOy3VW68pIb/C0NrW0bHjO7oJjth0nRXnX1DdUAvoyxd+HjQ51NPUdee3hb+8YnWuKhQAzHugdFk2zVCIZ7dJgF4NGDb7O9Ggt67e0bn+jq2vzC3tKVl02vXHvjmVmVM2cySZZP2mbVbk7CzS/Uv9f57rPtSbaND0A/gB4AvbpNMGSaf8PE/EfdSFwCYP1Yi4iYfyDQtuHxrU0v3L8/Fhg0+2sZRrYRDDukLy5D+t+FjiMkYDJUh3WMftLh8h7e0b/jd3e1Vq+7bV/1BbdeYs8rrR6zecc5XCVT5k+58BOr9/3lB4OmwRXDsS4143wAMsytxziR704yBk9HqhhiQtYfOwBnsP1g376//OAPC/75xy5nYdUiS5qCc0iu7KysKXNLfM2723QR4TKJhJhJzIb0fyumG8MpL2An2JyyaHeGLO51c8yCISS69T/NJ4BWfWdY/54wCQmCsITLAdSkeiMI97b1iQ63Q/bkpvbgjXPYPHl5pSsvnTuw9/1mJFLB+vV1Ik5dOry99HiJm5PiJczuqeokaY2PA1g8lgaRGovG+3a9tffgEz/fHmjd79P/F8NeNcRDsr06ZBITI8W3IElISLod4gDgUMJDrrY3H+3t3f7G/inr/2lJ2arLzrNlF5aezPbJ4zGlfeMTW5tf+sPhJBFh3EQYImIAiYQHJxcjUVffUAjgs2Oq7BjDUFdz98EnfvZu1wcvtEOLMFVNAsLoCL/pCZiERAQj30aYXZuSxYRdf0eXGg17mp6/ry/QdqCl9vqvXu8przlDTxFl/atLsly0+Pzz2t762+5A6/6w6X3iJuM1XYws84lyQD8tGkyBMciSxIS5j1zeg1sH2jf+/YGpl9z+bdHmsOSaXpBstqyqWSX6hDWEhDl3sjm43HDREWFBFWx7TqFNkO0RK7udDe/PiN6fg/oCEoR1rgTc1JbHu9olCOI00AvIXpfqtYkritr+9lO7sqfNKy5auHYOT/WUFQSWP2fVfGdR1fuhniNG0LUTFHR9XDHhKq5eVHv9XVdv/+UXHoiHg2YX6UkRL1FX3zAbwCcwVlmatMJtodbXH9ly+Jnf7FW0Nje7CRvxkwEk4gwCGB4bmCwikl3xj7mV0O0RFwBXZLB7YP8jP+weaHh3f82Vn78kq3ruYiaI0kd2M+e8Z9vrew4+8bPderiAYrLnBvT9vxfarYRf/73HdXU+0Y3EpQBWj90wYPA37zmy96HvvjN44MN+/S+NK6GQqTMGdcPV6BizshspNoKfwFAVR+icrN7tb/iivr6eOR//j1uzq+ecY6VfvnkhcOSXT6s49/pl+x76Xg8SNyxmMZEG15MsOVjIfEuUHJR8CjbtsAlkFn0BAK6m5+97q2T5+uc9FTM+bs3aIMBZWFkAMAfAHSYhYS5Ox00LdBwW5e3Oqp5tEyR5rE7f1KT5ZiyAp+quNloxwZPmKhkGBJE6zkeqT2gZQ8TbM9j53rMtkcHuofw5q2sFSZZSuzJwOArKykqWr69tev6+LhzrZkqpYEfYvHJrl1yoxUv89/OYfPESt2Csii1q8buBxmd/u6nl5T8d1mphHbWHwvr+6UPikNUcsGzYdckuaMniONkWknDsAbgHgKdn+xveQNuBttobvnZh0cJz1wt2h+e4t4SMYfDAh437Hvnhh7oLlhHzaXgk9EG7jejTf3foo8S7cBxllwvgNt3AHpNO8TXvatld/823dBHBTR1i+OF3AWgD0Kr/2Q7NBaNPf3lzJyVfGRmPkWUobDKW/KbG6wbQAaDd17hz754HvvW7QNuB18dq4jFRFAvnr1nlLKosg1ZkJrnCcjoVmjGLiZFOlk/2iZv+NPeV4cbmBzCgxqOdgwe3PsmVeI9VL2bPLcqRHC4HEleJdgwvFmgOuh4peCoVTzR/7pkxxgQ+Rn2ZLA7NcyZqwfuNlB2KRARBpIi6+j0uADfr61dK8R7ceiTYcTjYu/PNznB/R68VF/eCZJOLF1+wUHS4cpBwb3Km6X6YFhjxEhVrrlsIrbBqdlKbYSK2WV19Qw20hAJjIyKC3uDhp371dvOLDx4yiQhzAhbDljTbq526gT6gG+iGN40R55u815rt1bDJXvUiEb/QoX9+W6i37dCu++5+pHXDow/Eh/w9I4aSMoZg+6GOfX/5wbvhvvYhHOvWbBYR5kQoJ9yjjzf7zwGwaqw6Jdh2sKPhj//5tr+lwYvhqae80K5XOpM6o9vUGYZ4iCYpPPUEj9kANPuwmQNMOv0tDfv3/eX7vwn1tr4zNqY5h7OwfErZqsvnIVFR0FxhOV0XAJ6iJ7mGQfKtxxCAQMc7T21VouGt1rwIh+TO9ogOtx2JmyoHEhUdzS5MPMXvP+xxFVeNh3HNk4Qit/gBiQiCsGRzXYaUp23XUlt2bXmpCYAa7uvwD+7fcsiS5CQccFfMqClccE6VLiKycILquoRmQ8juvPKpF3/65qzqOVP0A8ksDHfPnYhcDmDWWNirSiQUaX7xgfdaXv1zk14lzuwW1G8SEW36n10mwzz5RkIZhb2qJtmrxgFrwGT8dwHoUGPR1n0Pf/+55pce/HUsMNg2bIowhshA18CBx/5nk69pl9nWHtJ/myEiejFyNsXjTvJjBtW6+3fLAK7FWBTyYAyRge7B/Y/9zyZf487BEUREny4cOkwCwvDZGkrqDPUUDJ/kTFBRk6AYANDb3/De3qZ/3H9PLOjdOxbrFpNscuHCcxeLdme+LiSMxXOyncIk95Uh/iKDB7b0qrGIZeJOlB02W1a+4c5k0x85afOyVEQAgGh383Fse4zRe5KAIIgUs+73u0QAN0A7lU7hls0w1NnY1b97U6+xX3dvfbVBCQf9qd+WOCSHx1264pIF+oGacSuR7GpKJLWbq2TK4pk33H215HAX62Ii+UBywtgQdfUNedBSvlr+TlxR1M53n93R/I/6g3ods+OJiPYRBERyUbeTtVlVHJsJyhyn2msIisNP3fNqy8t//EV8yHtEq/XLEB/yBxufu/ftnm2vdyTZ2sYBuhEXMVLWxhPu08KxC4UwC8B5Y3BaAiUSija/9IfNvdvf6B7hxQyV1an/2WvqkDCGBxKdjkEyorGKRI77gdbXH9nas/2NX6vx6MBYTAx3ec30/DmrqnURka0vnul+KzEWouJokLcaj+0E5yFrxJwsSa4sO4bH0CRnZaLTMIIg0hImiDOhZV1MKaoa570732qMBQeNdNixgb3vNYd6Ww9asiIyIGf6ojnZ0xaUmMSE+VYi5UkuJsYAYELuzKUXTr/2y2t1MZmj2xHmA7GJ0m4rACwZgzaF9/D2pkNP/mKXXjzYcGcyApR7dHu1M8kgD+PYLFqna6+abyoMu9mcKKX78NO/fqN1w2O/UCLBTh6PRds3Pvl662t/2YvhsZDmDE2G25UhIkZdlHYkRb8WQOVY2Ia9OzfsPfLqQ40YXuTLb1J2XUkvF0qhgPgoQWGu7De47+HvvTzU3fIYrD5B5RySMyur8Iy1s/RF01yQZyJfTZ7UJOJKrEXvGys2YVG0OY0FVzI9E20BJghiYnIlgKmpNqSivj5v95aX25A4+IvEQ4G+wUPb3oGqpj4xBOew5RQUlK26bA4S7k2T/WBtVAiy3V228rIbys++ZiESMZfJ8RITgYt1W8lSERH19fsan/nt1oi3J4zhRVUHdTu1CwmvGaOQreEaZEUcYHJsoyEOjt4wHHj0f17r/vDVX/XufOvxQ0/98g3OVSMcIGiytc1pXs0plkedZGXYYFp3/24ngIssn5yMIdTb1tv4zO92qbFIPEnZGZ3Srf85eByFZJVBn3z6HQEQjA/5+9o2PPbHeDi4cwyOk5A7fdFMW1Z+nr5wjuQbOlkXUA6Ac877kKjlkNJPZ0xgTBTNKWglk4ij63SCINKWuvv3lEJzT075HuE9vOOI/0iDD8ODNAM9H766SYmEmq3YlpggCgXzzppvzyvJQ+JWwjCI6XDnBCJM9uRVTL3k9luyqmYfL14io9ttnTbW11r+RarKuze/2NC7c0MPRvaeMU70zelSkw+9LbWJMLxUgiFw+vb84dvP7rz37gfjQ/52/fcNIFGx2vy7R8rQNDrROmzCgk0FsMjy8a3ElY5NT+/yt+zxJi1Ihp+XOWrcqGYZx9j6VBvfdfQaqOWlB/cPdTX/EZxHrf5qR0F5afa0BaX66YtxnWu420x6Y1aQ7YZ/oAVCDgATBAxPE2y+RqdNiyCI9ISxCwAsTLktFQlHu7e83MRV1XDrMGIKA707NxyO+vs2WFUo1FlUVVmy9MLp+j5I++FJ2BLukqmLa2+4+2rR7kqOl8h4EcaABbA65StjCPW09rS88qf9GO49Y8RFJMcWmE/0MUY2a7JHjTE3vWos0qeEg0acsRH8bTzdGJ6hyZzufdS/W0hqsOUASq3tFAHBjsautjcfbdL/xghW8ZtUUj9OMmp8rMREx9t/f06JhrZYfZIgOdzuvFnLq5HIFWy+zp30fqGCJFs3HjgArhpFYQTTZkX+uARBpC119Q1uADchxanbGRMw1N3c3bdro5F22yhIatSb8QbaD/2Dc3XQkvXeZrcXL61bKMj2bBx7K0EHPCe2uYS8mcsumnHtl88FYCRxmRgeDoydDasTA6kK7/7w5f3BjsMBJFyajIPvfiRKEIyl58xH2azmmhaGq1MXTOli9X82vH4MEXFKtvZRIXHerz5g0FK+Spa+pRJTu7e8uD/c3xkyKScjsDmdRMSIHdPyyp/aIt7exwBubaEwQWTZU+dVMSa49Env0hdOGy2cgCDZRDBmT/3CBHBVUdVYRDUJCUYbFUEQGcBKAGtSvgmqCu/dtbEp6uuLYLg/tuFrHep45+ktPB770KoXy6qaNb1g3pmVSNzSO0GpYEdlwgg2u7ts1eU3lJ919QIcP14io9pw3f173NACra0UKggPdA+0b3q6GYlDZfPBdz9Gvong49rhw12djN9rFhMd0G4jBpHIKHXKXj9HhYRoc2YDOMPqTokMdA10vvf8kaROMWIjBjDcnWm8RYS5Y45W/h3cv+VlVYkfsvornYUVxfb8UmPCm9PeTfqFU5BtWXq7pL7l1biiRELKcHkxTEjQpkUQRFpRV98gArgR2olzSvftqL/f373lpSNIBHYereuj79fhrg/+0RMPBZ7FSfpXj25R5pBc2TklKy6Zj0QSEg8mSBISrsTiXFWsq9StxUtUTr30M0a8hBF/mcHtx0swBrUjBg9+2BI4ss+PY2MjBnBsZiY1nRrIZLcadvYANDes5FuU07K1jw4eJgiVSHWWh5E65cDWlmDH4SCGx0b49JfyJqmj8VZ2yagA1N0PfKtJjUZet3oIyFn5OZ7y6XlIlEN3grJVaONVlMpg0ZWmGo/FY0Hv8W6cSERMoGFETUBMIOYAWG/FNPE17Wr1Ne7ymYwps1vT0ZpOwc6mV7mqNlszWxnyZi6d66moLcKxqWAz95aeMYT6OvoH9n1wyFp7h8NdMnVJ7Q13XyXanUXQbiaSM2BlTPsxsFoAJVZ+hxIJRXu2vd4ygkHu1R8jsPojqz+ngZgwi3/zvD1tW9usQqcCKLDUCo+Go707N7Ri5HoNXiRSvMbTTNnB1MgKuBqOBb2vWlXHwPg60eawu8un5ycJieSaBpPSGNIXkSwLPhdKNByLBQajI7QtFVAbf8OfHfNf2Sk8x04d6tdJJxzZqT0sbZfcqwBUW7Bvx7o/fKVRPzEf8TbCMKT2Pfy9Q2o8as0hG+ew5xYXl668dBaODbrO2FsJBgY1Fo0ffvrX2wJtBzosHV9avMT6Gdd8ZS20eIlcJAreZlq8RK3+2y0TeJGBrsHB/Zv7kwR0ANrht1EYOZ28Z45nu5rjJqL6c0qB1SNhjoeYoU9I6zplsMc7eGBLHxJuTaGkThnLlFmnIybUUG/rNkd+aQtj4izr5rwouktrCvRJbod2DZkccD3pDKBzf75JBGMrrfr8WGAwqERD5jGYrNbJ6ByX2cd94HwX56oTXBG5ErdxNS5DVWTOVQHgwkl8FlcjvpCpf839mo7rjuFSopgOYuKmtXK8zCA1M8YOBgG+C+A2zlVJGzOKDaoqcW3cCOCjbkauxsMRpFGV9rr6hnJo1X1TvG0LCPUc6endscFcNDZZSBw91fS3NIRjQe8zomy/EYyl/MaYiZJYuPDchc0vPbgtFhjw6mJipLSVGbVGM8ZYsP2g//BTv3pvzsf/Y52clZd1EuPxpCaCYLO7y1ZfdoOveU9rxzt/jyCRFdNcOTkTGs1StyYGhkD7wa5wf1cYx9YW8+PY2IL0XgE/+p9TICQYm251pwQ7G3vD/Z3mYh6GkEi+Zkn7RaB7y8sduTOW7GKChUKCCbDnl+ZAu4U4npCYdMjurCoAZ1r1+ZHBbr8pRiK5kiSJiHEi1Ln7AyYIl0d6Dngi/Y0FSrCvQo0NVXIlVsy5mgXObScxL7ga8UeSjPO0618mCELhgjXVrqIqu2B3DsmurKm27MLZjvyyPltOYUByZkUF2aYyJozD7+YqGM7OhHUo6j3yGrh6aczb4YkHewqVSKCCxyOVXFWKADULfFj2n49+8dhQ2CToksfOeIyhCwHMT712V9G3552myGB3sjFliAjDrcNoAwzu3/J+ybILdzBRWm2FOeQqnTqleMkFU9s2PN6DRI2lZF/vzIOJrGvzi23Z0xa8P+XCT5zDREm26EAGsie/ctqln7nZf6ShO3Bkn3E6bR7Hab3Xnfvzd2RY7IqvqnHub9rdA/AT3cSl88H3icRESpEAYM1P35AAlFu75Sg80Lq/13Q9Gk1akJIj3nk6d8aRVx8K1V7/1Z2AfK2VX2bz5Hkkp8ceDwVkXVDYMMkDrpkgrgdgifDlXEWo54jXJBxU0wJLQmIc6XzpP6PQAsWMmwRDXAv6emIIiVHvFfrmEBphU0gT20ISy1ZdvizpVIan0dTPBFcINrD1rxF97Bi1ZxymsRM5hbGjmMZOJMkQG1MxUXf/nixoQdapNTwZQ8w/EOjaPGKQdfA4+zbb+bu7egoXfvAPyelJvZAAh2h3OkqWXbSwfeMTe7mqGrES5oq8memCyrTbgMbn7t2WPWVudv7c1cutNGPcpdOWzLz+q1dt/9Wdf1QiodgIYgLp2o6Sw50FoMjKzlCjkaj/yN5BHBtjEETi4DtzhWsKEQBAdue6ARRaqu6UWDzQtn8Qwwt6DOmPcaoRz6BOUbkS36v/ZoumOofkznaLdpesbxKGkJi0MRJ19Q0VAD6lC6nUd2osGvMf2TeI4X6FStIGRWJi/ES84c5nuEaa68/0nsRjVPQ0Uk6nr2slY2zYA2YuljjeD8uQcWMWj+YkH/2nOHaMzCcDSWNn7A8bGFsFC25oGRh8zXtafYe3e3Gsj7jhRZC8b3MASri/40XO1Q6rXjl76ryZebNWlOPYVLCZvC+qAJT4kC9w8ImfvRjuaz9gcbyEmDdr+cUzrv6SUV/CiJdI+/oSTBCz9N9s2fFIPBwMh3pag6b9JmKyVyPIrNsIa4WdfvDgQKpTxiWdbCjRcDTUfcScrcm4kRgpcjwjroi4qrQCPACwXKu+SLQ57aLNYdxAGLcRk/JGoq6+QQLwOQDLrBqn8SHfUODIPq/+N8m+6HT6kB6brZE9w6evYVFop8viSRi35mwWRjo/P50yTWgRmjx2RL2/jRSY7BTGjlGYalzGTt39eyRoBeiyU/3ZSiwS79n6apMajxnrn1GIy8jWFD6eeGp55c97Z9/yjY1Mtl+f+p7kkN25uaWrLp3b3/BuExIFWw1BF8/E8clMAbHewzs6j7z28F9rrvj8Z0W7q9CaIcUh2Bzu0tVX3OBr2dPa8c7TmRMvwY4G21v08ZotoCddMWzWiD7mjeQCtE+YhQSYYLeyUwBACQcjscBgBMOvicL6nxnZKVxV+sHhA4NlQkKQJElyZRvl7CVdREhJQmLCB13X1TcwADcD+Dwsys7BwBDqbesf6moKmhbRuL6IZJLQnQxCIqSP+7huQJyMj7vZIDT7fQeRvlnjiNSIiZhp7MR0QXE6Y8dcmG3sRShj82BBylfGBIR72/p6tr/eieE1nwwf8SEMdyWC6U/W9uajwRlX3/mMTbZdAVhQOFQQWP7slfNdJVPfH+pqMoKunUhU6M3IoGuT0RpueqF+c96s5Q8XzF9zBxMEaxLhcA5bVn7VtEvvuNnf3NATaDuQKfESTliasQmIhwKRWMgfO47NGge5Oiemo7ZoMBkWFfcyDDQlGo7GQ4G4aVGKmkREGmQfOYU5qChG+i8Le0gURIfLcGUSTSJi0rg26TcRtwL4MWCdaONchbdxR4cSDcdNi4c5VZqCNPcdnSTGoDmfdz+0Cp1Gtc520z+f6DH+f536vz+gf166p/IjTs9IUzC80mu3PgY6TuIxj50efewkC4mxGjvXwIL4Rs5V9O99rync1xFCIjmKMecMwX081w4OgPtbGjZyVd1nlQHsyC8rK1mxvhbabUQWhtdEEDJ0bUsIVM4D+x7+/t/DfW3PW/217tKpS2tvuPtK0eYsxvD6Eunq4uSERe7NRxeLaDiqRsPKcWyBeAaLVWuEhMlAtW6oxqNxJRoyG2ixTDfQOFcNXzkLD5wYE0TZEA7SCEJioouIEgD/D8AvAJRa2NCIh4Ohvl1vd2D4bUSykKBTiPHdaJPFhOHr7oVW1HJQN+w+6jH+v4ZbSnIhTGJijp2jJ756n/tOctyMNHbMgZdjNnbq6vdUQasdkfK1MDbkC3Z98EJLkhFluDSd0K3J4MP//UybGo28ZNmSLclS0aLzFkpOTw4SBeqcGH7DlEF7JDOLiTiA6FB3S2/TCw/8Nj7k32rtV4ti/uwVF0+/+s5zoFW9zkE6x0toGfos/T1qPGbYpWablbwTRkDSDWLGrFTwDOCqyrmqmLPgZH6nqKrhN2+tlBDF5ADHdLmRsKS/zvvNh0yU7SVMEC4C8M8AVlp9+sDAMNTZ2D148MMBHHtrZhiY5BOZXmLCEHxmF7/T+TyAbpxo7GTM2GHrAcy1Yi30t+xtHzy41VgLza5/xm3Eidy4jL+LR3y9z7nsVf8ExvKt6E1P2fRphWesndL57rN9SBSoy/RUsNwkeCOtr/9lf97MZf9XvLTuJ4Ikl1j1lYLN4Sk784obfM17WjvffSY6gn2WPvESjFkbI8oBrhXyMNfwMcdL0mFTspAAHwMj/miykWGdkrb520eDIMkMzGpDnnOuKEa2mnQUEafcbzk1C9nMG78uOIurJcnpcQiSXArGahnYOWBsnb5J2sfiZVQ1rvbu2NAYH/JHTeMzbNo0Kbgq/QzCVAta6lsaOxkxdurqG3IA3AALPAnUeFTp2fZaoxqLmIOsDSERwElkN+ve/NLO6gs/8b4gyeut6ErR4XGXLl8/v/PdZ/cj4d7kRKangtUw2j68676731pR+ti9WdWz72ZMcFhkasCWVVBdc9kdN/tbGnqC7QdHjJfg4NabPR/9W63N8MkAQZREjFwMlG4jRhQS4Ib6tWzpFkRZFGSboISD5uJeGd0pot1pA5hs8YThqhLjiUQbSjEAACAASURBVOF9zDNWExeCbJenXXrH4qoLbpkhyI6w5HD7ZXe2T3Ln+CWHOyxItjiYwBljo+1LWT9BKgJjZQDKAJSMlXgwi9xIX+dA53vPH8Hw9MRh00PBVelvFBLEZBk7ZwFYlfq1UEC4v6O/Z+trhounEWRqiIjRFo7lANiBx386WHHOdc8Intw6WHGrzICcmjPm5NScUeo9vH1QFxNe/fcaGXcyLRmJOc24AiDKVTW+96HvPnzG5/5vtj2v5Horv9pdVrNs5o13X7n9njv/pMYiyfUlEkm4x5eY1X0qyA6JiZLAlfhIRWlp70kWEpyrxmJh2awQZLssOdxizD8wYSoFM0l2wcIgdU3iqapeZXn8RIQxsSSbnD/vzDnaqsyHiYzMNilU3rP9jQPBjkMBDPehHjJtnDFaRAiCGG/q6htkaAXoUp9pkXMM7PugOdRzZMi0FibfRkRHuRZyABjqano927WwkQnCDCt+r5ydX1C66rI53sPbj2B4KljjACiTMfzzuffg1p7WN/76yynr/2mG5PQsts6wEcT82SsvnnHNl5r3//XHL2J4Qpyolql2nLdszkPMSlcrDkgOl01yesRYYDBZ3NH+n2wbAgBXlIhWD8G6XhEdLrvszpWP0xkZ2TFMEHP0ExDrVhElpsSHfLG0eWmugnNVEw/Gk8kwhlBve1/rG48exMgpHZPrnBAEQYwnCwDUWbEWxkP+oa4PXmzGsdV8k7M1jfoQcOe9dzep8eirFu7DrGDemfMd+aX5ODboOq0Lq320OTssXiJ6+Jnf7OtvePd/1Xisy8qvFWyOrLIzr7yxdOWl86AFX2frbSpxVR3/tuTcqEFmUQtwSM4sp+zOkUg8jFJIqPFoGBw+K6eDaHfZ7Xklhm9f8sTOzOxDjBXDgkJAw4RENBzVbyRAg9mCoRmPKx3vPLUr0LrPj5FP4IzqrRQfQRBEOnAdNDfQ1G5nYAi07u8Y2L+5H8MzoxlB1ua1cDSHKhwAD/W0RmKBgWfBud8ioxLOosrK4mUXTUei0rUbw4tUZvQ2BVO8xI7ffOWNYPuh+zhXrcsYqcdLTLv8s7d4KmZUQUsJmwXAwVVFHPcGUeMhaw+/Acnlcdlzi5Nt1kmRcv+UhESwsykIoM9ShSvJsqeiNiepMzI6hSkDmw4L/fkZGGJBX8gkJMynFGTUnr4QhLdxR/ORVx86PMLG6cPJX+UTBEFYRl19wxQAV1rx2aoSU3q2v96oRIZiGDnI2kj5etK1Mvob3tusqsp2ywwZ2W4rXrJuoSDbs5EIunYgY1PBHl9McCUe2P/IDx+ODvY+Y/VXustqltVef/eVgmwv0sWEm8dj4y4klGjYD44BK4WUYHPYPJWzcky2qoBJVL/rpIXE5h/cGuPgHZbabKIkeCprC3BsCtPM7RiGBZb+bgZE/f3BeDhozmdMvnopEhGRwR7v4ad//WHU329UXI9CO3XzJwkJc6VUgiCI8eISALMsWQ8Huga7P3ylHccPsk6uZD1qdt//771qJPSclQ2TVTlresH8syqRKFDnwvCiapksIgBTTY/+ve91t2547JfxcHCbtdukKObPWXnx9KvvXAPNxSlXjUXkcW4PFmg7GADQa6lxLNmkrOrZhRPKZrVSSADgUHmTtTY3g6d8RonsybXh+FWaM4a6+/fkAmyBpasH54gMdgfAVSXpVCLjA9XHW0QokVC05ZU/be7btbEXw3OlB6Bl/fAhkfmD3JoIghjfPae+IQ9ayldLToQH9m9pHupsOl6QdbKL52jXw6N+/qG+9pc4V1st2iwhubKyS1deOh/D3ZvMla4zXUwMqy9x+Kl79vY3vPd/ajzWbeXXCjZHVvlZV92kx0vkKtGwfbybcuvPPxvj4C1W26xZVbNKRIfbZrJXpQkgTC0TEuBcOQgLMxxwcDjyywqyp8zL1TtCRiIYKhMV3nRLTobMbabE1aGORq/pNMKcy5huJU5xeeBKXOnc9My2lpcePIThLk0BJKrW+vTNk7I1EQSRDqwBsNyKg5V4KBDu2vxis2l/MW5njSDr006B3fT8fft5PPaWdUs7Q27tkrlZ1XOKkQi6NldnxgQwAIfFS+z87VdeC3Ycvo9zHrXuG/V4icvuuMldVlOlREOO8W5FNRJSofL91jY0h7Owsii7ek6OSUgYNiuJCRNHi9nweLwZktwPsGLLTgycHnfBgjWVfbvfPmwSEnJSp2RGzmeGswEUWvkFaiwaC7Qf9OLERVGIkxERqqJ2b3l514HH/2enGosYheeMK3wvgAFdSBjVUePUzulDXf1eFgsH4G3ahaHORkQGexnUU/E64/A37uJ9uzcmb9LEBGXt2vNYPB6Hz+dDKBRCNBplp5YUn2NwcJB7vd4xGzvr7t9jB3ATtFP2FK+KDMH2Q50De9/rQ+J21ogVS64dcWqTDUDne88Nzbzp68/YcwqvBljqi6pxDntOUVHpyktm+1sa2pGIlTBSwQpIp+rMpy4kYIgJNRYN7n/0xw/N//QP5thzi6+x8mvd5dNX1N7wtSuUaNiVFg2hxg8yUQxDi4WxxGaV3dlZhQvPrRzYv7lJF6Q2HHsAPun3jaNCIurvb3HaK9rAUGzVlzFBRP6cldNtWXmbo/4BG7RrRxuGXz2mfaesu2+XB2DrYXV8RGAgEOxsDGDkMu10Sn5S7andRHR/+MruvQ/995ZY0Bc1newEdfHQrz9eJK7yqZ3TRkQ0LAD452WHWy6cvQKYvcLolVOZh1yJhf/42meXbNDXHp60/vB0GrssTQ+/ODIjBfTateetBPBpSZLE/Pz8pJX2pFEVRfntW29t2KwbFJaPHcZwBoDzrWgbVYmrvTvebIyHAjEwpgKIMbAwGIbAhCEmCBFBdii2rHzurpzJPOW1YKI0+nbjHEO9R1jn208yX+OuTYUL1jQwUbKkDgITJbFwwZoFzS/+4cOor8+LRKXr5Fi3TF7PDXsgDiDSv/ud7rYNj/+i+sJPzJAc7oXWLUNavIQSGRoc5znPAUCJhA4Kkq0XjFVaZ7NKLH/emTPkf/z+w1jQa9NFS7K73KQXE0eFRF/Du4MVZ1+9izHRskInnHO4SqaWFy46v7L9rb91653iwLG3Eultk4rCEgArLP0OMIR72/rDfe1hJNxvjCqTRnGY9DN60lREqNFwtOPdZ7cfePQnO2JBryEQzCKiD1rw1gAStxF085NeVAH4pLaQs1M3A48eaMW2ANikrz1q0pMWmwPnKg91H+mJh4JhxhhLq/nOOWRPnttRUFaQAWNnBoBPmfe807K9FeVVADvGbuyw6wCUWNKNqqLmzz2zOnvq/EImiCqTpKgoO4ZEhzsgu7ICosMdEm2OKBMlBYzxUxG1HMD8T/0346oigDG3dWMScBZPqS5evK6m9c2/9iARdB00rekTZT034iWEQ3//ZUNW9Zz/LZh/9k8ESS6yqnFFmyNbtDmy0+HlI96eDsmdfYjBOiHBOYe7bFpl0eILKto3PtFlEhIZZbOOmZBo+MO3o+Wrr9jMBPFj1jUOh2h3OspWXb6g891n96qxiHMEhZfWJwZ19Q0itIC3fIsNCPiad3dzJW7cPignEBLECURE1NfnO/LKn7c0v/jAQSUaNlXoPOrOZIiIfmixEZSpKS3hHGApG/Mx/4ADgJHeL66PCWN+pUXfcyUeb3z23g+6PnihQ5Akpv0ulhaZ29R4TJ16yWdm1Vx2xwVIiJy0HTwpbCsejUadprFjrMtRk4GXuj3n/j01sCjlKwAIkizlzVo23RAI3NxMPDVbMQMAJoIJouXdLNqdjuJlFy5o2/h4A1cUL7RYCb9pXZ8IN8zDXJwACDt/e9dry7/1yO+zKmrvAmO2ib4bbPr2Fb4L7tu5lYnCudaOJ5ej7MwrFna9//w+JRp2QrvhSrZZ6UbCQIkMvSdIcj8YK7By+GdPm19buuLiKe1v/70HiatHW4acGCy0clE3ll0lEgwP7t/ShURwlbFRRUGuTaMSEFxVVH9TQ+vhp3+9pWf7613gnJsMRkNE9ADo1oXEII7N1ETtmz5bZ0o9fCKD3bnQCnupSGSoCSb1Ox/nd4YaC8eVyFBU0cpPxTHcvXE8BY8KrgYn4+oSDofzAZQmjR2m72GpHTuMXQrtRsVSjc4n0FKXPWXuzLxZK8r792zqRyLo2riVSJsbx1SKCSUaCux/5Id/mn/7j+bYc4uumgTzUOXx2CaI0r/o9qNlrZwzbcGs0pWXTWt76/Hj2ayT2r1pmJAY6mo+mD1twR7G2Borx77k9Lgrz7tpZc/2Nw/EAgMD+iR3YHie6rTrlLr6BhnAZwBUWvk9jDGE+zsHvIe3DyYJiYj+xEA3EicUYtHBHm/n+8/vbn7xgf3h/s4Qjs2N7tXFQ7cuJvqhnVpF0nkMTm4dkUolwRHx9hQAqNaFoxcJNxXF9Gc6GQ3G+A3h2OJg47KRi3aXLyPGDucpvTSJRCJFSWPHCORN6W1xXX1DAbQbcIFWgNGLItmTm1u26rJ5/Xs2NSERdO3T581oK3NniphIxEvs2dTd9tbjP6+u+3iNlfES6UIsMLhNtDnawNg0K5tYdLhdlefdtLp354YDkcHuAdN4CpG9MHxxYu9/76YBrsReH4uJnlU9d86U9Z9ahETOZ3OatnRNBXuevqhbbjB5D21viwz2hGHKG60/yTcShNmyicfi3R++vGv7b7784r5HfrhDFxHmYnM+aK5MXQA6dSHRh0Rmjxi17aRQJYgFvfn6oUAptAxsWUjLAlYMSLgwBHTR2wWgDUArgCMAWsbjkT25fRniJZzSXxmPxwpMY6fAwrFzLoClNGFPtrcZ8matmOcqnVaYZGNMlErXx2x9hp1w6Mlf7BnY98H/cSXeO9F7ufXNR49wVXl3TGzWqlmz/397bx4eR3Ht/X+ru2fRvtuS933FZjcQwmJAYCAkkJvkkuUmudluuIHkJrlZ3vAmv9y8gZDlsgRICAQTIEAS1rCD2VeDVxnbsmxLtiVr12j2pXu6u35/TLemNB5hWZoZjUbn8zz9SFHMTHdVddX51jl1zvxLv3EKkqmFS1Le+bwcT43rm+XG9c1ZDXVL3eUw45HgK+Dcm+2HkxxO54yPXL62dvXZ86xJuBQJd1FevuiN65unA/ixtWhkdb0zYhF1YMfrhzG8AE3MulQydj/kfTcN07Pr7Q7f3i0eIZTJrhHhtYRDD4BuyxizRUQUeRQbT6RbKjPbNaYaK7Xe5yprDrLnn3xbGHgaIdFtiYhDAA5aP3N9HXRVTeufaucNOefMMIxyS3ymjp2MFT5rXN/sRiLlaxG9/Mdu+Lmr6+vr11y8JEVIiLHtBbQtklJf4o/ffTnc3fZnZLO+RB5w4Ok7okZc3WDZRNm1zBSHUn/apWsbzvj4kslgs1pziALgawD+5/w7m8qFTRWWyfuVUgYjG9z9zg5uGu/n4kV3VdbNWHj5ty8tqps9HUn3o9t60fNJRDgA/Je1O5TljRSGSM+B3sHhOb1VyxiOIhm/Xwhp7DKO7Cpyzj7/88cXT59XjGQoiG189VkGWJcgIkT3pEFtmt+rZUaFhBF3WXOOHVqZr5k4xA2FKJIJAmyvmi2Mc365q+p9U/F94Zy7rXFjH7wUc8sjQ2PoJCS84MQYDb+6E9auUorLKieL4ZcpMWFosdDef/z2fjUw8Fyhd3NssPstzs3WXNisjrKqugWXXXV5xcLjZwMot8aUWxhT+SQi3ACuBnADgO8zWbn2tJ89UoZkcT05U4LiiAffedeP/Loa+SdyFB9cNnf5Scs+f+2lSlFpjdUxYln7fHnRPwvgqlwMFNPUzYEP3jgQD/nsQzy2NyJiGREUw3+Ul720YWHD/Eu/vowxSRcMrwHB4OpD8kyEGGtOImJqjRVJmFDFAkP5aijYO45RSxwHLSHsn6DL5yyrjk7RaUa2jAclzdgZ9xi64K4PJACfRlaLnhb+zkNJw4L5dcevnWuJPjsVbB6GL2Z0w0EHoHp2vtXb9dbjtxixyM4C3ltiTbd/p53r8Zdy9eIX189bvvRz1366pGFBgyAmXPm0hjSub64E8FMAvwRQCcDBmPSdkhkLfzTz7E9XWPebmsZ2zPed1jAOd+7bwE1jT07kJJPk6hUfuXD5l35xiewqqhFe9rw4L9G4vvkiqzMqctAYUAd7vT3vPduRxnCIWEZvqkcix/pfAsvQhWxljJQkNu2kxuOmn3bJNKvtgpZwGEBiJ1esXC2GiZGImFJ2BmfWHJi6i5xfBgYbZiTYB3rtLG6q8DPXlya7ivQpOnpSwwMyuk4xWVkI4GP0lo7vDZfdJcXTT123CkyyPRKpO8iFGJc3dF5i/6M37fbu3XQjN3RPoXZypLtN04KDT4DzwVzNyOXzVp654t+v+1xJw4IZlpjIJ5t1MYA/APgBEhvzNi7Z4fruwk9867uls5bUYbiHblz3nbY4z6ZffaF97e2bHlWKSlfm4sElxemedtL5n2GMxXb/5WcP69GgeKDYNpyRa0OvcX3zWgC3IFEIKydqd2DnW62hzn1BDA9liCCRaWhCq3Oauhb37nm/NR72R60UKDydxTOaB2VMliqXnDzPVVlXmfEqmZxDKSkvmbfuq6f692/bGx3oVIV2TBVkJCCmLmwMg3cibpOnMRTEa8IyNzFZoTNF2eEyAAupGcZPxYLVSysXnVjv27fFKxhPdprvQkkFixSbwN6ElHfc8f2X11z70N2lMxZ9F4w5CnEe73zz0S3zL/nGG5LDmZO0t4xJcsXC1Reu+sZvseeh6+/w7d2iptgTObdZrfMQ6wD8DxJhkeluvNhZWfdfK796vbz1f7/2YDzk8wu2JcZ638pIgzDc3fZY+byVn2OSvCgXY19SXCV1J57/xdUlFY499/3PXyN9h1J3inOWq7dxfTMDcDGAmwEszs2rwKB6+3xdbz7SKjyvbQCHLANYxURlbGIMpqbGDzx71w7vnvc9wngxMbYdfb740/+9au5F/34ek6TMh4xxjtJZSxbOv+yqE3bf83/bkdx15iAPBDEBQjwL95wXhemIDK8/d++uQyKsiarmZmAdcJZV19SfdukK374t7Uhm27HDWgvRoyaKCdWIhYP7HrnxvhVf/n/LXBW1Hy/AZ2Vt/7w9OPOsTz3grpp+Phgry5GYUMrmLF933NduKDv0wl9u63j5gW2CbZHTDfDG9c1zAHwLiYPV1Ue575KyWUuvXvUfv5Oabv/2w0Ys4klpz2O2tUc04N7/5b/u1aOhh3K3QHFIiqOketlpXzz+mlu/M/3UixdjeOGPnLiMrAMqXwNwV85EBABwk/dvf7XF37bDj+GZmkIjCImJxvYW2cWYgkjGbI/q6nz9H9ujA4fbsxXixGRZnnbSBWfVr7lkvjWOxIqUhZb+jyCIQoCxtQBOoIbIEJLEalacsdJdM6MGyfCmyZBufrwG9tB5iYGm13q7337iFkON7CpU4dT5+sOvm7r2Wo7fVamodtZZi674zi9X/+ctlxXVzqzBkZWvsza+Gtc3lzeub/4CgEcB/PfRRETSNlJKq5au+Y+VX/nVJ5ms1CIRniWGOeFY7ln6kI7RfXs3/9004jk9qMMkyVk6c/Hly77w0+tXfu2GC5zlNZVIxDRm/aVvXN88F8DvANwEYEYOByOi/Z0DHa88sA/JUAW7cJooJDTkx2667TaNIJlBxk6rOtqrN9LX3jqw4/VXuKFnJ3VbojBR7dx1X7nIVVFXh+GH+R0kJAiCyCca795djERyDze1RubWAXftzJnTT7lokTX/i4euCy0VbCpDm5L7HvnfXd69m28q0PMSvO2pP/higz33cG76cv3lSnH54mknnvfzk39470+XXvnjk2RXcQmSyRgyLiYa1zeXNa5v/jiAB5HY9D7lWMexpDgr6o4/55srv3Ldx8BYNY5MgT76zxpBRHAAfPutV7dp/oG7wLma6z0ZZ1nVSfVrLvn1qT958EeL/uV7x8lOd3G2OsbqlM9Zqu4qDD+gkv03QI8bXW8/vjN0eK99NkLMzBKwftpu2An2RjAx7CpkiQg7p307ji0PfXvnG4++qPk9O7J28DpRSObEeR/7xkeQyF5QYe1IOUGeCYIg8gnGTgZwNjVEZpEcTue0ky5YLTvd9vxvH7oW7YmCM66RWl/iTz/YEO49eA84jxfgc2Lfw797w4hFnpqIW2CyUlZUO/PKWWs/e+cZv3zqR8d947cnls5eWoJkNqdx2a0X3LVTarx7d4Plgfg7gAcAXDr2TQcOyeGumnZy41XLv/jzi5DwZpSN5b1QjqJkjfYN9z2x8BPXrJPdxZfk/OVXHDXF0+Z8be6FX1xbv+bih717N/+z9YlbW2KerogwgJDm99Hu/lSAsXMBfBXA+dYuRa4XDvjbdhw8/OpDB6xnsGsfhJEMA7IPhumYSE9EMnuMLSSClpAYsH4XPSaj+sTQ4RYWOLjzgdqK2uVMkrLS/kxxOOtPWXeRZ8cbLQMfvGkfthbDxCj1K0EQE0rj+mYZwGcwyvAE4tgonbVkQc1xH53Vt/UlD5LhTfbamrMzmBNgZMNes/VIILj/kRvvXfGlXyxzVtQWWlYws2/rS6HZF3zhzqrFJ5/FZGXeRFhJksM5t6hmxn+5K6d9qnb12a9oAc9zocN7Nx98fn13oG1HDMewGXzure9JirukjknSKjB2IYCLACxDYiM0I8NDdhbXNZz+sWvMuKq1PHh9ahrdURU/Vo4y+MxDL/xloPb4c39ftfjk1UxWZk1Mx7gWFdXN+pG7uv7KuhPOe1kLep4PdrRs7dn4dG//tpePqWPOv3NHiSQrC8DYeQA+AWANcuyBEEWEFvAEDjz9p+1a0Ksi6Y2IIJkf3q66nBdhTYwdURwrgERqVb9loB9LBhkGQO545YFnq5aeepFSXHZRdqZSDmdF7ax5l3x9nW/ftm49ForiyOJ+JCIIgphIliCxw0hkYQ1QikrL6k+7dFXf1pdakSyAKx66LtQMZMPOS/Rvf7Wna/E/b5593mcXyK7iFQX2nHzLb77cdNZvX77LXd3w8wnMUsWYrMx2FJd/yVFU9pniutlttcefu43r8S3c0PeaunbY0FQPGFQG6JLTBUlxSUxWnJLirGKSPIsxtsTyUJ4IYJElfrPSbLKrpH7GmVd829Bi2v5Hbnw9xc48qphQjqbwAJhbb/z6+2de98xdRbWzrgVjzgnqGInJynxHSfnXHMVlny2um9027YS1W01d324a2h5u6N0wTb9p6BEmK3FJVpjkcLkkh7OUSXI1GJvHwFZbHbMawHRMcGwk1+NG11uPNw188EY/klWs7boHPss4F8Oa8sDYZeLEJBbLC41BSACA5Nn1TjjSe+iesnkrTmdMylq9jooFq8+Yu+7LO1ufuM2uZm3XkRDvmQQFQRATwccBzKNmyJpph8pFJy4vm7vineCh3T4cmQq20D3TyfMSD/9uZ+msJTfXrDjjBiYrheABEz0v8fYN9/9twSe+daZSVHpJHoy7IiYrK2VZWQmH6/MAj4AjACDIgQCzU68yOAFWgcRZzgokPGYsV82nFJXNnnXuv/6XqcXUtif/8G7Ke/ChYkIZTcdwPa7uf/Smvy79wk9PcJZWXZEHHVPCZGUVk5VVksP1b0CJCs7taqsRy+iWwOACWCmAKmv3QcmjWQ2Dze/tO/jsXXuRDGmKWZOaz7oC1vPkU9E0Md2kgSMLZB2zkAAgtz15++vHfeO3LypFpZ/OmhJ1uosazrzikoEP3mz1tzZFMbxSuBjiRBAEkTMa1zdPB/CpbBoOjOX/mWIOjozXFRr6cA5nRV1d/WmXLgse2t2JpFciJKwDhboGDDO0AcQ+uOP7L5567YNLSxsWfrtA6kvYdol56MW/9FUsPvHGuuPPXSYpzgX5JGcBVgKGEgANLM+az1FcMX/OBf/2PUOL/frQ8+s3pdh7I5YeGI1hbQIwet5/bqBi4Qk3zjz7U/NlV3E+paaTABSBsSIA9ZNlZyTc1dq975HfbYmH/bbxrSKZBclrCYmgMMHxPJ2Y+AjXaDEAoL/pNV+k9+C9ZXNWnMckqSZbC0lRdcPC+R/75gVNt13Txw09iiOL01GYE0EQueZ8JDzlWcHUYlp0sHsQnOfx3Ma5UlxR7Kqorcza0ivLUu1xZ6069MI9WzX/gB8Jr4S9YWeHD6NA1wD7mXQAqh4NBvY/cuO9K778/5Y5y2suLaBnNADoO27/zvbT/r9HbimbvfyXTJLKaIoZpZgorVoyb91XvmvEIr85/NrftqXYdGnFhDLKgWcAiLc89Ktmd3XDDbWrz/md5HDOokYfm4hQff2+/Y/euDHYvieAI88beK3Ljzw6GzHKnYCxCAlmPZ/Z8tANG0/8zh+fVorLvpS99pdY9bI158xe+9ld7S/dH8KRXgkKcSIIImc0rm8uQSLla3bChhnDYMum1l13/5+N3DS4lXnPBBs2V0/4fMcNnU8/ZV3D0s/95GLZWeTKyi1xjuLpc2ZPO6lxweFXH+pH8tC17ZUwUNhzf+p5ia6ud/558+y1n10gu4qWF8jzDSWE+eCO7z9+4vfuWlRcO+sqMKbQbDO6JnSW1x634OP/+V3V3399/7aXm3HkxvGwOWO0DWsPPK3p9m+/efIP7vld1ZJTflYgsXU5FRF6OBA58NQfN/ZtfbkXSXeRfS5iEIksSD4kQpzsMweFvEs+JFZ9+7aEgodb7qtcdOKFTJIbsvV1srukfNbaKy/17Hr7YLi7TTx4TSFOBEHkmjUAPpqtDze1WLxv8wttWsATs+daa67TBcM5H9YX3r/91cicC7/UWTpz0YJs3ZHkdLunn3Lhqq43H91t6pod3uS21gEdU6NSvL2BKe37x28/KJu15Obq5affwGSlqkBsCgNAPNJ7KLjv77+5c9kXfjrTVTntClCq91HaqoChRYv0aGgagH5BgJpC+w7Zb9Ioxjlv6gAAIABJREFUO8X+EA1AtOnWa570t+24lRt6kFp89CLCiIVjB59fv7Hj1YcOYfi5iCASXgiPJSYCwqRmToHWGRpju9Zfu1WPhh7P7rdxFNfPWzH/sm+ei8T5mUokC9XZOZ9pwiEIIqtc8OedMoB/teagLCw7EiL9Hf0DO97os/5krzkhJDasBpFI392fB9eAFhjo8Lc2bQU3s2rIl81Zvrhq+WkzMbxAXSFXuk633ibrS9z5wxcivYf+As71Qnu+vq0v9Rx4+k//qwUGX6MZZ3QqIti+58Cuu3/yvHfPewzANCRSUpcjWWNi2PshHUPH2Du1MT0WCjb94Tt/87ft+CM39BA1/OhExKEX733v4HN37QPnZhoRMYDh3gg1z3aLcvHym9G+9mjgwM4HuKEfymqXSLJcu+qcCxrOuGwFkoXq7MUkq2XtCYIgrHloGYCLs7dnYmJw17sHVX9/TDAcw5aA6AXQCaADiWKi+XB1eHa++bqhRvuyNv1yDkdJRWX9aZeutIREKZJeiUKvdJ3O2FbjIW9g/2O33KMFBzcU0DPaXhe145UH2w4+v/5XWnDwXZp1Pvzl8O3bvH/Xn3/8mm/fFtWyiyqtq3Skd0QZQ8foAGKaf8DXdNs1f131zRtRufikb0qKs5zCytOLCD0SjB564S8bDzzzp73cMMw0u0ID1uXF8DSqU+ng75BXoum2a3Z+9LcvPewsq/7vLL4vcJRU1M658MuXDDZv7FB9/elCnGhAEwSRTS4HMCdba088OBjs3fxCB4aH0fqR8AAMIllINF/OBrCBHa93aUHvu0WuksuzuS5XLTllZUnDgvfC3W32oWsxFSwT1qVCXnOHzkv0bd3QVbnk5JtnnfOZ+bKraFkBPBsE8Swfev7uPdyIXzf/0m/81FlecxpNPcPfB67rxsCO15tbHvrV5ujA4TASm6ou671wW/9brHg9VMBROsaOEd1hES046Gm67ZoHB3a8fouhRQfAaAM3ZbsJWmAw2PrP29488PQde7mhD720SKZ5td26Hky9kKa0E5uhRVXf/m0PcSO+N9tfVzZryYnzL/2PjyLplbBDnBSQV4IgiCzRePfuGQD+JYsLEAIHd3cGDuzwI7k7a2cGHEDCI9EDoAtAt/Vzwi9DjbbHBrv/CW5Gsjf1c7ir6qfXn3bJEiTDm6aaV8JmaOd+799u2OHbv+1mbujeArEnhqXWb99w3679j99yXWyw503QRuGQiDBi4djh1/62aefd/+e96MDhqDAu7Eik1IQ/w9pOGmPHDKUr1aPBwQ/u+N5jXW8//pt42H+Q7K5k50T7DvW3PHT9q+0v3tfGTUMUESFrN0gUEXYNDHF3aKoN9KEDPU23Xr1XC/keyragYorDOf2Uiy6qXXX2YktMlCMR4uTA1IiXJQhiYtaIRgDHZc06jMfifVtfOmDqcV1Ys8PWWuNDMkOgXbfInydXwNey+Q3T0Hdmd+5XlNrjz13tKKmwwzZsIeHA1AlvTd0gju688wfPR/ra7y2Q8xK2QTwkJjpff3j3ngd+eUO4u+05zk19is9BiHm6B/c9cuPre//+6x16JKCJY8GyVYPWNaJ9Ko1x4A0LzzH1+OCe+3+xoe2J266LDnRuts4ATNmOAeemb9/Wtp13/ejlno1PdwJcrAIdFEREr/XTi6l5LuLDXnxtsPm9h009viu70yiHs6J25rxLv75OcZfUIXH4WowFJBFBEERGabx7dymAKy2jNQvLkIToQKdnYMdrPTiy4GnAuuz01zFr7cmHKwZA3f/4LZ2GFn022yZ0Sf2CebXHr51rbR7ZXglX2rm/cFfkYRvEWnAw0PrErfdoQe9LBfJstk1he+SC/dte3r/jju/d5Nu75QFTj4emXDQNY+CmYXhbNrfuvOuHL3W8/MABU4/b2dzszW4fEpvcYhhkDGnqmknj6Byx/kEQgK/9pfu37PzzD3/t3b/1CVPXwlOxc/RoKNb51qNbdvzxu2/49m/zWm0l1onwAOhLEREhEhFHjC2+884fHNQCnvuB7O+MVMxfddrcdV9Zg+EhTlMliwdBELldK84A8JHs7Y+YGNy98WBssCcGIeOitdaELINKtdYmA8nwhXy4DAC66u19nnOzO5tLjewuLqpfs24VGCtD+kPXbCooCaScl+jd9HxXz/vP3Gyo0b0F8mzDwvIB+EMdLR1Nt129vvudJ26Nh3wdU2aJT5ydCrW/9Nf3dvzhO697WzZ5UuaIgCUc+pAIfexLIyTMTAgJCCrP3unwAxj07d2yv+n337qr45UHb1O9fa2JDmQF3zEAeKhzf3fLg9e/vOf+X2xVvb1Rq33EitUeJONS7c6xRQQd8E0ztvq2vvSEGY9vzfaXSU538YwzL7+kYsHxcy0xUYbEISMHpla8LEEQWaRxfbOCRMrX8qwZCmF/qG/zC+2icWitQyEkaxTZIoLn49Xx0l+buR5/O9v9UT5/1dLKxSc3WELCPnQ9VTeRhqInWh68vsnXuv1mbui+AhMTQyF+8XCgd/dffvb03r//5oZQ5963uGnEC3YDnDFwQ9d9e7e07bz7Jy/u+/tvdmgBjyq0Saqd2m3ZqgNIht7Hkab6uzTOjoF1E+KO+2A87O/a+7dfv7Dzzz/+7WDzxmcNNRIozM5hiUk75At3vfXYlqZbr97Q9dZj7YKLyM7M5EXC+9CTRkTESESMuDtitjx4Xafq778PnGvZ/UYOd03DgvmXfbORyUoN0qc7I68EQRDjZQWAddlblRiC7c1dvtbtPiQ94nZYk+iNyNcqzhwADr/+j7AeDT0JcDWb876ztKq64fSPrUDy0PVUDW0Vje04Euclno30d9xXgPUlxPCdga63Htu6/fffuqVn4zP3xoPeriH7rkAEBAAe7esYaHvqj29uv/Vbrw40vdbLuSmG3It2arcgIsQkQHEceegawLGnf03XMQzJKndRoaOMwd3v6P792wZmnvOZpplnfXJdcf38lZLD6QLnBdA3EnQ1ovlbmw61b7j3g4Edb/RbB6qHMiBYE3YAw+tE2AXnxDMRJCLSYwBg3e8+9czci778GdnpPju7Xyex6mVrzp593ud2tW+4z44fVlNeIFBfEQQxDj4JYGbWJk1d1fu2vXzAjKv2IWsxrGkkb0Reiolge/Nb1SvOaGGSvDp7077EqpefflxR3axN0f7DYirYSJq5fyqICcDyYmkBT6D1iVvXL/v8/13qLKu+qICezxYT9t/MaH+HsfPuHz827aQLmuc0fumS8nkrTpNdxaWT1l5NnNeF5h8I9G9/paV9w/0toc59QQw/mmB7Z1KLInuR9EKkRswc0SBKhjqGpUxKtkGtG1o03r7h3kjvpufaZq298pTpp1x0TtG02QslxelM3A6fVB3DwGBo0XiwY8/hzjceae55/7lOIxaOI6VSJJLZMezOsYvNBTG8XsFUPxNxtBfebH38lt76U9fdUzx97ilgrDibXym7S8pnrb3yUs/Otw6Eu9vS1ZYwqGsIghgLjeubZwG4IntrlITYQJdnYPur3UgesraNhXCKYZD3687WG7/eufYPm19Q3CXZExKcw10zY8b0U9ctOvjsn3ssIVGM4WcXp1oCmeR5ifef66xcdOJNM8/+1HzZWbSkAMVEsuAy53rflg2qZ+fb3TPO+uTmGWdecX7pjIUrJae7aNLYqwkBwTX/QMCz+522w6/+ba9//3av5YEQ5wTbE2HbqbaA8CHpudRSxn/aBlAy3DGmMEHZv8cBqKqvT219/Pe+zjce2TXjzMuPn3bSBacX189bILuKi+2XOa87BoAeCUaD7c2d3e882dK3dUNPPOxXhQEpeiFsl5nYOXaWjMmwG5RvE5px+I2HNyz8xNVvyK6iddmdYjiKp89dPv+yq9buvPMHHiSzmozqhSIIgvgQ1iER2pSl+cuEd8/7h6IDnfYZPTvsOJzGOMjn9WdoZ1wLeJ5VXMVfAWM12foyyeF01J14/uqOVx78wIhFbK+EGNIBbppTJczJ3hwe2rVuefD6ptIZi26pWrrmOibLlQUmJjQIh/wBxA01Eu946a/h3veeaa0/4+PH1a+55MzSmYuWyq6S0kQZtnx7bRgYYzAN3VS9PV7PrrfbOt98rDVw4AOfFSnDBXs8Zs0DQUFE2FcQY/BaKlnoHNH9YQodpQKIxTxd0bYn/zDY8cpDO6edeP6iaac0nlA2Z8VSZ1lVNZMdMsDzo5Ms74Opa4bq6/N5921t733vmQODe973GGokjuHuIdELERBEhC9F3R3VRUSkF6iHnl/vmXHm5X8pmbHwI4xJ5VntekmWa1effX7DGR9v7n73yQiSIU6pXgnqP4IgRkXj+uZyAJ/Jwro7tGbFw/5w7+YXDuHoh6wnTbhO76bnd8y96N/flxTHxdn8ntIZixbUrjp7Tu+m5z1IeiXsEGTGTQOYOmcmUg1taeddP3r2lB/dt6x4+tz/BGNygT1j6vkQFUBMC3pj7S/e6+t687GWuhPOXTT91ItPKp9/3HJnWXXNxNurCfHAwWFEw7FwT1tv//bX2no3PXc43HMgBM5FG9x+JjvEMSDYpz4MTwetHaudquSgc8w0SigSD3nDnW8+Mtj1zhN7y2Yvq687Ye2iquWnLS2ZPm+Wo6SigikOhSHRSDnpKEs4cHCYcU3Xgp5A6PC+Xs/Ot9oHdrzRG+1vj3DTNITBpgsCKZzSOUOFdaznzdWONsv2wJ0gTADmgWfufG35F3/+suIuuSK70wuHo6Sids6FX7pksHljh+rrE0OcxDEw+aHj4wSRK84EcEYWzQqEOlq6fPu22GnHxdoR6bwRk8HQY/sfvck/65zPPCWVVl6IRCalrMz5SlFZ6fQ1Fx/Xu+n5fUgeurZTXmrc1LM3W7K8bX/YglT19/v3P/H7u5d9/qfLnGVVjTn8/lyKCVOwWe2zRWE9Gox2v/uUr+e9Z/eXzV7aUHfiBUuql5+2rLjesldlRQaYZatm8bZtO5WbMNSIGhvsHvTv3364b/vLHd6WzYNWQbmRBITohRBtVDvcXkwHfUx2qpLDzhENb3uHJMgNPRQ4uNMfOLizU3rmrm2lsxbXVi87bXbFgtVzShoWzHBW1FUp7uJiJisyY5L14Xzo5T/mt5UlJ10wgJsmTD2uG7FQNDbY6wt17u3z7dva623Z5In0dYS5ETdSOsZ+jhiSLuOg0Cl+DHcP2epOnLx5FtvdTA4Cbn8Ty8BEyzg37Q/kE/Cimz0bn/bPvegr95TNXnoWk1iNNRCyMwVzjtKZi4+fd8nXP9Ly4HVeQRDGMTyPcrbbwEz+zGB/Wq8B58Pun4MOlBNExmlc3+xAwhtRaq0FLNNztKGrRv/2Vw4YWsw2BsS11t5tnGxhtRwAwt0HXq1YuHo/k+SlVsHbzM/7DKxiwfHLyuetnB44uMuHRBanImstlw1NZY4SblpfnbH5mMNknHPOh1uh+dQ3w85LVC0++aYZH/3kXNnlXgKeofvknFlNMBHPL4bmp/NM2EZ4iJtGOHBodyBwaHfnwWeLtpbOXjqtesXpcyoWHD+3pH5+g7O8pkp2FbmZrMhDG+GCTXEsgmHITkWiLoypx3U94g9HB7q8gUO7egZ3v9vtb23yqv7+mNVuQ4mOLLtTS9lICKbYqLaXUk2xa455blBy2DmiQrKNcPvhygCUmfFYIHDgA2/gwAeHAdbkLKsqLZm5qLp01pKasllLp7lrZ1S5KuoqHCWVpbLT5WKK0yEpDoVJkpR8l1maW+DghmGYRlw345puajFNC3pDqq83GO3v8AXb9wyGOvcFwj0HwnokGE+5Z9GjogkDS+wcu4NCKQJiTOpuzAuJGm1hsvIdPRIsUQP9paqvvzoeHKzRo+EKU1eLuGkq4HzMKX8NLRYP9xwMCn3JkbtDaCYAs+2J32+cf9lVPzTj6iIt4KmMRwKVhhot5UbczU1TBufjz/vNwMEkU5IVPTrQaUiKo9LU46l9m/WD1+GeNsNd03CHGVdf0oKDRaqvv0LzD9TEI/4qU4uVmobuhGnKY35exuBv29EvTD4cFHI3lp1ElroAiIvAuD5bYuLn87xvDJaxp0+0JSuQEi7cVDjwNDeMdw01qsTDviLNP1CuBQaq4mF/laFGy0w97uamoYxpDmOAEYvoPe89247hmZpSU77qk/H93vv3X7ev/Or1PzF1bbnq66/QgoPVRjRUacTVYm4YDnBz/Om5GTPBTc2Ma4olIIqRrCmhhDpavI7isp8baqxWCwyUqL6+Ki3gqdGH7kN3WOsrO9Zxrnp7w0Y0pAk2R77MxUecl9jzwC+3S86in7kqak+Nh30VeixcbmpqMTd0J+djXIMZYGqqHukdsi/StQPPwbNCsNlSN47Dgr1abmjRoL91u9ffur0DjG1zVU4rL525uLpszrK60plLprlrGqpcFbUVSlF5ieRwOiSH08FkRWFMYqkLCJKb49w0dMPUtbipxeLxsD8c8/YEIr2HvMFDuz2Bg7t8kZ4DYWuzIPUIgS4ICFv8iNEytq0qJl0Qw5jGbKcqORqIYucc4TayHrJUuEoAXqIFB4u0Pe8PePe87wLgZLLiUorKXM7SSreralqxs6Ku2FFS4VaKSp2Ku9QpOVwKkxWZSYxx0+Tc0E1Di+l6NBjXo6F4PORTVV9/TPX1qXrYH9djYZ2bRqoBJd6jKCBiwmASd3lCwt9iwmRtIMdnIV69ek03gHusnZQ6ALMAzAFQj0TxI7vIznj60hQGaxy5SV87NIb6m14L9ze99hSAWgAzkEijOM16PheSRYSQoeeMWJ9bYi0sLiSK1GXdK9F069UmgBcAvIZEXYsGqz9nAqix7me8uc7Fcz7HHBs55THNEJfMt7lpVHA97jA01WXGVbepa07LKJSshXVsH69rejzkjeWtyOO8j5vmm9zUHaauOUxNdZtx1WXqcWdi48Icu7BnjKm+Pr+hRXWkL1o2adjw1ZVRAI8iUY/Gbb3P9dYcPUN4nzNRAFPH8FjoICbPIeu0c7+/rSn+zrWXvgDgPWsenG39rEGycOh4531TaDvZWi+d1mcr227+jzCAf1j9V23Nw3Os/qu0/j7W9YenGIKpUQwT3geCQI3svufadwDstfqg3uqHMgwv5DfWdVcdYSM2l88q2oOimBDDg8qGbFbOS1Rvr0/19vZ5dr51AIBTcrjcjuJyt7O8ushVNT1hrxaVuZSiUpfsLnFKikNikiyDAaahm4Ya1fVIQIuHfKrqH4jFPN1Rzd+v6tGgbupxPeXehh0OFza5YykbCKk2qp08Jp4yxsY1Jyg57hxg+IHV1ExH9i5AsWC42bsCbm7ornjI64yHvI5wzwEZyUJhsvXT3g042uLF04gHI6VjUgWEqPAiwiXGlqUzrHM5ETChLexCRPaCAuslz8QiFcPExNyKk61do8NefM1xTuTpvssQhKHdtorQxrlAEr5LDFdwWvc13ue1hcSkPYw5kXS/82Sbo7zm33z7tpSEOlpqVH//TCMWnm3q8emcmxXg3IXxFDPk3NQjQVXY2DCQR7Vn+ptee8NQo9t9+7aUhrvbarXg4CxDjc7ihj6Nc7MUnDvH8fycmwbXI4FoyvPn047tsb7LijVfOYVNANt4NTPwPtvzfgTDM7FEJ/l7LdZoEud+yVoPlAzNyYZgyNohVKJdIaeZj8PW37VxbNTZa5ttY6SGoeWLmBDTCYvjGNb9jreQn2GtQWKa/IkSE8CR4fmivRoQbFXRXi0G4Dbjqkv19ztVf78S7Gix7QZZsFmZMJbYKGxVUTyMJCAiwhhKFQ9apgVEroVEagelC3dSBbXnFq4i4XJbO8JO4VJSjDs5RUywD+mUkQSEmkZERIUOiaVRzRMpIFKfzx7wdrVCbv3uGIXIGu2uhJ1/OCJMujnxSlhtHkbiYLts/S2cIiRYhsapLij81IWY5aifxTSOfmu8q0h6YDCOPhUXMDvDWGrVWxIUI7D73p8Z1pxlWP1SYu1SOa2/jU9IJAVtDOkLJE5o3zTddk3cGpOGNb9YHmUo1n06xvn89hydLnvaZISnbIiEhPdZGYVhMdrPtueKQWt8FkK7iRWJB602UnGkR2I865spzIepc6EYh65Za4LX+r5IykYdG0O/2e95AMnUs3qeiT9T2EwMCuuPvRklCgk2hvYX7QsfJrYoIE8RsakhRFHhmdPZqu4Um9WRxl5N3QBPHRMj2am2gFAFuzSaIhxs8aAJ4iN13chImyoTPJkypKk5YTWEw7rsTnAJlygk7H8np+kgNsL3miOoOzHEQ03pLFE4pIqHfKp6bD9X1JqMgGR4TiZ2u8SFyj6wMxFeCXvC5Vbf+DE+t+pI3yUa8XYdkFztCKcuXCFrXMcFQSFloE9FT0egAHYvJ+q9iwvvhdPqs0x4Ae3+tw0M0WuUL9gC3x5DtnHsyND4jFlj3n4HJ6NRzFPet6D192gG5y7x8+2wYdsgnqwhi+mMTNuTExLWNilD3zUUwiOIMCNN/wUEMePC+Lwi4lpjf2/qJl2+nZeICP0SQzL0VxpjO9jPaJ+jDaVp/4kcf+nERDp7Nd0l2qoOwVaVRyEk0nkhRNs0NoKdKoqHrAiIiRYS6QQF0ggKWRAIDuFnaocoaTomtXNGUpeiyhMFRTzl7+nCCvIxy4JoaEMwQJQMTrRiefUYchd7m7qgQBBNzgw+44c9r5pjI1s8rxEWdmcdGRRNqXGgk/ZQ5gTv0tnGoWK1pRuZi90WPVKhPFhcU8enuAsuWeMoU6GGqV7IyZbG9MPmZzULGyCp9Y0muzdCbLu4sAEprm1yhr9nWP0rHOkZsIvR2mImk5s64vfm24ZB6hrMU9bg8Z7xmUj7YrTPDgw/kC3aq6I96jgGezWdByfdhrcoJuJp7FXRTuXI0Sa3kmeDU1S89o6D3cjiWQh5hCudq+jD3EWpgiL1Sv13+Soe0r3kEAxQcbcmEzteovFg5HhBT53IDOElztQz4kN2BgzkNv2raKhCMELERStTYVzi81Hl9WM3AGwvmW1cZErspe6SRvJISIjGcdR61rjVDuMNa0ondO3433zaqR3Ls4hjRs7Qu3y0+Woyv888ZU0zUta2TLaf+M6J86GZItTEnfmRjMFMfm8+2hniAWk5Q+2QuhOfbxsGPI3wYYKRL9qh8ijs1XRnJUYKbTJGGB/iBreZZkxlFSWPJ4zUTmJCJzEMPwSV7m8jTSrpsn+YI/xMJxryfSJOzZKlY/xnBo72wue6bXL1jEcbN7nySIjuZEPYlSuE55sYGNjwNHwZE7a2oRNCZs7rAOlT/OWTcWgKRrFtVCgZMCrSPX885flH3+MTX/ZLfJdT17ZszVf5FHabaQPWyHK/pmtDpPwt0/eQrqZBPvZd6hosZaEd8n388hHmKTbCJdqrEkY+y5tuTU5no35YetyctpUyCSYNcQKG0FE4hp8jKf/Un/xDBshknHB5hnZpRtM/E/2M2XrOfHhm8TyRUcB9erTby9zOFJOguEucIxicYzWm9RRhK2W4b1K9qfnijWAYvjupITOeiNE8/2jboDSD6x3nYy/ElRoekYt3uRBERDoxlu15/2jzYbbWVz5J+i2b69JkG78j2asj2aUf9v+n+7y8tlOVSTaBjOYFZmMcqIU44RbaM02VxXKqP+tI2DHDRePWEWAomja7gjFJShTKzUjfmMjuLvPRFpJ8MO7EXdpsbx6M+vkZY4syeB+maZrGONcOPsXf5ck+F1L/0bqUK3uV57udqhTYIE79GytgoUAQUwvTDEBGFInig+OcODhKZyyuL26YXxzuavVhdGGR+WJc5OMclnrOLW+e/5xzzq0F8NEMqghD1+MaGZYEQWTIXp3Utqo0BTpuasR8E0Sh6whd8yCZMnOcMwOHq2p69cyz/mUBhsetShkSFNm8JuO8O2HPzxi7GMDxGRQScVVVoymCidYWgiCmpK0qUf8RBDEZiIcDfnDelanPY7IsNZx+2cnTTjq/Acmqw3Zavnw4nEuMk3PPXbscwPeRSEWbEXRdj6iqqgoGwGTI6EcQBJEVZGoCgiAmA0yS9eoVHzmdMXZyxibAopKi8nnH1Wm+/o5wV2sPEqlF7YJ8lAJ3couIpQBuAXBmxsYgYwiFgp3d3d37Oed2dVs/EhWO/UikAtVp3BAEQUKCIAgij/C3bufzP/bNWUySL0YGvQWO0srKqmVrFpTOWKRpAU+P6uv1p4iJSae5MIW9KWeffU7F/PkLLgdwEzJ4NsLG4/G0eDyeLiRrCPisK7UqPEEQRMGjUBMQBDFZMNTIZkkp9wCsLmMfyjmc5TUzGj7yia/VnbD2nHjY/w439A9kd7FHdpdqkuIwmSRzJjGet3vMDIxzxDV//ztv/vd53jRCYtR3fu65a8ssA9yV+O844/m/t84AFDPGlgA4F8ApAIoz/SWmaWg+n68Pw4tyihVlSUAQBEFCgiAIIh8J9xzcVzF/1QdMYudl9IM5B5Mkp6O0aqWjtHJlwijk+mTa2GfgfibJlwPYhMSZj7EWdJoJ4E4A0xL/PQNjk6Ih7PMtWSMWUwcDgcAgkmlu7Wq2cQwvEkgQBEFCgiAIIp9s5U3XXek/70/bn5cl11pkxcofsgFlgE2u0E8Od3SgswSJ4mvA8N1y8xjEBEPCG+GkITccv9/foaqqXcHbrjKugc7UEAQxRaGsTQRBTCpzWQt4XuTcbKemSGkYzlm4u60KQC2AaiTqbRQBcBzLXM85p2xVadB1Pdzf33cISW9EHICKRKFEbQyCjSAIgoQEQRBErmxlAFLLA9e1cD3+DDVHauuYUrT/cD2AWQDqAdQg4Z1wgVLajptAINDu8/nssCbdEhFRS0ioSJ6RIBFBEAQJCYIgiHw0l/u3v6JFPV0Pcm52UXMIDcO5pAU99QBmW0KiGkAZEiFKMomIsWMYerS7u6vFNE37ULVmCYioddkeCRIRBEGQkCAIgsilcad+AAAIL0lEQVRjWNOt12w3YuG/U1OISsJkRixSDWA6EuFNFUiENjkxvFr30QQJtWUKXq93v8fjsbM12SFNYSTrjmigrE0EQZCQIAiCyH+TOdzdqnn3brnH1ONN1BxJgWXqWikSXogSQURQWNM4UFV1sL29fVeKNyICIGRdopAAyCtBEAQJCYIgiPwUEfa1/ZarWqP9HbdwbgaoWQBwzjg3HZZ4cCKZDpVExBgxTTPe2dm5PRAI+JD0RkQtAREUhASlfiUIgoQEQRDEJBIUxq711z6r+QfuxeSsQJ2NVmFIhjFJJCLG15oej6e5s/NwK5LpXmNIhDMFrCuMRJgTnY8gCIKEBEEQxCQRESYA09+6PXTgmbv+GA/5nqNmAQThQOJhnAQCgYOtra3bDMOwQ5rscxF+AD5LSESQ8FLY3ggSEwRBkJAgCIKYBJgAjI6X/9rd8cqDN8TD/repSYhMEA6Hu/bt27cxFotGrHEWt0RDwBIRPiRCm2KCkCAIgiAhQRAEMQmwvRI6gHjrE7fua99w3y+0oHcjNQ0xXhGxd2/Lm8Hg0LkITRARXgCDlpCww5qoojVBECQkCIIgJiH2brHa9uQfdrc9efsvYoPdrwKcdoiJYxangUDgYEvLntf9fr9deM4+XG2LiAFLSNjeCDobQRDElEahJiAIYrIaftZPO35d7nj5gT2RngPXL/rU9/rLZi29jCmOIlBdBOJoatQ04x6PZ09bW+u2aDQaFkSE7YkYBNAPwIOENyKCZMpX8kYQBEFCgiAIYpKKCTGjjuzZ9c7BUOf+2xd96nsH61afc6WjtHI2wBjZekQ6VFX1dnV1bT98uKPVMAz7vIOGpCfCY4mIfiS8EiEM90bQwCIIgoQEQRDEJEY8ECupvr7eXX/+8ZPTT13XNqfxi5eXzVl+puwqKkuYfGT3EYBhGDGv19va0dG+0+/3e60xZCC9J6LX+j0giAgKnyMIgoQENQFBEJMcMcQpjsQhWABA76bnd3h2vtXXcOYVmxtO/9h5pTMWHie7S8oTDgoSFFMRXdejwWCwvbu7a8/AwECvaZoGkl4tFUlPhC0i+pE8YC2meyVVShAECQlqAoIgCkhM6Cl/M/VoyOx46f5Y99uPt9Ydv3bZtJMbTyqbu2K5q6K2TnK4XIxJ4PZ/TuKioGCMgXMO0zTjqqp6AwH/4b6+voM+n2/Aqg/BBQEas4SCH4kQJg8Sh6u9GF4zgs5FEARBkJAgCKLAxYR9fsIAENejIa1741Oh7veebi2um1NftWzN3MrFJ80raZg/w1U5vUZxl5RIDqeDyYrCJEmaXDXdmNgGfKoaupxzk3Oum6ap67oeVVXVH4mEB3w+X4/f7x+MxWJRJIvHGUh6IWJInH0QU7wOWqLCztCkgQrPEQRBkJAgCGJKiAkuiIk47LAVzqORvkPhSN+hvs43Hm6WXcVlroraMnftzAp31fRSpaSiSHa6HYxJEgdngsmY18qCG3Ej2N7ss57XHKug0HW9S5blq3Vdr9A0tVRV1RpN02p13ag0TbOYc+4EeN5Vz+Yc3DQNIx7XVVWNRWOxWDQej2uC54GnCAjNGhMRS0T4kfRG+JH0Qqig6tUEQRBpYdQEBEEU6NzGkKiVowBwAigCUAqgDEC5dZVZfysG4LL+nQOAbF2S8Fn5PmfaoilmGcNdANqtn14kYv+NURjC9jMWA6gFMBPAHAANACqtdpIn0fphi4ehAoZInoWwRURAuIJInLOxvRDiwWoSEQRBEALkkSAIohARD2CLKWLttJ5hy2gsFYREsSU2XJaYUAQxIU0SIWHX1AjiyFoHx7o2yEIbqlabSVb7SJOgLXhK34teiKh1haznCllXxBIQqvXvxbYjEUEQBEFCgiCIKSYmTKScl8DwmPgi6yoG4LYMZVFMSDjSM5Gvz2vXQAghkWUoPEYxIYqSEBIeDVif58hzIcFT2kMMZdKsvo8h6ZGICuJBw5EHqklAEARBkJAgCGKKCwojRUzYO9NO63IJvzsmqZDgSBbns3fZ1TEKCftzAtbfIpbQsr00mARtIQqJuNDvWopwiCMZwmSCvBAEQRCjgs5IEAQxFec8JggE+zyEgmRIj4KRz0nkuwEt1kSwd9rjKQbyaNpItsSUC0lPjTIJRERqW5hCm9iiQhf+t4EjD1KTgCAIgiAhQRAEcVRBwVKERervbJIJCXEnfiRDeTTtwwShpaSIKkyituBpRIWJ9KlySUAQBEGQkCAIghiTqADSZ2maTHNl6hmBsRrJbAQhxSZZOyCNWOAj/DuCIAiChARBEETG5sXJOE9mylAutLYg4UAQBEEQBEEQBEEQBEEQBEEQBEEQBEEQBEEQBEEQBEEQBEEQBEEQBEEQBEEQBEEQBEEQBEEQBEEQBEEQBEEQBEEQBEEQBEEQBEEQBEEQBEEQBEEQBEEQBEEQBEEQBEEQBEEQBEEQBEEQBEEQBEEQBEEQBEEQBEEQBEEQBEEQBEEQBEEQBEEQBEEQBEEQBEEQBEEQBEEQBEEQBEEQBEEQBEEQBEEQBEEQBEEQBEEQBEEQBEEQBEEQBEEQBEEQBEEQBEEQBEEQBEEQBEEQBEEQBEEQBEEQBEEQBEEQBEEQBEEQBEEQBEEQBEEQBEEQBEEQBEEQBEEQBEEQBEEQBEEQBEEQBEEQBEEQBEEQBEEQBEEQBEEQBEEQBEEQBEEQBEEQBEEQBEEQBEEQBEEQBEEQBEEQBEEQBEEQBEEQBEEQBEEQBEEQBEEQBEEQBEEQBEEQBEEQBEEQBEEQBEEQBEEQBEEQBEEQBEEQxGTk/wcsFlSTZiqGvwAAAABJRU5ErkJggg==;" parent="1h0svEDW4cat6tXGmW17-27" vertex="1">
          <mxGeometry x="11.43999999999994" y="2.804343037385593" width="62.88" height="20" as="geometry" />
        </mxCell>
        <mxCell id="1h0svEDW4cat6tXGmW17-29" value="&lt;font style=&quot;font-size: 11px;&quot;&gt;anon plugin&lt;br&gt;&lt;/font&gt;" style="rounded=0;whiteSpace=wrap;html=1;" vertex="1" parent="1h0svEDW4cat6tXGmW17-27">
          <mxGeometry x="7.5" y="61.5" width="66.82" height="21.5" as="geometry" />
        </mxCell>
        <mxCell id="1h0svEDW4cat6tXGmW17-30" value="pixl dcmd" style="rounded=0;whiteSpace=wrap;html=1;fontSize=11;" vertex="1" parent="1h0svEDW4cat6tXGmW17-27">
          <mxGeometry x="24" y="94.5" width="62.18" height="21.5" as="geometry" />
        </mxCell>
        <mxCell id="1h0svEDW4cat6tXGmW17-34" value="" style="endArrow=classic;html=1;rounded=0;endSize=8;startSize=8;entryX=0;entryY=0.5;entryDx=0;entryDy=0;edgeStyle=orthogonalEdgeStyle;exitX=1;exitY=0.5;exitDx=0;exitDy=0;" edge="1" parent="1" source="CianoWygyvogbfJQY6NW-39" target="CianoWygyvogbfJQY6NW-13">
          <mxGeometry width="50" height="50" relative="1" as="geometry">
            <mxPoint x="503" y="1488" as="sourcePoint" />
            <mxPoint x="533" y="1385" as="targetPoint" />
          </mxGeometry>
        </mxCell>
        <mxCell id="1h0svEDW4cat6tXGmW17-35" value="" style="group" vertex="1" connectable="0" parent="1">
          <mxGeometry x="-147" y="1415" width="67" height="60" as="geometry" />
        </mxCell>
        <mxCell id="CianoWygyvogbfJQY6NW-142" value="" style="shape=umlActor;verticalLabelPosition=bottom;verticalAlign=top;html=1;outlineConnect=0;fontSize=16;" parent="1h0svEDW4cat6tXGmW17-35" vertex="1">
          <mxGeometry x="37" width="30" height="60" as="geometry" />
        </mxCell>
        <mxCell id="CianoWygyvogbfJQY6NW-156" value="2" style="text;html=1;align=center;verticalAlign=middle;resizable=0;points=[];autosize=1;strokeColor=#666666;fillColor=#f5f5f5;fontSize=16;fontColor=#333333;" parent="1h0svEDW4cat6tXGmW17-35" vertex="1">
          <mxGeometry y="10.5" width="27" height="31" as="geometry" />
        </mxCell>
        <mxCell id="1h0svEDW4cat6tXGmW17-36" value="" style="group" vertex="1" connectable="0" parent="1">
          <mxGeometry x="-147" y="1539" width="66.99999999999989" height="60" as="geometry" />
        </mxCell>
        <mxCell id="CianoWygyvogbfJQY6NW-148" value="" style="shape=umlActor;verticalLabelPosition=bottom;verticalAlign=top;html=1;outlineConnect=0;fontSize=16;fillColor=#ffe6cc;strokeColor=#d79b00;" parent="1h0svEDW4cat6tXGmW17-36" vertex="1">
          <mxGeometry x="36.999999999999886" width="30" height="60" as="geometry" />
        </mxCell>
        <mxCell id="CianoWygyvogbfJQY6NW-157" value="3" style="text;html=1;align=center;verticalAlign=middle;resizable=0;points=[];autosize=1;strokeColor=#d79b00;fillColor=#ffe6cc;fontSize=16;" parent="1h0svEDW4cat6tXGmW17-36" vertex="1">
          <mxGeometry y="7" width="27" height="31" as="geometry" />
        </mxCell>
        <mxCell id="1h0svEDW4cat6tXGmW17-37" value="" style="group" vertex="1" connectable="0" parent="1">
          <mxGeometry x="-147" y="1649" width="66.99999999999989" height="60" as="geometry" />
        </mxCell>
        <mxCell id="1h0svEDW4cat6tXGmW17-38" value="" style="shape=umlActor;verticalLabelPosition=bottom;verticalAlign=top;html=1;outlineConnect=0;fontSize=16;fillColor=#d5e8d4;strokeColor=#82b366;" vertex="1" parent="1h0svEDW4cat6tXGmW17-37">
          <mxGeometry x="36.999999999999886" width="30" height="60" as="geometry" />
        </mxCell>
        <mxCell id="1h0svEDW4cat6tXGmW17-39" value="4" style="text;html=1;align=center;verticalAlign=middle;resizable=0;points=[];autosize=1;strokeColor=#82b366;fillColor=#d5e8d4;fontSize=16;" vertex="1" parent="1h0svEDW4cat6tXGmW17-37">
          <mxGeometry y="7" width="27" height="31" as="geometry" />
        </mxCell>
        <mxCell id="1h0svEDW4cat6tXGmW17-40" value="" style="rounded=0;orthogonalLoop=1;jettySize=auto;html=1;fontSize=12;startSize=8;endSize=8;fillColor=#d5e8d4;strokeColor=#82b366;exitX=0.5;exitY=0.5;exitDx=0;exitDy=0;exitPerimeter=0;entryX=0;entryY=0.75;entryDx=0;entryDy=0;" edge="1" parent="1" source="1h0svEDW4cat6tXGmW17-38" target="CianoWygyvogbfJQY6NW-49">
          <mxGeometry relative="1" as="geometry">
            <mxPoint x="298" y="1622" as="targetPoint" />
            <mxPoint x="-69" y="1646" as="sourcePoint" />
          </mxGeometry>
        </mxCell>
        <mxCell id="1h0svEDW4cat6tXGmW17-41" value="&lt;div&gt;FTPS export&lt;/div&gt;&lt;div&gt;after deID review&lt;/div&gt;" style="edgeLabel;html=1;align=center;verticalAlign=middle;resizable=0;points=[];fontSize=16;" vertex="1" connectable="0" parent="1h0svEDW4cat6tXGmW17-40">
          <mxGeometry x="0.0113" y="2" relative="1" as="geometry">
            <mxPoint x="-119" y="1" as="offset" />
          </mxGeometry>
        </mxCell>
        <mxCell id="1h0svEDW4cat6tXGmW17-43" style="edgeStyle=orthogonalEdgeStyle;rounded=0;orthogonalLoop=1;jettySize=auto;html=1;exitX=0;exitY=1;exitDx=0;exitDy=0;entryX=0;entryY=0.75;entryDx=0;entryDy=0;fontSize=12;startSize=8;endSize=8;fillColor=#d5e8d4;strokeColor=#82b366;" edge="1" parent="1" source="CianoWygyvogbfJQY6NW-49" target="CianoWygyvogbfJQY6NW-47">
          <mxGeometry relative="1" as="geometry">
            <mxPoint x="308.48" y="1813" as="sourcePoint" />
            <mxPoint x="480.48" y="1876" as="targetPoint" />
          </mxGeometry>
        </mxCell>
        <mxCell id="1h0svEDW4cat6tXGmW17-44" value="&lt;font style=&quot;font-size: 16px;&quot;&gt;&lt;br&gt;&lt;/font&gt;" style="edgeLabel;html=1;align=center;verticalAlign=middle;resizable=0;points=[];fontSize=16;" vertex="1" connectable="0" parent="1h0svEDW4cat6tXGmW17-43">
          <mxGeometry x="-0.0221" relative="1" as="geometry">
            <mxPoint as="offset" />
          </mxGeometry>
        </mxCell>
        <mxCell id="1h0svEDW4cat6tXGmW17-45" value="&lt;div&gt;export FTPS command&lt;/div&gt;" style="edgeLabel;html=1;align=center;verticalAlign=middle;resizable=0;points=[];fontSize=16;" vertex="1" connectable="0" parent="1h0svEDW4cat6tXGmW17-43">
          <mxGeometry x="0.2073" y="7" relative="1" as="geometry">
            <mxPoint as="offset" />
          </mxGeometry>
        </mxCell>
        <mxCell id="1h0svEDW4cat6tXGmW17-47" value="" style="endArrow=none;startArrow=classic;html=1;rounded=0;entryX=-0.006;entryY=0.833;entryDx=0;entryDy=0;entryPerimeter=0;exitX=0.5;exitY=0;exitDx=0;exitDy=0;edgeStyle=orthogonalEdgeStyle;endSize=8;startSize=8;startFill=1;endFill=0;fillColor=#fff2cc;strokeColor=#d6b656;" edge="1" parent="1" source="CianoWygyvogbfJQY6NW-47">
          <mxGeometry width="50" height="50" relative="1" as="geometry">
            <mxPoint x="595" y="1646" as="sourcePoint" />
            <mxPoint x="662" y="1508" as="targetPoint" />
            <Array as="points">
              <mxPoint x="585" y="1552" />
              <mxPoint x="663" y="1552" />
              <mxPoint x="663" y="1508" />
            </Array>
          </mxGeometry>
        </mxCell>
        <mxCell id="1h0svEDW4cat6tXGmW17-48" value="Legend" style="swimlane;whiteSpace=wrap;html=1;" vertex="1" parent="1">
          <mxGeometry x="-11" y="1947" width="430" height="192" as="geometry" />
        </mxCell>
        <mxCell id="1h0svEDW4cat6tXGmW17-63" value="" style="group" vertex="1" connectable="0" parent="1h0svEDW4cat6tXGmW17-48">
          <mxGeometry x="7.999999999999998" y="116.5" width="423.5" height="66" as="geometry" />
        </mxCell>
        <mxCell id="1h0svEDW4cat6tXGmW17-57" value="" style="group" vertex="1" connectable="0" parent="1h0svEDW4cat6tXGmW17-63">
          <mxGeometry y="11.5" width="227.06" height="43" as="geometry" />
        </mxCell>
        <mxCell id="1h0svEDW4cat6tXGmW17-58" value="service A" style="rounded=1;whiteSpace=wrap;html=1;" vertex="1" parent="1h0svEDW4cat6tXGmW17-57">
          <mxGeometry width="82.53" height="43" as="geometry" />
        </mxCell>
        <mxCell id="1h0svEDW4cat6tXGmW17-59" value="&lt;div&gt;service B&lt;/div&gt;" style="rounded=1;whiteSpace=wrap;html=1;" vertex="1" parent="1h0svEDW4cat6tXGmW17-57">
          <mxGeometry x="144.53" width="82.53" height="43" as="geometry" />
        </mxCell>
        <mxCell id="1h0svEDW4cat6tXGmW17-60" style="edgeStyle=orthogonalEdgeStyle;rounded=0;orthogonalLoop=1;jettySize=auto;html=1;exitX=1;exitY=0.5;exitDx=0;exitDy=0;entryX=0;entryY=0.5;entryDx=0;entryDy=0;dashed=1;startArrow=none;startFill=0;dashPattern=1 1;" edge="1" parent="1h0svEDW4cat6tXGmW17-57" source="1h0svEDW4cat6tXGmW17-58" target="1h0svEDW4cat6tXGmW17-59">
          <mxGeometry relative="1" as="geometry" />
        </mxCell>
        <mxCell id="1h0svEDW4cat6tXGmW17-62" value="Service B holds data, but it queries service A because it needs transforming (eg. deidentification)" style="text;html=1;strokeColor=none;fillColor=none;align=center;verticalAlign=middle;whiteSpace=wrap;rounded=0;" vertex="1" parent="1h0svEDW4cat6tXGmW17-63">
          <mxGeometry x="241.5" width="182" height="66" as="geometry" />
        </mxCell>
        <mxCell id="1h0svEDW4cat6tXGmW17-64" value="" style="group" vertex="1" connectable="0" parent="1h0svEDW4cat6tXGmW17-48">
          <mxGeometry x="7.47" y="31.5" width="398.53" height="68" as="geometry" />
        </mxCell>
        <mxCell id="1h0svEDW4cat6tXGmW17-56" value="" style="group" vertex="1" connectable="0" parent="1h0svEDW4cat6tXGmW17-64">
          <mxGeometry y="11.5" width="227.06" height="43" as="geometry" />
        </mxCell>
        <mxCell id="1h0svEDW4cat6tXGmW17-53" value="service A" style="rounded=1;whiteSpace=wrap;html=1;" vertex="1" parent="1h0svEDW4cat6tXGmW17-56">
          <mxGeometry width="82.53" height="43" as="geometry" />
        </mxCell>
        <mxCell id="1h0svEDW4cat6tXGmW17-54" value="&lt;div&gt;service B&lt;/div&gt;" style="rounded=1;whiteSpace=wrap;html=1;" vertex="1" parent="1h0svEDW4cat6tXGmW17-56">
          <mxGeometry x="144.53" width="82.53" height="43" as="geometry" />
        </mxCell>
        <mxCell id="1h0svEDW4cat6tXGmW17-55" style="edgeStyle=orthogonalEdgeStyle;rounded=0;orthogonalLoop=1;jettySize=auto;html=1;exitX=1;exitY=0.5;exitDx=0;exitDy=0;entryX=0;entryY=0.5;entryDx=0;entryDy=0;" edge="1" parent="1h0svEDW4cat6tXGmW17-56" source="1h0svEDW4cat6tXGmW17-53" target="1h0svEDW4cat6tXGmW17-54">
          <mxGeometry relative="1" as="geometry" />
        </mxCell>
        <mxCell id="1h0svEDW4cat6tXGmW17-61" value="&lt;div&gt;Service B brings in data from Service A&lt;/div&gt;&lt;div&gt;(or A pushes data to B)&lt;/div&gt;" style="text;html=1;strokeColor=none;fillColor=none;align=center;verticalAlign=middle;whiteSpace=wrap;rounded=0;" vertex="1" parent="1h0svEDW4cat6tXGmW17-64">
          <mxGeometry x="247.53" width="151" height="68" as="geometry" />
        </mxCell>
      </root>
    </mxGraphModel>
  </diagram>
</mxfile>
